<?xml version="1.0" standalone="no"?>
<!DOCTYPE svg PUBLIC "-//W3C//DTD SVG 20010904//EN"
 "http://www.w3.org/TR/2001/REC-SVG-20010904/DTD/svg10.dtd">
<svg version="1.0" xmlns="http://www.w3.org/2000/svg"
 width="300.000000pt" height="533.000000pt" viewBox="0 0 300.000000 533.000000"
 preserveAspectRatio="xMidYMid meet">
<metadata>
Created by potrace 1.10, written by Peter Selinger 2001-2011
</metadata>
<g transform="translate(0.000000,533.000000) scale(0.100000,-0.100000)"
fill="#000000" stroke="none">
<path d="M2552 5143 c2 -210 6 -195 10 35 2 83 0 152 -4 152 -5 0 -7 -84 -6
-187z"/>
<path d="M2786 5248 c-5 -14 -26 -879 -26 -1022 0 -49 2 -87 4 -85 2 2 7 60
11 129 3 69 8 161 11 205 7 101 13 785 7 785 -2 0 -5 -6 -7 -12z"/>
<path d="M1366 4543 c-9 -10 -7 -43 3 -43 5 0 12 6 15 13 3 8 8 7 16 -6 10
-16 30 -15 30 1 0 12 -56 42 -64 35z"/>
<path d="M1631 4521 c-12 -8 -12 -12 -2 -25 15 -18 41 -21 41 -5 0 6 -7 9 -15
5 -9 -3 -15 0 -15 10 0 8 4 13 9 9 5 -3 12 -1 16 5 8 12 -15 13 -34 1z"/>
<path d="M1680 4513 c1 -23 18 -35 36 -24 11 6 13 11 6 11 -7 0 -10 5 -7 10 3
6 -3 10 -14 10 -12 0 -21 -3 -21 -7z"/>
<path d="M1155 4494 c-11 -8 -29 -13 -41 -10 -14 4 -28 -2 -39 -14 -17 -19
-17 -20 1 -20 11 0 25 5 30 10 7 7 20 6 39 -4 33 -17 49 -11 23 8 -20 14 -14
28 8 19 8 -3 14 0 14 7 0 10 3 10 15 0 13 -11 14 -10 9 4 -8 20 -33 20 -59 0z"/>
<path d="M1474 4498 c-8 -13 16 -19 36 -8 11 6 20 13 20 15 0 7 -51 1 -56 -7z"/>
<path d="M1740 4501 c0 -6 10 -11 23 -11 12 0 33 -3 47 -6 22 -5 23 -4 7 6
-26 17 -77 24 -77 11z"/>
<path d="M1245 4474 c-28 -26 -28 -27 -10 -41 17 -12 20 -11 27 4 6 17 7 17 7
-1 1 -11 6 -16 15 -13 10 4 13 -1 10 -16 -2 -12 -2 -16 2 -9 3 6 13 12 22 12
12 0 10 5 -8 25 -13 14 -29 25 -37 25 -7 0 -13 4 -13 9 0 19 20 22 42 7 28
-20 47 -21 28 -2 -29 28 -55 28 -85 0z"/>
<path d="M997 4441 c-5 -20 29 -61 51 -61 24 0 22 21 -3 30 -14 5 -24 14 -21
19 3 5 0 14 -8 20 -11 9 -15 7 -19 -8z"/>
<path d="M1581 4453 c-13 -3 -31 -12 -40 -20 -14 -14 -13 -15 9 -8 46 14 70
24 70 30 0 3 -3 4 -7 4 -5 -1 -19 -4 -32 -6z"/>
<path d="M1960 4441 c0 -3 18 -16 40 -28 41 -24 62 -18 31 9 -18 16 -71 30
-71 19z"/>
<path d="M724 4374 c-89 -102 -120 -174 -94 -214 8 -13 11 -11 16 8 4 12 9 22
13 22 3 0 6 16 7 34 1 38 37 98 93 154 21 21 30 37 24 43 -6 6 -28 -11 -59
-47z"/>
<path d="M1444 4420 c-38 -15 -37 -29 1 -17 19 6 35 14 35 19 0 10 -8 9 -36
-2z"/>
<path d="M1827 4411 c-6 -3 13 -10 43 -17 44 -10 58 -10 73 1 17 12 11 14 -42
17 -34 1 -67 1 -74 -1z"/>
<path d="M294 4403 c9 -9 118 -12 140 -3 13 5 -10 8 -62 8 -46 0 -81 -2 -78
-5z"/>
<path d="M1568 4393 c-8 -10 -19 -30 -26 -45 -10 -25 -10 -28 9 -28 15 0 19 5
15 18 -3 9 1 29 9 45 16 31 14 34 -7 10z"/>
<path d="M2032 4375 c-18 -15 -31 -30 -28 -32 3 -3 13 2 22 11 17 18 41 16 37
-2 -2 -7 4 -9 14 -5 12 5 15 2 10 -10 -4 -11 -1 -17 8 -17 8 0 15 -4 15 -10 0
-5 -8 -10 -17 -10 -12 0 -14 -3 -6 -11 12 -12 53 4 53 20 0 5 -17 28 -38 51
l-37 42 -33 -27z"/>
<path d="M1458 4350 c-34 -32 -39 -40 -22 -37 24 3 45 22 63 55 17 32 7 27
-41 -18z"/>
<path d="M923 4353 c-13 -2 -23 -8 -23 -13 0 -6 12 -5 27 1 15 5 38 8 50 4 13
-3 23 -1 23 5 0 10 -34 11 -77 3z"/>
<path d="M1142 4348 c36 -35 48 -41 48 -26 0 8 -11 20 -25 26 -33 15 -40 15
-23 0z"/>
<path d="M853 4343 c-13 -2 -23 -9 -23 -14 0 -5 -7 -9 -15 -9 -8 0 -15 -4 -15
-10 0 -15 43 -12 68 6 21 14 30 36 15 33 -5 -1 -18 -4 -30 -6z"/>
<path d="M1617 4272 c-27 -28 -34 -42 -19 -42 4 0 17 16 30 35 27 42 24 44
-11 7z"/>
<path d="M2136 4284 c-9 -24 -7 -31 4 -14 6 10 10 11 10 3 0 -7 4 -13 10 -13
19 0 50 -35 50 -57 0 -13 -3 -22 -7 -21 -13 3 -56 -14 -71 -28 -21 -21 6 -18
50 6 21 11 44 17 53 14 25 -10 5 28 -43 80 -23 25 -44 46 -46 46 -2 0 -7 -7
-10 -16z"/>
<path d="M905 4282 c-13 -9 -17 -62 -4 -62 5 0 9 12 9 26 0 21 4 24 20 19 14
-5 20 -2 20 9 0 16 -27 21 -45 8z"/>
<path d="M970 4275 c-10 -12 -10 -21 -2 -38 10 -21 11 -21 12 -2 1 18 4 16 25
-10 29 -35 32 -26 8 26 -20 43 -25 46 -43 24z"/>
<path d="M1090 4281 c0 -16 65 -29 79 -16 1 2 0 9 -4 15 -5 8 -11 6 -19 -5
-11 -15 -13 -15 -25 -1 -15 17 -31 21 -31 7z"/>
<path d="M1747 4253 c-4 -3 -7 -17 -7 -29 0 -13 -4 -25 -10 -29 -5 -3 -6 -13
-3 -21 6 -16 19 7 37 64 7 21 -3 30 -17 15z"/>
<path d="M1851 4233 c-15 -32 -6 -43 14 -17 17 22 18 31 6 38 -4 3 -13 -6 -20
-21z"/>
<path d="M2090 4245 c-6 -8 -9 -18 -6 -24 3 -5 1 -11 -5 -13 -6 -2 -3 -10 8
-20 17 -16 18 -14 18 28 0 24 0 44 -1 44 -1 0 -7 -7 -14 -15z"/>
<path d="M1686 4235 c-3 -9 -10 -14 -15 -10 -5 3 -13 0 -17 -6 -5 -8 -3 -9 6
-4 10 6 12 3 8 -13 -4 -12 -3 -22 1 -22 8 0 33 62 27 67 -2 2 -6 -3 -10 -12z"/>
<path d="M1894 4195 c-17 -26 -16 -56 2 -62 6 -2 14 3 17 11 4 11 1 13 -11 9
-15 -6 -16 -5 -2 13 8 10 20 22 25 26 6 5 5 8 -3 8 -7 0 -10 5 -7 10 14 22 -6
8 -21 -15z"/>
<path d="M970 4171 c0 -16 5 -33 10 -36 6 -4 10 6 10 24 0 16 -4 33 -10 36 -6
4 -10 -6 -10 -24z"/>
<path d="M850 4155 c-10 -25 -16 -32 -23 -23 -6 9 -6 6 -2 -7 16 -47 23 -74
19 -79 -2 -4 0 -3 5 1 7 7 23 143 17 143 -1 0 -8 -16 -16 -35z"/>
<path d="M2250 4145 c0 -8 -9 -15 -20 -15 -14 0 -20 -7 -20 -21 0 -15 -5 -20
-22 -18 -13 2 -29 0 -35 -4 -9 -5 -13 -2 -13 8 0 9 -4 14 -9 11 -15 -9 -1 -45
15 -39 8 3 14 -1 14 -10 0 -10 7 -13 20 -10 16 4 18 8 9 19 -9 11 -8 14 2 14
8 0 25 12 38 25 23 25 41 25 41 1 0 -8 7 -19 15 -26 18 -15 19 -6 2 40 -13 36
-37 52 -37 25z"/>
<path d="M696 4135 c-4 -11 2 -23 16 -35 24 -19 40 -18 20 2 -17 17 -15 33 3
18 12 -10 15 -10 15 4 0 9 -4 16 -9 16 -5 0 -16 3 -24 6 -8 3 -17 -2 -21 -11z"/>
<path d="M1814 4124 c3 -9 6 -22 6 -30 0 -8 6 -11 15 -8 8 4 15 10 15 16 0 5
-4 6 -10 3 -5 -3 -10 3 -10 14 0 12 -5 21 -11 21 -6 0 -8 -7 -5 -16z"/>
<path d="M1920 4121 c0 -12 -7 -35 -15 -51 -9 -17 -11 -30 -6 -30 5 0 12 6 14
13 3 6 6 -1 6 -18 1 -22 4 -26 10 -16 5 8 7 37 5 64 -4 52 -14 78 -14 38z"/>
<path d="M2093 4116 c3 -7 -1 -25 -8 -39 -7 -14 -12 -37 -11 -51 1 -24 2 -25
14 -9 6 9 12 24 12 34 0 9 3 31 6 48 5 21 3 31 -6 31 -7 0 -10 -6 -7 -14z"/>
<path d="M1874 4096 c-3 -14 -4 -33 -1 -43 3 -10 5 -3 6 15 1 19 5 31 11 27 6
-3 10 1 10 9 0 25 -19 19 -26 -8z"/>
<path d="M2750 3901 c0 -109 -3 -213 -6 -230 l-6 -31 131 0 c81 0 131 4 131
10 0 9 -92 14 -182 10 -43 -2 -50 13 -44 90 2 25 4 101 5 170 1 69 5 131 10
139 9 14 33 17 159 20 28 1 52 6 52 11 0 6 -48 10 -125 10 l-125 0 0 -199z"/>
<path d="M2210 4060 c0 -6 13 -18 29 -28 35 -20 50 -81 28 -112 -8 -11 -16
-18 -18 -15 -3 2 -5 -5 -6 -16 -2 -17 3 -15 27 13 17 18 30 40 30 48 1 10 7 7
22 -10 l21 -25 -8 25 c-4 14 -16 36 -26 49 -11 13 -19 30 -19 38 0 9 -6 13
-14 10 -8 -3 -16 2 -19 14 -5 20 -47 28 -47 9z"/>
<path d="M1950 4000 c0 -16 5 -30 10 -30 6 0 13 -1 17 -2 4 -2 10 9 14 24 5
20 4 25 -7 21 -8 -3 -14 0 -14 6 0 6 -4 11 -10 11 -5 0 -10 -13 -10 -30z"/>
<path d="M598 3988 c7 -7 12 -20 12 -31 0 -10 5 -15 10 -12 6 3 10 -1 10 -9 0
-9 5 -16 10 -16 18 0 10 29 -15 55 -14 14 -29 25 -32 25 -4 0 -2 -5 5 -12z"/>
<path d="M2061 3964 c-17 -20 -26 -89 -13 -98 12 -7 17 8 27 72 7 46 6 48 -14
26z"/>
<path d="M556 3879 c-9 -48 -7 -89 5 -89 5 0 8 4 5 8 -3 4 0 28 5 52 6 26 6
47 1 52 -6 6 -12 -4 -16 -23z"/>
<path d="M640 3902 c0 -7 -4 -11 -9 -8 -5 4 -9 -18 -9 -49 0 -31 5 -52 10 -49
5 3 7 12 4 20 -3 8 -1 14 3 14 5 0 12 -6 14 -12 3 -7 6 5 6 27 0 22 -4 47 -9
55 -7 11 -10 11 -10 2z"/>
<path d="M2287 3866 c-7 -19 0 -25 24 -19 10 3 19 12 19 19 0 18 -36 18 -43 0z"/>
<path d="M2309 3828 c0 -7 0 -33 1 -58 2 -44 2 -45 -18 -27 -14 12 -20 14 -18
5 6 -27 19 -48 30 -48 6 0 23 -7 39 -14 15 -8 27 -11 27 -6 0 4 -12 18 -27 30
-25 19 -26 20 -6 15 19 -5 22 -3 16 12 -3 10 -13 28 -20 40 -10 14 -11 23 -4
28 6 3 11 13 11 21 0 17 -30 19 -31 2z"/>
<path d="M587 3798 c3 -13 10 -29 16 -35 7 -9 5 -13 -7 -13 -9 0 -17 -6 -17
-12 -1 -7 -3 -25 -5 -40 -1 -16 1 -28 7 -28 5 0 9 -4 9 -10 0 -5 -9 -10 -20
-10 -11 0 -20 -4 -20 -10 0 -5 7 -10 17 -10 14 0 14 -3 -3 -22 -10 -12 -13
-18 -6 -14 19 12 14 -8 -8 -27 -11 -9 -20 -22 -20 -29 0 -8 3 -9 8 -3 4 6 16
15 27 21 11 6 18 15 17 19 -2 5 3 12 12 17 9 5 16 14 16 19 0 6 -4 8 -9 4 -6
-3 -6 6 -1 25 6 20 5 30 -2 30 -6 0 -7 7 -3 18 4 9 7 25 7 35 0 9 3 15 9 12 5
-4 9 1 9 9 0 8 -4 17 -10 21 -5 3 -7 12 -4 19 3 7 -2 18 -10 25 -12 10 -14 8
-9 -11z"/>
<path d="M907 3774 c-3 -4 0 -19 8 -35 8 -15 15 -37 15 -48 0 -11 4 -22 9 -26
13 -7 2 61 -14 92 -7 12 -15 20 -18 17z"/>
<path d="M1465 3733 c16 -39 18 -56 7 -49 -8 5 -10 1 -5 -10 4 -11 8 -13 11
-6 2 7 8 10 13 6 14 -8 11 13 -6 46 -17 32 -32 41 -20 13z"/>
<path d="M2510 3625 c0 -65 2 -116 5 -113 7 7 8 219 1 226 -3 3 -6 -48 -6
-113z"/>
<path d="M1640 3695 c0 -17 -2 -41 -5 -55 -3 -14 2 -5 10 20 10 29 12 47 5 54
-7 7 -10 0 -10 -19z"/>
<path d="M2256 3693 c-10 -10 25 -43 46 -43 10 0 18 -2 18 -5 0 -13 -38 -64
-43 -58 -4 3 -7 1 -7 -5 0 -21 -15 -13 -28 16 -23 50 -42 78 -42 61 0 -9 8
-27 18 -40 10 -13 22 -32 25 -42 4 -10 12 -17 19 -15 6 2 27 -12 46 -31 23
-24 31 -29 23 -13 -7 12 -8 22 -4 22 4 0 -3 9 -17 20 -14 11 -20 20 -13 20 6
0 19 3 29 7 12 4 15 3 10 -5 -5 -8 1 -12 16 -12 22 0 22 1 -7 24 -33 27 -30
44 5 26 21 -11 21 -11 5 14 -18 27 -48 41 -65 31 -5 -3 -10 1 -10 9 0 17 -14
29 -24 19z"/>
<path d="M685 3618 c-4 -13 -9 -27 -10 -33 -1 -5 -5 -18 -10 -27 -4 -10 -7
-28 -7 -40 1 -112 5 -164 14 -175 8 -11 7 -12 -8 -6 -17 6 -17 5 -6 -10 14
-16 11 -85 -4 -109 -10 -16 -25 14 -18 36 4 11 2 16 -4 12 -14 -8 -25 25 -12
38 13 13 13 26 0 26 -11 0 -54 -90 -46 -97 3 -3 8 2 12 11 9 22 24 20 24 -4 0
-11 8 -35 18 -54 l19 -34 10 26 c9 23 9 21 5 -18 -2 -25 -9 -50 -14 -56 -18
-23 -20 -108 -5 -159 16 -54 64 -165 71 -165 8 0 -13 73 -22 79 -6 4 -7 89 -1
236 8 211 10 545 4 545 -1 0 -6 -10 -10 -22z"/>
<path d="M2161 3603 c-1 -17 4 -35 10 -38 18 -12 20 2 5 36 l-14 34 -1 -32z"/>
<path d="M2740 3544 l0 -59 130 0 c91 0 130 3 130 11 0 14 -55 24 -135 24 -70
0 -86 8 -79 37 6 20 12 21 106 21 55 0 102 3 106 6 3 3 -44 6 -104 6 -60 0
-119 3 -131 6 -22 6 -23 4 -23 -52z"/>
<path d="M581 3526 c-12 -18 -21 -43 -21 -55 0 -11 -4 -21 -10 -21 -5 0 -9
-15 -8 -32 2 -84 17 -100 43 -45 14 28 14 30 1 13 -22 -28 -32 -12 -12 19 14
21 14 25 1 25 -20 0 -9 57 17 84 16 18 25 46 14 46 -2 0 -14 -15 -25 -34z"/>
<path d="M853 3553 c-16 -6 -17 -29 -1 -39 6 -4 23 -8 37 -10 l26 -3 -25 19
c-13 10 -29 16 -35 12 -5 -3 -4 2 4 11 14 18 14 19 -6 10z"/>
<path d="M1855 3520 c-35 -20 -43 -29 -27 -27 12 0 22 4 22 8 0 12 48 28 71
23 13 -2 17 -1 9 2 -8 4 -17 11 -20 15 -3 4 -28 -5 -55 -21z"/>
<path d="M2172 3412 c3 -75 9 -207 13 -292 7 -181 12 -223 26 -214 6 3 8 13 5
21 -3 8 -1 11 4 8 8 -5 12 5 25 68 5 26 -5 48 -18 40 -6 -4 -8 0 -4 10 3 9 2
19 -4 22 -15 10 -7 96 9 90 16 -6 15 1 -2 28 -8 12 -17 33 -20 47 l-7 25 14
-24 14 -23 7 33 c3 18 14 42 24 53 9 10 11 16 5 12 -7 -4 -13 -3 -13 1 0 5 -7
18 -16 29 -14 18 -15 16 -9 -21 6 -38 6 -39 -11 -23 -12 12 -17 34 -18 77 -1
34 2 61 6 61 4 0 2 12 -4 26 -9 20 -9 30 1 47 8 12 10 19 6 14 -5 -4 -15 -1
-24 7 -15 13 -15 2 -9 -122z"/>
<path d="M794 3496 c-16 -13 -26 -27 -23 -31 10 -9 59 17 52 28 -4 6 0 8 11 4
11 -5 16 -3 14 5 -7 21 -25 19 -54 -6z"/>
<path d="M2287 3514 c-3 -3 -2 -17 4 -31 17 -45 10 -56 -17 -26 -23 26 -24 26
-11 3 8 -14 17 -45 21 -70 5 -41 5 -43 -9 -26 -18 23 -26 18 -19 -12 4 -12 14
-24 24 -27 29 -9 69 -70 70 -106 1 -19 -3 -51 -9 -73 -5 -21 -10 -131 -11
-245 0 -113 -3 -215 -6 -227 -4 -16 0 -24 13 -28 20 -7 20 3 14 -201 -3 -79
-6 -100 -11 -75 l-7 35 -2 -43 c-1 -36 3 -44 22 -51 12 -5 27 -6 32 -3 6 4 3
8 -6 10 -12 2 -17 13 -16 38 1 18 4 34 7 34 4 0 6 54 6 120 -1 66 2 120 7 120
4 0 7 -4 7 -10 0 -5 5 -10 10 -10 6 0 10 7 10 15 0 9 -10 15 -26 15 l-26 0 8
267 c8 319 8 274 5 358 -2 67 -3 69 -14 37 l-12 -33 -19 32 c-19 31 -28 119
-13 119 4 0 6 18 4 41 -4 40 -18 65 -30 53z"/>
<path d="M924 3491 c7 -10 97 -34 103 -27 3 3 -8 8 -23 11 -16 4 -42 11 -57
15 -15 5 -25 5 -23 1z"/>
<path d="M2529 3413 c-59 -127 -122 -298 -121 -330 1 -18 -3 -33 -8 -33 -21 0
-8 -25 35 -71 24 -26 47 -59 51 -73 5 -21 9 -24 20 -15 22 18 56 -16 48 -47
-5 -18 0 -29 17 -43 30 -24 45 -7 18 20 -11 11 -19 27 -19 38 0 33 -25 70 -40
61 -21 -13 -40 8 -40 42 0 16 -4 27 -9 23 -5 -3 -11 5 -13 17 -2 13 -9 22 -16
20 -6 -1 -12 3 -12 9 0 5 -6 7 -12 3 -8 -5 -8 -1 1 10 13 15 13 19 0 27 -12 8
-12 9 1 7 8 -2 15 2 15 7 0 6 -3 9 -7 8 -5 -2 -5 18 1 56 1 3 12 -6 26 -19
l24 -23 12 29 c28 75 36 105 27 102 -9 -3 -35 -65 -36 -86 -1 -4 -8 -8 -16
-10 -18 -4 -20 10 -7 36 5 9 14 35 20 57 36 134 71 218 85 204 2 -2 11 -35 19
-74 12 -54 15 -60 12 -25 -2 25 -7 59 -10 76 -6 27 -4 32 17 37 23 5 128 2
131 -5 2 -1 12 -23 25 -48 16 -33 20 -37 15 -16 -8 40 40 68 50 29 4 -17 5
-17 6 -1 1 14 10 18 49 18 80 -1 112 4 112 18 0 9 -34 12 -135 12 -83 0 -135
4 -135 10 0 6 -35 10 -85 10 l-85 0 -31 -67z"/>
<path d="M2721 3343 c0 -51 3 -93 7 -93 4 0 6 33 4 73 -5 113 -9 121 -11 20z"/>
<path d="M2812 3378 c-6 -6 -12 -30 -12 -52 0 -31 3 -37 12 -28 15 15 28 16
28 2 0 -16 62 -121 68 -115 6 6 -13 46 -41 88 -11 16 -25 49 -31 73 -9 36 -14
42 -24 32z"/>
<path d="M911 3309 c-18 -6 -31 -12 -28 -15 3 -3 27 1 53 10 53 16 30 20 -25
5z"/>
<path d="M2625 3272 c4 -38 3 -52 -5 -47 -12 8 -9 -49 12 -240 10 -93 13 -103
44 -135 22 -23 34 -46 34 -63 0 -15 4 -27 8 -27 4 0 9 -19 10 -42 5 -88 30
-158 57 -158 11 0 15 13 15 50 0 28 -4 50 -9 50 -5 0 -6 -20 -3 -45 5 -49 -1
-57 -18 -25 -17 31 -32 187 -21 207 6 10 18 36 27 58 10 22 24 48 32 58 24 27
8 30 -21 3 -17 -15 -29 -40 -33 -66 l-7 -41 -43 42 c-49 48 -53 63 -25 79 17
8 20 6 26 -20 10 -45 25 -36 25 14 0 30 5 46 15 50 12 4 14 17 10 63 -3 32 -7
89 -9 126 -3 38 -8 72 -11 75 -4 4 -4 -53 0 -125 l7 -133 -23 0 c-13 0 -34 -3
-45 -6 -21 -6 -22 -3 -26 153 -2 104 -8 165 -17 178 -10 17 -11 12 -6 -33z"/>
<path d="M1713 3284 c-7 -3 -13 -18 -13 -34 0 -45 53 -72 96 -49 33 17 30 24
-14 26 -28 2 -33 0 -22 -8 12 -8 11 -9 -5 -6 -11 2 -19 9 -17 15 1 7 -3 11 -9
10 -6 -2 -14 3 -16 10 -3 7 4 12 19 13 13 0 35 2 51 4 20 3 27 -1 27 -13 0
-14 1 -14 13 1 11 15 16 15 57 1 25 -9 53 -23 63 -32 17 -15 17 -14 9 9 -5 13
-22 31 -38 39 -29 14 -177 25 -201 14z"/>
<path d="M913 3268 c-27 -7 -43 -17 -46 -30 -4 -14 -2 -18 9 -14 23 9 74 -5
74 -20 0 -8 12 -16 28 -20 15 -3 33 -7 40 -10 7 -2 11 0 7 5 -3 5 -19 12 -35
16 -17 4 -28 10 -25 15 3 5 -3 13 -12 19 -12 6 -15 13 -8 20 12 12 127 17 143
7 7 -4 12 -2 12 3 0 6 5 11 11 11 6 0 9 -10 7 -21 -2 -15 -11 -23 -30 -25 -16
-1 -28 2 -28 8 0 5 -6 8 -14 5 -7 -3 -19 0 -25 6 -14 14 -14 5 1 -28 16 -36
80 -36 104 0 8 13 13 29 10 34 -4 5 -2 12 2 15 12 7 52 -31 52 -49 0 -8 7 -15
15 -15 23 0 18 21 -12 52 -26 27 -29 28 -132 27 -58 -1 -125 -6 -148 -11z"/>
<path d="M1641 3256 c-13 -13 -21 -32 -19 -43 3 -14 7 -12 21 14 9 18 25 37
34 42 15 9 16 10 2 11 -8 0 -26 -11 -38 -24z"/>
<path d="M1850 3205 c-25 -13 -39 -24 -32 -24 20 -1 82 30 82 40 0 5 -1 9 -2
8 -2 -1 -23 -12 -48 -24z"/>
<path d="M2254 3222 c-6 -4 -8 -33 -4 -72 6 -72 14 -71 24 5 7 51 -2 79 -20
67z"/>
<path d="M2844 2945 c-4 -16 1 -78 10 -140 15 -100 15 -115 1 -148 -19 -46
-19 -115 -1 -136 43 -48 10 -111 -59 -111 -49 0 -64 12 -57 46 6 35 18 38 40
9 25 -31 27 -31 28 0 1 16 -5 26 -17 30 -27 9 -58 52 -52 74 3 11 0 28 -5 38
-8 13 -11 -16 -12 -107 0 -69 -3 -154 -6 -190 l-5 -65 40 -28 c25 -17 42 -38
46 -57 4 -17 11 -30 16 -30 11 0 11 -5 -5 57 -8 28 -11 54 -8 57 5 6 -14 10
-30 7 -5 0 -9 9 -9 21 -3 52 -9 80 -19 93 -8 9 -6 14 6 19 22 8 24 8 24 -8 0
-9 8 -12 25 -8 30 5 35 -21 8 -37 -10 -6 -13 -10 -8 -10 6 0 18 6 28 13 13 10
29 11 70 4 28 -5 58 -14 65 -20 9 -8 12 -6 12 6 0 9 -4 16 -9 16 -4 0 -11 20
-14 45 -5 51 -12 64 -28 48 -6 -6 -6 -18 1 -37 7 -21 7 -28 -4 -32 -26 -10
-81 2 -84 18 -3 16 31 43 63 50 24 4 22 35 -6 90 -22 43 -24 81 -8 128 9 24 9
57 0 134 -25 203 -26 206 -37 161z"/>
<path d="M2268 2922 l-26 -3 0 -97 c1 -101 15 -95 17 6 1 43 6 57 24 72 26 21
22 27 -15 22z"/>
<path d="M2896 2862 c4 -15 12 -49 20 -77 l13 -50 0 43 c1 23 5 42 10 42 18 0
-2 46 -25 57 -23 10 -24 10 -18 -15z"/>
<path d="M85 2859 c128 -10 585 -10 560 1 -11 5 -162 8 -335 8 -216 -1 -287
-3 -225 -9z"/>
<path d="M1180 2835 c-30 -49 -36 -98 -14 -116 12 -10 15 -10 10 -1 -13 21 4
91 27 113 15 13 18 22 10 30 -7 7 -17 0 -33 -26z"/>
<path d="M1589 2859 c-12 -7 -11 -9 2 -9 19 0 69 -51 69 -70 0 -7 3 -10 6 -7
10 10 -22 70 -44 84 -12 7 -24 8 -33 2z"/>
<path d="M2491 2728 c1 -124 14 -106 20 30 3 54 0 76 -8 79 -10 4 -13 -22 -12
-109z"/>
<path d="M2943 2796 c4 -14 57 -21 57 -8 0 5 -14 12 -30 14 -19 3 -29 1 -27
-6z"/>
<path d="M1240 2731 c0 -16 25 -27 60 -25 55 3 57 4 30 19 -28 16 -90 20 -90
6z"/>
<path d="M1500 2730 c-20 -12 -12 -18 30 -20 53 -3 60 -1 60 15 0 17 -65 21
-90 5z"/>
<path d="M2936 2712 c-3 -5 -3 -25 0 -44 5 -30 9 -34 30 -30 20 4 24 10 24 38
0 34 -14 46 -23 22 -3 -8 -6 -6 -6 5 -1 18 -16 23 -25 9z"/>
<path d="M2150 2671 c0 -9 71 -23 79 -16 7 8 -2 12 -41 18 -21 3 -38 2 -38 -2z"/>
<path d="M2248 2655 c4 -23 3 -24 -52 -19 -36 3 -56 2 -56 -5 0 -7 24 -11 60
-11 l61 0 -3 -102 -3 -103 -65 -5 -65 -5 52 -8 c29 -4 59 -14 67 -22 8 -8 17
-15 19 -15 3 0 8 47 12 105 8 116 0 201 -19 208 -9 4 -11 -2 -8 -18z"/>
<path d="M2091 2579 c-12 -41 -29 -88 -38 -105 -24 -46 -11 -67 16 -24 31 51
62 156 52 181 -6 18 -12 8 -30 -52z"/>
<path d="M2543 2575 c0 -33 2 -45 4 -27 2 18 2 45 0 60 -2 15 -4 0 -4 -33z"/>
<path d="M2436 2603 c-9 -10 -7 -321 3 -327 9 -6 21 135 21 250 0 67 -8 93
-24 77z"/>
<path d="M0 2562 c0 -5 16 -14 35 -22 43 -17 44 -25 3 -28 -33 -3 -45 -8 -37
-17 3 -2 68 -7 144 -10 92 -4 137 -3 130 3 -11 11 -238 82 -261 82 -8 0 -14
-4 -14 -8z"/>
<path d="M410 2498 c0 -69 19 -98 21 -33 1 19 2 41 3 48 0 6 16 13 34 15 25 3
32 -1 33 -15 0 -13 3 -12 10 7 7 18 12 21 18 11 6 -10 10 -9 15 4 11 29 8 30
-64 30 l-70 0 0 -67z"/>
<path d="M575 2530 c-3 -6 5 -10 19 -10 14 0 28 -5 31 -10 4 -6 19 -9 33 -7
27 4 27 4 30 -66 4 -87 17 -118 27 -64 4 20 11 37 16 37 17 0 9 19 -11 25 -24
8 -25 22 -5 45 13 14 13 19 -1 38 -13 18 -25 22 -74 22 -32 0 -62 -4 -65 -10z"/>
<path d="M744 2524 c3 -9 9 -40 12 -70 4 -30 11 -54 16 -54 6 0 8 7 4 15 -3 8
2 19 11 24 15 8 15 13 -8 55 -22 43 -49 65 -35 30z"/>
<path d="M636 2463 c-2 -10 -5 -62 -5 -116 0 -89 2 -98 17 -92 9 4 31 11 47
17 61 20 72 29 67 54 -4 24 13 35 20 13 3 -8 18 -9 47 -4 23 4 41 8 39 10 -2
2 -25 6 -53 10 -57 7 -65 12 -45 26 13 9 13 10 0 7 -17 -5 -48 -56 -49 -82 -1
-13 -6 -16 -18 -12 -9 4 -20 1 -24 -5 -11 -18 -29 -1 -29 27 0 14 4 22 10 19
6 -3 10 5 10 19 0 13 -5 26 -11 28 -7 2 -7 12 0 30 10 27 5 68 -9 68 -5 0 -11
-8 -14 -17z"/>
<path d="M250 2421 c0 -14 -5 -19 -15 -15 -8 4 -15 1 -15 -6 0 -10 22 -11 95
-6 l95 7 0 -27 c0 -20 3 -25 11 -17 12 12 2 63 -15 69 -12 5 -90 -9 -118 -21
-13 -5 -18 -3 -18 8 0 9 -4 19 -10 22 -5 3 -10 -3 -10 -14z"/>
<path d="M0 2396 c0 -34 1 -36 28 -30 15 3 36 9 47 14 11 4 28 11 38 14 23 7
22 26 -2 26 -10 0 -39 3 -65 6 l-46 7 0 -37z"/>
<path d="M2041 2374 c-12 -15 -21 -31 -21 -36 0 -6 35 -9 87 -7 63 3 87 1 90
-8 4 -10 -12 -13 -54 -13 -47 -1 -54 -3 -39 -12 10 -6 43 -10 72 -9 40 1 54
-3 54 -13 0 -8 -6 -16 -12 -19 -26 -9 98 -37 164 -37 39 0 68 -4 68 -10 0 -5
5 -10 10 -10 14 0 13 47 -1 56 -6 3 -14 2 -18 -3 -3 -6 -32 -12 -63 -15 l-57
-5 -22 54 c-12 30 -23 52 -25 50 -3 -2 3 -20 11 -40 24 -58 17 -66 -10 -11
-29 58 -72 90 -135 99 -25 3 -52 9 -61 11 -10 3 -26 -6 -38 -22z"/>
<path d="M1183 2378 c-33 -9 -42 -21 -23 -33 6 -4 7 -11 4 -17 -4 -7 -2 -8 5
-4 6 4 9 11 6 16 -12 19 130 25 193 8 24 -7 55 -6 101 4 36 7 74 12 84 11 9
-2 17 1 17 6 0 17 -43 20 -78 5 -45 -18 -100 -18 -147 2 -32 13 -42 13 -62 3
-16 -9 -29 -9 -45 -2 -14 6 -36 6 -55 1z"/>
<path d="M1625 2370 c-56 -8 -54 -9 24 -16 49 -5 53 -4 42 10 -8 9 -14 15 -15
14 0 0 -23 -4 -51 -8z"/>
<path d="M350 2335 c-7 -9 -10 -18 -8 -21 10 -10 58 8 58 22 0 19 -34 18 -50
-1z"/>
<path d="M557 2333 c-4 -3 -7 -35 -7 -70 0 -62 1 -63 21 -52 16 8 18 13 9 19
-9 6 -11 23 -7 59 6 47 0 61 -16 44z"/>
<path d="M823 2300 c-31 -19 -53 -50 -68 -98 -6 -22 -5 -22 14 -10 12 7 19 19
16 25 -2 7 0 13 6 13 6 0 7 5 4 11 -10 15 34 49 62 49 13 0 22 -4 18 -9 -3 -5
-1 -12 4 -15 5 -4 10 -64 10 -134 0 -70 2 -134 4 -142 2 -8 8 -34 12 -58 4
-23 12 -45 16 -48 5 -3 9 -15 10 -27 0 -25 47 -129 48 -109 1 7 -13 59 -30
115 -28 90 -32 120 -37 252 -4 150 -16 205 -45 205 -6 0 -26 -9 -44 -20z"/>
<path d="M1991 2292 c-15 -28 -14 -31 9 -25 22 6 24 11 11 32 -7 11 -11 10
-20 -7z"/>
<path d="M310 2280 c-9 -17 -8 -20 7 -20 16 -1 16 -2 -2 -16 -11 -8 -19 -20
-17 -26 1 -5 -3 -16 -9 -24 -7 -8 -9 -17 -6 -20 10 -10 27 6 27 27 0 10 14 32
32 49 34 33 34 34 1 44 -16 5 -25 2 -33 -14z"/>
<path d="M2790 2285 c0 -8 4 -15 9 -15 19 0 166 -21 184 -26 11 -4 17 0 17 11
0 9 -3 14 -8 12 -11 -8 -115 13 -130 26 -10 8 -16 7 -22 -4 -7 -11 -12 -11
-22 -1 -16 16 -28 15 -28 -3z"/>
<path d="M2120 2250 c0 -4 12 -10 28 -13 15 -3 49 -24 76 -47 57 -47 86 -57
129 -41 l32 11 -37 -6 c-42 -5 -60 2 -133 56 -49 36 -95 56 -95 40z"/>
<path d="M1956 2228 c-3 -13 -8 -63 -11 -112 -8 -115 -41 -216 -110 -341 -30
-54 -55 -103 -55 -108 0 -5 -7 -15 -15 -23 -8 -9 -15 -23 -15 -32 0 -11 9 -4
22 18 13 19 26 37 30 38 5 2 6 8 2 13 -3 5 0 9 5 9 6 0 11 5 11 12 0 6 12 27
28 47 33 44 43 62 66 126 10 28 20 57 23 65 15 39 23 96 28 208 5 96 1 130 -9
80z"/>
<path d="M2850 2173 c4 -41 5 -43 8 -15 l3 32 70 0 c55 0 69 3 69 15 0 12 -15
15 -78 15 l-77 0 5 -47z"/>
<path d="M2727 2172 c-13 -14 -15 -22 -7 -27 16 -10 33 9 28 30 -3 16 -5 15
-21 -3z"/>
<path d="M2450 2173 c28 -3 38 -10 49 -34 9 -21 16 -27 21 -19 12 19 55 15 95
-9 43 -25 57 -27 29 -5 -18 15 -18 15 6 9 48 -14 98 -17 104 -7 5 9 -94 32
-138 32 -9 0 -34 9 -56 20 -27 14 -56 19 -92 18 -39 -1 -44 -2 -18 -5z"/>
<path d="M115 2136 c-31 -14 -90 -68 -106 -98 -17 -32 16 -10 51 33 26 33 36
39 60 35 43 -6 51 -14 44 -44 -6 -25 -5 -25 19 8 13 19 23 39 21 45 -6 14 136
17 153 4 7 -6 10 -15 7 -20 -3 -5 1 -6 8 -4 7 3 18 13 24 23 10 16 3 17 -85
20 -53 1 -112 4 -131 7 -19 3 -48 -1 -65 -9z"/>
<path d="M452 2134 c-18 -13 -21 -19 -11 -30 17 -20 25 -18 49 16 20 28 20 30
3 30 -10 0 -29 -7 -41 -16z"/>
<path d="M2018 2099 c-7 -18 8 -59 22 -59 13 0 13 1 -4 40 -8 20 -15 27 -18
19z"/>
<path d="M137 1944 c-7 -40 10 -154 25 -169 7 -7 8 -2 3 13 -4 13 -7 59 -7
103 0 83 -12 113 -21 53z"/>
<path d="M1506 1305 c-3 -8 -12 -15 -20 -15 -7 0 -16 -7 -20 -15 -5 -14 -2
-13 24 0 17 9 30 22 30 30 0 19 -6 19 -14 0z"/>
<path d="M1240 1290 c9 -16 15 -18 30 -10 19 10 25 6 21 -14 -1 -5 6 -3 15 5
10 8 15 9 11 3 -4 -7 0 -15 9 -18 11 -4 15 -2 11 8 -7 18 42 14 53 -4 9 -15
46 -5 54 16 5 12 2 12 -15 4 -14 -8 -24 -8 -33 -1 -7 6 -40 11 -74 13 -34 1
-62 6 -62 10 0 4 -7 8 -15 8 -13 0 -14 -4 -5 -20z"/>
</g>
</svg>
