<?xml version="1.0" encoding="utf-8"?>
<svg version="1.1" viewBox="-5.0 -10.0 110.0 135.0" xmlns="http://www.w3.org/2000/svg">
  <defs/>
  <text x="0.0" y="117.5" font-size="5.0" font-weight="bold" font-family="Arbeit Regular, Helvetica, Arial-Unicode, Arial, Sans-serif" fill="#000000" style="white-space: pre;"> </text>
  <path d="M 34.046 65.498 L 32.734 65.498 C 28.355 65.494 24.808 61.947 24.8 57.568 L 24.8 46.986 C 24.8 44.502 26.816 42.486 29.3 42.486 L 34.749 42.486 C 35.038 42.486 43.55 29.392 43.55 29.392 C 44.05 28.502 44.98 27.935 45.999 27.9 L 71.683 27.9 C 72.465 27.916 73.207 28.252 73.742 28.822 L 87.238 42.197 C 87.386 42.353 87.582 42.463 87.797 42.506 L 100.602 45.107 C 103.07 45.623 104.832 47.814 104.801 50.338 L 104.801 61.002 C 104.801 63.49 102.785 65.502 100.301 65.502 L 95.648 65.502 C 94.285 69.428 90.586 72.057 86.434 72.057 C 82.277 72.057 78.582 69.428 77.215 65.502 L 52.481 65.502 C 51.118 69.428 47.418 72.057 43.266 72.057 C 39.11 72.057 35.411 69.428 34.047 65.502 L 34.046 65.498 Z M 96.066 46.353 L 96.488 47.81 C 96.902 49.318 98.285 50.357 99.851 50.338 L 102.671 50.338 C 102.71 48.822 101.656 47.494 100.171 47.189 L 96.066 46.353 Z M 34.136 58.876 L 27.034 58.665 C 27.565 61.396 29.952 63.368 32.733 63.376 L 33.569 63.376 C 33.401 61.853 33.593 60.31 34.136 58.876 Z M 76.925 60.15 L 52.581 59.423 L 52.577 59.423 C 52.971 60.7 53.1 62.044 52.956 63.376 L 76.737 63.376 C 76.624 62.298 76.686 61.208 76.92 60.15 L 76.925 60.15 Z M 102.671 60.911 L 96.054 60.716 L 96.054 60.72 C 96.198 61.595 96.222 62.489 96.124 63.376 L 100.3 63.376 C 101.604 63.372 102.663 62.314 102.667 61.009 L 102.671 60.911 Z M 86.432 57.888 L 86.436 57.884 C 88.221 57.888 89.834 58.962 90.518 60.615 C 91.201 62.263 90.822 64.165 89.557 65.427 C 88.295 66.693 86.393 67.068 84.744 66.384 C 83.092 65.701 82.018 64.091 82.018 62.306 C 82.018 59.865 83.994 57.888 86.436 57.884 L 86.432 57.888 Z M 88.049 60.689 L 88.053 60.685 C 87.397 60.033 88.483 61.115 88.053 60.685 L 88.049 60.689 Z M 91.822 56.915 C 89.643 54.736 86.365 54.083 83.518 55.263 C 80.67 56.443 78.815 59.22 78.815 62.302 C 78.815 65.384 80.67 68.166 83.518 69.345 C 86.365 70.525 89.643 69.873 91.822 67.693 C 94.799 64.716 94.799 59.892 91.822 56.916 L 91.822 56.915 Z M 43.26 57.884 L 43.264 57.884 C 45.05 57.884 46.663 58.962 47.346 60.611 C 48.03 62.263 47.651 64.166 46.385 65.427 C 45.124 66.693 43.221 67.068 41.573 66.384 C 39.921 65.701 38.842 64.091 38.842 62.302 C 38.846 59.865 40.823 57.888 43.264 57.884 L 43.26 57.884 Z M 48.651 56.912 C 46.471 54.732 43.194 54.08 40.346 55.259 C 37.499 56.439 35.643 59.22 35.643 62.302 C 35.643 65.384 37.499 68.162 40.346 69.341 C 43.194 70.521 46.471 69.869 48.651 67.689 C 51.628 64.713 51.628 59.888 48.651 56.912 Z M 54.428 33.857 L 49.014 33.861 C 48.733 33.861 42.78 42.22 42.78 42.22 C 42.635 42.419 43.1 42.9 43.518 42.9 L 54.432 42.845 L 54.436 42.845 C 54.792 42.837 55.081 42.548 55.077 42.189 L 55.077 34.517 C 55.077 34.157 54.788 33.864 54.428 33.864 L 54.428 33.857 Z M 49.018 31.728 L 54.428 31.728 C 55.964 31.732 45.354 34.91 45.354 36.445 C 45.354 36.445 39.831 42.704 41.049 40.985 C 41.049 40.985 47.991 31.782 49.018 31.728 Z M 62.389 42.845 L 77.959 42.657 C 78.463 42.649 78.873 41.993 78.561 41.688 L 70.928 34.263 L 72.477 32.474 C 72.324 32.29 77.909 34.105 77.674 34.07 L 62.389 33.923 C 62.029 33.923 61.74 34.216 61.736 34.575 L 61.736 42.188 C 61.736 42.36 61.803 42.528 61.924 42.653 C 62.049 42.774 62.217 42.845 62.389 42.845 Z M 62.536 31.958 L 62.421 44.966 C 62.421 44.966 60.96 44.685 60.433 44.165 C 59.905 43.642 59.609 42.931 59.613 42.188 L 59.613 34.579 C 59.613 33.044 60.859 31.798 62.394 31.798 L 70.339 31.798 C 71.132 31.813 76.325 37.278 76.86 37.864 L 80.05 40.169 C 81.741 41.817 69.801 31.865 62.536 31.958 Z" style="fill: rgb(187, 187, 187);"/>
  <path d="M 34.052 65.498 L 32.74 65.061 C 24.285 65.697 24.806 46.549 24.806 46.549 C 24.806 44.065 26.822 42.486 29.306 42.486 L 34.755 42.486 C 35.044 42.486 43.556 29.392 43.556 29.392 C 44.056 28.502 71.689 27.9 71.689 27.9 C 72.471 27.916 73.213 28.252 73.748 28.822 L 87.244 42.197 C 87.392 42.353 87.588 42.463 87.803 42.506 L 100.608 45.107 C 103.076 45.623 104.838 47.814 104.807 50.338 L 104.807 61.002 C 104.807 63.49 102.791 65.502 100.307 65.502 L 95.654 65.502 C 94.291 69.428 90.592 72.057 86.44 72.057 C 82.283 72.057 78.588 69.428 77.221 65.502 L 52.487 65.502 C 51.124 69.428 47.424 72.057 43.272 72.057 C 39.116 72.057 35.417 69.428 34.053 65.502 L 34.052 65.498 Z M 96.072 46.353 L 96.494 47.81 C 96.908 49.318 98.291 50.357 99.857 50.338 L 102.677 50.338 C 102.716 48.822 101.662 47.494 100.177 47.189 L 96.072 46.353 Z M 34.142 58.876 L 33.575 63.376 C 33.407 61.853 33.599 60.31 34.142 58.876 Z M 76.931 60.15 L 52.587 59.423 L 76.931 60.15 Z M 86.438 57.888 L 86.442 57.884 C 88.227 57.888 89.84 58.962 90.524 60.615 C 91.207 62.263 90.828 64.165 89.563 65.427 C 88.301 66.693 89.432 59.216 87.783 58.532 C 86.131 57.849 82.024 64.091 82.024 62.306 C 82.024 59.865 84 57.888 86.442 57.884 L 86.438 57.888 Z M 88.055 60.689 L 88.059 60.685 C 87.403 60.033 86.418 59.837 85.563 60.189 C 84.707 60.544 84.153 61.38 84.153 62.306 C 84.153 63.232 84.707 64.064 85.563 64.419 C 86.418 64.775 87.403 64.58 88.059 63.923 C 88.489 63.494 88.731 62.912 88.731 62.306 C 88.731 61.697 88.489 61.115 88.059 60.685 L 88.055 60.689 Z M 43.266 57.884 L 43.27 57.884 C 45.056 57.884 46.669 58.962 47.352 60.611 C 48.036 62.263 47.657 64.166 46.391 65.427 C 45.13 66.693 46.058 58.712 44.41 58.028 C 42.758 57.345 38.848 64.091 38.848 62.302 C 38.852 59.865 40.829 57.888 43.27 57.884 L 43.266 57.884 Z M 44.888 60.685 L 44.891 60.685 C 44.235 60.029 43.251 59.833 42.395 60.189 C 41.54 60.54 40.981 61.376 40.981 62.302 C 40.981 63.228 41.54 64.064 42.395 64.419 C 43.251 64.775 44.235 64.576 44.891 63.923 C 45.782 63.029 45.782 61.58 44.891 60.685 L 44.888 60.685 Z M 54.434 33.857 L 49.02 33.861 C 48.739 33.861 42.786 42.22 42.786 42.22 C 42.641 42.419 43.106 42.9 43.524 42.9 L 54.438 42.845 L 54.442 42.845 C 54.798 42.837 55.087 42.548 55.083 42.189 L 55.083 34.517 C 55.083 34.157 54.794 33.864 54.434 33.864 L 54.434 33.857 Z M 49.024 31.728 L 54.434 31.728 C 55.97 31.732 45.36 34.91 45.36 36.445 C 45.36 36.445 39.837 42.704 41.055 40.985 C 41.055 40.985 47.997 31.782 49.024 31.728 Z M 62.395 42.845 L 77.965 42.657 C 78.469 42.649 78.879 41.993 78.567 41.688 L 70.934 34.263 L 72.483 32.474 C 72.33 32.29 77.915 34.105 77.68 34.07 L 62.395 33.923 C 62.035 33.923 61.746 34.216 61.742 34.575 L 61.742 42.188 C 61.742 42.36 61.809 42.528 61.93 42.653 C 62.055 42.774 62.223 42.845 62.395 42.845 Z M 62.542 31.958 L 62.427 44.966 C 62.427 44.966 60.966 44.685 60.439 44.165 C 59.911 43.642 59.615 42.931 59.619 42.188 L 59.619 34.579 C 59.619 33.044 60.865 31.798 62.4 31.798 L 70.345 31.798 C 71.138 31.813 76.331 37.278 76.866 37.864 L 80.056 40.169 C 81.747 41.817 69.807 31.865 62.542 31.958 Z" style="fill: rgb(114, 114, 114);"/>
  <path d="M 34.046 65.497 L 32.733 65.497 C 28.354 65.493 24.807 61.946 24.8 57.567 L 24.8 46.985 C 24.8 44.501 26.815 42.485 29.3 42.485 L 34.749 42.485 C 35.038 42.485 44.979 27.935 45.999 27.9 L 71.683 27.9 C 72.464 27.915 73.206 28.251 73.741 28.822 C 73.741 28.822 87.581 42.462 87.796 42.505 L 100.601 45.107 C 103.07 45.622 104.832 47.814 104.8 50.337 L 104.8 61.001 C 104.8 63.49 102.785 65.501 100.3 65.501 L 95.648 65.501 C 94.285 69.427 90.585 72.056 86.433 72.056 C 82.277 72.056 78.582 69.427 77.214 65.501 L 52.48 65.501 C 51.117 69.427 47.418 72.056 43.266 72.056 C 39.109 72.056 35.41 69.427 34.047 65.501 L 34.046 65.497 Z M 102.671 52.462 L 99.85 52.462 C 97.343 52.478 95.132 50.818 94.452 48.4 L 93.722 45.876 L 87.374 44.587 C 86.753 44.466 86.182 44.161 85.741 43.704 L 72.245 30.333 C 72.104 30.158 71.901 30.052 71.683 30.033 L 45.999 30.033 C 45.706 30.033 45.487 30.31 45.327 30.556 L 37.198 43.122 C 36.706 44.02 35.772 44.587 34.745 44.614 L 29.299 44.614 C 27.995 44.622 26.936 45.681 26.932 46.985 L 26.932 56.536 L 35.233 56.782 C 37.112 54.056 40.249 52.466 43.557 52.563 C 46.87 52.661 49.905 54.434 51.62 57.266 L 77.671 58.044 L 77.667 58.044 C 79.35 54.595 82.893 52.45 86.729 52.563 C 90.565 52.677 93.979 55.028 95.452 58.571 L 102.679 58.786 L 102.671 52.462 Z M 96.065 46.353 L 96.487 47.81 C 96.901 49.318 96.065 46.353 96.065 46.353 Z M 34.135 58.876 L 27.034 58.665 C 27.565 61.395 29.952 63.368 32.733 63.376 L 33.569 63.376 C 33.401 61.852 33.592 60.309 34.135 58.876 Z M 76.924 60.149 L 52.58 59.423 L 52.576 59.423 C 52.971 60.7 53.1 62.044 52.955 63.376 L 76.736 63.376 C 76.623 62.298 76.685 61.208 76.92 60.149 L 76.924 60.149 Z M 102.67 60.911 L 96.053 60.716 L 96.053 60.719 C 96.198 61.594 96.221 62.489 96.123 63.376 L 100.299 63.376 C 101.604 63.372 102.662 62.313 102.666 61.008 L 102.67 60.911 Z M 60.033 48.915 C 59.447 48.915 58.971 48.438 58.971 47.848 C 58.971 47.259 59.447 46.782 60.033 46.782 L 63.443 46.782 C 64.033 46.782 64.51 47.259 64.51 47.848 C 64.51 48.438 64.033 48.915 63.443 48.915 L 60.033 48.915 Z M 86.431 57.888 L 86.435 57.884 C 88.22 57.888 89.834 58.962 90.517 60.614 C 91.201 62.263 90.822 64.165 89.556 65.427 C 88.295 66.692 86.392 67.067 84.744 66.384 C 83.091 65.7 82.017 64.091 82.017 62.306 C 82.017 59.864 83.994 57.888 86.435 57.884 L 86.431 57.888 Z M 88.048 60.688 L 88.052 60.684 C 87.396 60.032 86.412 59.837 85.556 60.188 C 84.701 60.544 84.146 61.38 84.146 62.306 C 84.146 63.231 84.701 64.063 85.556 64.419 C 86.412 64.774 87.396 64.579 88.052 63.923 C 88.482 63.493 88.724 62.911 88.724 62.306 C 88.724 61.696 88.482 61.114 88.052 60.684 L 88.048 60.688 Z M 91.822 56.915 C 89.642 54.735 86.365 54.083 83.517 55.263 C 80.669 56.442 78.814 59.22 78.814 62.302 C 78.814 65.384 80.67 68.165 83.517 69.345 C 86.365 70.524 89.642 69.872 91.822 67.692 C 94.798 64.716 94.798 59.892 91.822 56.915 Z M 43.26 57.884 L 43.264 57.884 C 45.049 57.884 46.662 58.962 47.346 60.61 C 48.029 62.263 47.65 64.165 46.385 65.427 C 45.123 66.692 43.221 67.067 41.572 66.384 C 39.92 65.7 38.842 64.091 38.842 62.302 C 38.846 59.864 40.822 57.888 43.264 57.884 L 43.26 57.884 Z M 44.881 60.684 L 44.885 60.684 C 44.229 60.028 43.244 59.833 42.389 60.188 C 41.533 60.54 40.975 61.376 40.975 62.302 C 40.975 63.227 41.533 64.063 42.389 64.419 C 43.244 64.774 44.229 64.575 44.885 63.923 C 45.775 63.028 45.775 61.579 44.885 60.685 L 44.881 60.684 Z M 48.65 56.911 C 46.471 54.731 43.193 54.079 40.346 55.259 C 37.498 56.438 35.643 59.22 35.643 62.302 C 35.643 65.384 37.498 68.161 40.346 69.341 C 43.193 70.521 46.471 69.868 48.65 67.689 C 51.627 64.712 51.627 59.888 48.65 56.912 L 48.65 56.911 Z M 49.018 31.727 L 54.428 31.727 C 55.963 31.731 57.209 32.977 57.209 34.512 L 57.209 42.188 C 57.205 43.715 55.971 44.954 54.443 44.965 L 43.529 45.02 C 41.443 45.028 39.83 42.704 41.049 40.985 L 46.561 33.254 C 47.064 32.36 47.99 31.782 49.018 31.727 Z M 77.991 44.778 L 62.421 44.965 L 62.417 44.965 C 61.674 44.973 60.96 44.684 60.432 44.165 C 59.905 43.641 59.608 42.93 59.612 42.188 L 59.612 34.579 C 59.612 33.043 60.858 31.797 62.393 31.797 L 70.338 31.797 C 71.131 31.813 71.885 32.157 72.42 32.743 L 80.049 40.168 C 81.741 41.817 80.374 44.75 77.991 44.782 L 77.991 44.778 Z" style="fill: rgba(67, 67, 67, 0.3);"/>
  <path d="M 34.046 65.498 L 32.734 65.498 C 28.355 65.494 24.808 61.947 24.8 57.568 L 24.8 46.986 C 24.8 44.502 26.816 42.486 29.3 42.486 L 34.749 42.486 C 35.038 42.486 43.55 29.392 43.55 29.392 C 44.05 28.502 44.98 27.935 45.999 27.9 L 71.683 27.9 C 72.465 27.916 73.207 28.252 73.742 28.822 L 87.238 42.197 C 87.386 42.353 87.582 42.463 87.797 42.506 L 100.602 45.107 C 103.07 45.623 104.832 47.814 104.801 50.338 L 104.801 61.002 C 104.801 63.49 102.785 65.502 100.301 65.502 L 95.648 65.502 C 94.285 69.428 90.586 72.057 86.434 72.057 C 82.277 72.057 78.582 69.428 77.215 65.502 L 52.481 65.502 C 51.118 69.428 47.418 72.057 43.266 72.057 C 39.11 72.057 35.411 69.428 34.047 65.502 L 34.046 65.498 Z M 96.066 46.353 L 96.488 47.81 C 96.902 49.318 98.285 50.357 99.851 50.338 L 102.671 50.338 C 102.71 48.822 101.656 47.494 100.171 47.189 L 96.066 46.353 Z M 34.136 58.876 L 27.034 58.665 C 27.565 61.396 29.952 63.368 32.733 63.376 L 33.569 63.376 C 33.401 61.853 33.593 60.31 34.136 58.876 Z M 76.925 60.15 L 52.581 59.423 L 52.577 59.423 C 52.971 60.7 53.1 62.044 52.956 63.376 L 76.737 63.376 C 76.624 62.298 76.686 61.208 76.92 60.15 L 76.925 60.15 Z M 102.671 60.911 L 96.054 60.716 L 96.054 60.72 C 96.198 61.595 96.222 62.489 96.124 63.376 L 100.3 63.376 C 101.604 63.372 102.663 62.314 102.667 61.009 L 102.671 60.911 Z M 86.432 57.888 L 86.436 57.884 C 88.221 57.888 89.834 58.962 90.518 60.615 C 91.201 62.263 90.822 64.165 89.557 65.427 C 88.295 66.693 86.393 67.068 84.744 66.384 C 83.092 65.701 82.018 64.091 82.018 62.306 C 82.018 59.865 83.994 57.888 86.436 57.884 L 86.432 57.888 Z M 88.049 60.689 L 88.053 60.685 C 87.397 60.033 86.412 59.837 85.557 60.189 C 84.701 60.544 84.147 61.38 84.147 62.306 C 84.147 63.232 84.701 64.064 85.557 64.419 C 86.412 64.775 87.397 64.58 88.053 63.923 C 88.483 63.494 88.725 62.912 88.725 62.306 C 88.725 61.697 88.483 61.115 88.053 60.685 L 88.049 60.689 Z M 91.822 56.915 C 89.643 54.736 86.365 54.083 83.518 55.263 C 80.67 56.443 78.815 59.22 78.815 62.302 C 78.815 65.384 80.67 68.166 83.518 69.345 C 86.365 70.525 89.643 69.873 91.822 67.693 C 94.799 64.716 94.799 59.892 91.822 56.916 L 91.822 56.915 Z M 43.26 57.884 L 43.264 57.884 C 45.05 57.884 46.663 58.962 47.346 60.611 C 48.03 62.263 47.651 64.166 46.385 65.427 C 45.124 66.693 43.221 67.068 41.573 66.384 C 39.921 65.701 38.842 64.091 38.842 62.302 C 38.846 59.865 40.823 57.888 43.264 57.884 L 43.26 57.884 Z M 44.882 60.685 L 44.885 60.685 C 44.229 60.029 43.245 59.833 42.389 60.189 C 41.534 60.54 40.975 61.376 40.975 62.302 C 40.975 63.228 41.534 64.064 42.389 64.419 C 43.245 64.775 44.229 64.576 44.885 63.923 C 45.776 63.029 45.776 61.58 44.885 60.685 L 44.882 60.685 Z M 48.651 56.912 C 46.471 54.732 43.194 54.08 40.346 55.259 C 37.499 56.439 35.643 59.22 35.643 62.302 C 35.643 65.384 37.499 68.162 40.346 69.341 C 43.194 70.521 46.471 69.869 48.651 67.689 C 51.628 64.713 51.628 59.888 48.651 56.912 Z M 54.428 33.857 L 49.014 33.861 C 48.733 33.861 42.78 42.22 42.78 42.22 C 42.635 42.419 43.1 42.9 43.518 42.9 L 54.432 42.845 L 54.436 42.845 C 54.792 42.837 55.081 42.548 55.077 42.189 L 55.077 34.517 C 55.077 34.157 54.788 33.864 54.428 33.864 L 54.428 33.857 Z M 49.018 31.728 L 54.428 31.728 C 55.964 31.732 45.354 34.91 45.354 36.445 C 45.354 36.445 39.831 42.704 41.049 40.985 C 41.049 40.985 47.991 31.782 49.018 31.728 Z M 62.389 42.845 L 77.959 42.657 C 78.463 42.649 78.873 41.993 78.561 41.688 L 70.928 34.263 L 72.477 32.474 C 72.324 32.29 77.909 34.105 77.674 34.07 L 62.389 33.923 C 62.029 33.923 61.74 34.216 61.736 34.575 L 61.736 42.188 C 61.736 42.36 61.803 42.528 61.924 42.653 C 62.049 42.774 62.217 42.845 62.389 42.845 Z M 62.536 31.958 L 62.421 44.966 C 62.421 44.966 60.96 44.685 60.433 44.165 C 59.905 43.642 59.609 42.931 59.613 42.188 L 59.613 34.579 C 59.613 33.044 60.859 31.798 62.394 31.798 L 70.339 31.798 C 71.132 31.813 76.325 37.278 76.86 37.864 L 80.05 40.169 C 81.741 41.817 69.801 31.865 62.536 31.958 Z" style="fill: rgb(0, 21, 67);"/>
</svg>