<?xml version="1.0" encoding="utf-8"?>
<svg data-name="Layer 1" viewBox="0 0 100 125" x="0px" y="0px" xmlns="http://www.w3.org/2000/svg">
  <defs/>
  <path d="M 48.252 45.488 C 47.42 36.65 36.288 31.939 28.216 37.008 C 27.17 37.665 26.238 38.458 25.453 39.363 C 24.738 39.176 23.997 39.08 23.252 39.076 C 18.98 39.087 15.491 42.157 15.374 46.007 C 12.745 47.165 11.077 49.572 11.074 52.21 C 11.07 56.029 14.502 59.126 18.737 59.126 L 46.411 59.126 C 50.65 59.126 54.083 56.024 54.074 52.202 C 54.078 49.023 51.675 46.252 48.252 45.488 Z" style="filter: none; opacity: 0.23; fill: rgb(0, 51, 103);"/>
  <path d="M 39.66 40.792 C 38.828 31.954 27.696 27.243 19.624 32.312 C 18.578 32.969 17.646 33.762 16.861 34.667 C 16.146 34.48 15.405 34.384 14.66 34.38 C 10.388 34.391 6.899 37.461 6.782 41.311 C 4.153 42.469 2.485 44.876 2.482 47.514 C 2.478 51.333 5.91 54.43 10.145 54.43 L 37.819 54.43 C 42.058 54.43 45.491 51.328 45.482 47.506 C 45.486 44.327 43.083 41.556 39.66 40.792 Z" style="filter: none; fill: rgb(147, 175, 203);"/>
</svg>