<?xml version="1.0" encoding="utf-8"?>
<svg data-name="Layer 1" viewBox="0 0 100 125" x="0px" y="0px" xmlns="http://www.w3.org/2000/svg">
  <defs/>
  <path d="M 48.252 45.488 C 47.42 36.65 36.288 31.939 28.216 37.008 C 27.17 37.665 26.238 38.458 25.453 39.363 C 24.738 39.176 23.997 39.08 23.252 39.076 C 18.98 39.087 15.491 42.157 15.374 46.007 C 12.745 47.165 11.077 49.572 11.074 52.21 C 11.07 56.029 14.502 59.126 18.737 59.126 L 46.411 59.126 C 50.65 59.126 54.083 56.024 54.074 52.202 C 54.078 49.023 51.675 46.252 48.252 45.488 Z" style="filter: none; opacity: 0.23; fill: rgb(0, 51, 103);"/>
  <path d="M 39.66 40.792 C 38.828 31.954 27.696 27.243 19.624 32.312 C 18.578 32.969 17.646 33.762 16.861 34.667 C 16.146 34.48 15.405 34.384 14.66 34.38 C 10.388 34.391 6.899 37.461 6.782 41.311 C 4.153 42.469 2.485 44.876 2.482 47.514 C 2.478 51.333 5.91 54.43 10.145 54.43 L 37.819 54.43 C 42.058 54.43 45.491 51.328 45.482 47.506 C 45.486 44.327 43.083 41.556 39.66 40.792 Z" style="filter: none; fill: rgb(147, 175, 203); stroke: rgb(147, 175, 203);"/>
  <path d="M 91.466 66.262 C 90.634 57.424 79.502 52.713 71.43 57.782 C 70.384 58.439 69.452 59.232 68.667 60.137 C 67.952 59.95 67.211 59.854 66.466 59.85 C 62.194 59.861 58.705 62.931 58.588 66.781 C 55.959 67.939 54.291 70.346 54.288 72.984 C 54.284 76.803 57.716 79.9 61.951 79.9 L 89.625 79.9 C 93.864 79.9 97.297 76.798 97.288 72.976 C 97.292 69.797 94.889 67.026 91.466 66.262 Z" style="filter: none; opacity: 0.23; fill: rgb(0, 51, 103);"/>
  <path d="M 83.178 61.562 C 82.345 52.725 71.213 48.012 63.141 53.082 C 62.094 53.737 61.164 54.531 60.379 55.436 C 59.663 55.25 58.923 55.153 58.178 55.15 C 53.905 55.16 50.417 58.231 50.3 62.081 C 47.67 63.238 46.002 65.645 46 68.284 C 45.994 72.102 49.428 75.2 53.663 75.2 L 81.337 75.2 C 85.575 75.2 89.01 72.098 89 68.276 C 89.004 65.096 86.601 62.325 83.178 61.562 Z" style="filter: none; fill: rgb(147, 175, 203);"/>
</svg>