<?xml version="1.0" encoding="utf-8"?>
<svg version="1.1" x="0px" y="0px" viewBox="0 0 100 125" style="enable-background:new 0 0 100 100;" xmlns="http://www.w3.org/2000/svg">
  <defs/>
  <polygon style="stroke: rgba(0, 0, 0, 0); fill: rgba(44, 91, 140, 0.706);" points="1.017 81.598 11.394 90.113 39.115 51.28 86.979 68.075 93.874 57.152 35.154 37.678"/>
  <polygon style="fill: rgba(44, 91, 140, 0.357); stroke: rgba(0, 0, 0, 0); transform-box: fill-box; transform-origin: 50% 50%;" points="49.916 53.028 10.715 84.425 50.128 111.393 85.425 82.005" transform="matrix(-0.965926, 0.258819, -0.258819, -0.965926, 2.129739, 0.23358)"/>
  <path d="M88.7,59.1L74,53.6v-4.8c5.7-1,10-5.9,10-11.8s-4.3-10.9-10-11.8V7c0-1.1-0.9-2-2-2H24c-1.1,0-2,0.9-2,2v84H12  c-1.1,0-2,0.9-2,2s0.9,2,2,2h24c1.1,0,2-0.9,2-2s-0.9-2-2-2H26V27.8L44.8,9H70v16.2c-5.7,1-10,5.9-10,11.8s4.3,10.9,10,11.8v4.8  l-14.7,5.5c-1,0.4-1.6,1.5-1.2,2.6c0.3,0.8,1.1,1.3,1.9,1.3c0.2,0,0.5,0,0.7-0.1l13.3-5v16.4l-9.5,11.4c-0.7,0.8-0.6,2.1,0.3,2.8  c0.4,0.3,0.8,0.5,1.3,0.5c0.6,0,1.1-0.2,1.5-0.7L72,78.1l8.5,10.2c0.4,0.5,1,0.7,1.5,0.7c0.5,0,0.9-0.2,1.3-0.5c0.8-0.7,1-2,0.3-2.8  L74,74.3V57.9l13.3,5C87.5,63,87.8,63,88,63c0.8,0,1.6-0.5,1.9-1.3C90.3,60.7,89.7,59.5,88.7,59.1z M26,22.2V9h13.2L26,22.2z M64,37  c0-4.4,3.6-8,8-8s8,3.6,8,8s-3.6,8-8,8S64,41.4,64,37z" style="fill: rgb(144, 173, 202);"/>
  <text x="0" y="115" fill="#000000" font-size="5px" font-weight="bold" font-family="'Helvetica Neue', Helvetica, Arial-Unicode, Arial, Sans-serif" style="white-space: pre;"> </text>
  <text x="0" y="120" fill="#000000" font-size="5px" font-weight="bold" font-family="'Helvetica Neue', Helvetica, Arial-Unicode, Arial, Sans-serif" style="white-space: pre;"> </text>
  <text style="white-space: pre; fill: rgb(51, 51, 51); font-family: Arial, sans-serif; font-size: 28px;" x="9.319" y="111.106"> </text>
  <text style="white-space: pre; fill: rgb(51, 51, 51); font-family: Arial, sans-serif; font-size: 28px;" x="-26.027" y="48.809"> </text>
  <path d="M 91.467 59.1 L 76.767 53.6 L 76.767 48.8 C 82.467 47.8 86.767 42.9 86.767 37 C 86.767 31.1 82.467 26.1 76.767 25.2 L 76.767 7 C 76.767 5.9 75.867 5 74.767 5 L 26.767 5 C 25.667 5 24.767 5.9 24.767 7 L 24.767 91 L 14.767 91 C 13.667 91 12.767 91.9 12.767 93 C 12.767 94.1 13.667 95 14.767 95 L 38.767 95 C 39.867 95 40.767 94.1 40.767 93 C 40.767 91.9 39.867 91 38.767 91 L 28.767 91 L 28.767 27.8 L 47.567 9 L 72.767 9 L 72.767 25.2 C 67.067 26.2 62.767 31.1 62.767 37 C 62.767 42.9 67.067 47.9 72.767 48.8 L 72.767 53.6 L 58.067 59.1 C 57.067 59.5 56.467 60.6 56.867 61.7 C 57.167 62.5 57.967 63 58.767 63 C 58.967 63 59.267 63 59.467 62.9 L 72.767 57.9 L 72.767 74.3 L 63.267 85.7 C 62.567 86.5 62.667 87.8 63.567 88.5 C 63.967 88.8 64.367 89 64.867 89 C 65.467 89 65.967 88.8 66.367 88.3 L 74.767 78.1 L 83.267 88.3 C 83.667 88.8 84.267 89 84.767 89 C 85.267 89 85.667 88.8 86.067 88.5 C 86.867 87.8 87.067 86.5 86.367 85.7 L 76.767 74.3 L 76.767 57.9 L 90.067 62.9 C 90.267 63 90.567 63 90.767 63 C 91.567 63 92.367 62.5 92.667 61.7 C 93.067 60.7 92.467 59.5 91.467 59.1 Z M 28.767 22.2 L 28.767 9 L 41.967 9 L 28.767 22.2 Z M 66.767 37 C 66.767 32.6 70.367 29 74.767 29 C 79.167 29 82.767 32.6 82.767 37 C 82.767 41.4 79.167 45 74.767 45 C 70.367 45 66.767 41.4 66.767 37 Z" style="fill: rgb(165, 73, 184);"/>
</svg>