<?xml version="1.0" encoding="utf-8"?>
<svg viewBox="0 0 500 500" xmlns="http://www.w3.org/2000/svg">
  <defs/>
  <path d="M 207.692 257.855 C 207.633 257.855 207.516 257.855 207.457 257.797 C 207.047 257.68 206.813 257.387 206.813 256.977 L 203.766 234.188 L 201.246 234.188 C 193.922 234.188 190.058 227.859 188.887 222.004 L 180.626 182.109 C 180.04 179.413 180.86 176.659 182.735 174.316 C 185.137 171.327 189.18 169.452 193.044 169.452 L 267.794 169.452 C 271.779 169.452 275.704 171.327 278.22 174.316 C 280.095 176.659 280.857 179.355 280.271 182.05 L 272.126 222.003 C 270.603 229.562 265.798 234.187 259.649 234.187 L 228.602 234.187 L 208.45 257.445 C 208.275 257.797 208.04 257.855 207.689 257.855 L 207.692 257.855 Z M 193.047 171.445 C 189.824 171.445 186.308 173.086 184.258 175.606 C 183.203 176.895 181.972 179.121 182.558 181.817 L 190.762 221.77 C 191.816 226.867 195.097 232.372 201.246 232.372 L 204.703 232.372 C 205.171 232.372 205.582 232.723 205.64 233.192 L 208.511 254.692 L 227.55 232.723 C 227.726 232.488 228.019 232.371 228.253 232.371 L 259.769 232.371 C 267.504 232.371 269.785 224.285 270.253 221.769 L 278.398 181.816 C 278.984 179.121 277.812 177.012 276.757 175.723 C 274.706 173.144 271.249 171.562 267.91 171.562 L 193.043 171.562 L 193.043 171.445 L 193.047 171.445 Z" fill-rule="evenodd"/>
  <path d="M 259.595 228.332 L 251.802 228.332 C 251.216 228.332 250.806 227.922 250.806 227.336 C 250.806 226.809 251.216 226.399 251.802 226.399 L 259.595 226.399 C 262.759 226.399 263.989 221.887 264.224 220.422 L 265.396 215.09 C 265.454 214.563 266.04 214.153 266.509 214.329 C 266.978 214.446 267.388 214.973 267.271 215.5 L 266.099 220.832 C 265.864 222.649 264.341 228.332 259.595 228.332 Z M 188.068 185.039 C 187.599 185.039 187.189 184.746 187.13 184.219 L 186.486 180.996 C 186.31 180.118 186.544 179.121 187.189 178.243 C 188.478 176.602 191.29 175.547 192.99 175.547 L 196.329 175.547 C 196.857 175.547 197.267 175.957 197.267 176.485 C 197.267 177.071 196.857 177.481 196.329 177.481 L 192.99 177.481 C 191.759 177.481 189.65 178.36 188.771 179.414 C 188.244 180 188.361 180.411 188.419 180.586 L 189.064 183.926 C 189.181 184.453 188.829 184.981 188.361 185.039 L 188.068 185.039 Z M 272.955 184.102 L 272.779 184.102 C 272.31 183.985 271.9 183.399 272.076 182.93 L 272.545 180.645 C 272.545 180.469 272.603 180.118 272.134 179.532 C 271.256 178.36 269.146 177.539 267.916 177.539 L 262.759 177.539 C 262.232 177.539 261.822 177.188 261.822 176.602 C 261.822 176.016 262.232 175.606 262.759 175.606 L 267.916 175.606 C 269.615 175.606 272.31 176.66 273.658 178.301 C 274.42 179.18 274.654 180.117 274.478 181.055 L 274.009 183.34 C 273.775 183.75 273.365 184.102 272.955 184.102 Z" fill-rule="evenodd"/>
  <path d="M 228.196 234.246 L 215.016 234.246 C 214.43 234.246 214.02 233.836 214.02 233.309 C 214.02 232.723 214.43 232.313 215.016 232.313 L 228.137 232.313 C 228.664 232.313 229.074 232.723 229.074 233.309 C 229.074 233.836 228.664 234.246 228.195 234.246 L 228.196 234.246 Z" fill-rule="evenodd"/>
  <path d="M 230.423 223.117 C 217.771 223.117 207.458 212.867 207.458 200.211 C 207.458 187.5 219.993 177.246 230.423 177.246 C 240.79 177.246 253.329 187.496 253.329 200.211 C 253.329 212.863 243.079 223.117 230.423 223.117 Z M 230.423 179.297 C 220.931 179.297 209.392 188.965 209.392 200.27 C 209.392 211.809 218.825 221.243 230.423 221.243 C 241.962 221.243 251.396 211.81 251.396 200.27 C 251.396 188.965 239.857 179.297 230.423 179.297 Z" fill-rule="evenodd"/>
  <path d="M 242.841 192.304 C 242.489 192.304 242.196 192.129 242.02 191.777 C 241.317 190.488 239.97 189.668 238.505 189.668 C 236.981 189.668 235.692 190.488 234.931 191.777 C 234.696 192.304 234.052 192.48 233.642 192.187 C 233.173 191.953 232.997 191.308 233.231 190.898 C 234.286 188.965 236.337 187.793 238.505 187.793 C 240.731 187.793 242.665 188.965 243.72 190.898 C 243.954 191.426 243.837 191.953 243.309 192.187 C 243.192 192.304 243.016 192.304 242.841 192.304 Z" fill-rule="evenodd"/>
  <path d="M 226.79 192.304 C 226.497 192.304 226.145 192.129 226.028 191.777 C 225.266 190.488 223.86 189.668 222.395 189.668 C 220.93 189.668 219.583 190.488 218.821 191.777 C 218.587 192.304 217.942 192.48 217.532 192.187 C 217.063 191.953 216.887 191.308 217.122 190.898 C 218.177 188.965 220.169 187.793 222.337 187.793 C 224.563 187.793 226.555 189.023 227.61 190.898 C 227.903 191.426 227.727 191.953 227.2 192.187 C 227.141 192.304 226.965 192.304 226.79 192.304 Z" fill-rule="evenodd"/>
  <path d="M 230.423 212.691 C 223.86 212.691 218.415 207.594 218.005 200.976 C 218.005 200.742 218.122 200.449 218.298 200.273 C 218.415 200.098 218.708 199.922 219.001 199.922 L 241.79 199.922 C 242.024 199.922 242.259 200.039 242.493 200.273 C 242.669 200.449 242.786 200.742 242.786 200.976 C 242.434 207.48 236.985 212.691 230.427 212.691 L 230.423 212.691 Z M 220.173 201.914 C 220.935 206.954 225.27 210.704 230.423 210.704 C 235.579 210.704 239.915 206.836 240.732 201.914 L 220.17 201.914 L 220.173 201.914 Z" fill-rule="evenodd"/>
  <path d="M 222.981 209.937 C 222.746 209.937 222.395 209.879 222.278 209.644 C 221.926 209.234 221.926 208.59 222.336 208.238 C 224.563 206.363 227.375 205.309 230.305 205.309 C 233.235 205.309 236.106 206.363 238.274 208.238 C 238.684 208.59 238.801 209.234 238.391 209.644 C 238.039 210.055 237.395 210.113 236.985 209.703 C 235.11 208.062 232.766 207.242 230.247 207.242 C 227.727 207.242 225.325 208.18 223.508 209.703 C 223.508 209.879 223.215 209.937 222.981 209.937 Z" fill-rule="evenodd"/>
</svg>