<?xml version="1.0" encoding="utf-8"?>
<svg viewBox="0 0 64 80" x="0px" y="0px" xmlns="http://www.w3.org/2000/svg">
  <defs/>
  <title>a</title>
  <path style="fill: rgba(44, 91, 140, 0.357); stroke: rgba(44, 91, 140, 0);" d="M 12.387 50.576 L 52.587 50.676 L 62.587 67.576 L 2.387 67.276 L 12.387 50.576 Z"/>
  <polygon style="fill: rgba(216, 216, 216, 0); stroke: rgb(44, 91, 140);" points="22 57.6 18 63.70000076293945 46 63.70000076293945 42 57.599998474121094"/>
  <polygon style="fill: rgba(216, 216, 216, 0); stroke: rgb(44, 91, 140);" points="13.413 50.012 24.413 50.012 20.413 56.112 9.413 56.112"/>
  <polygon style="transform-box: fill-box; transform-origin: 50% 50%; fill: rgba(216, 216, 216, 0); stroke: rgb(44, 91, 140);" points="43.421 56.1 54.421 56.1 50.421 50 39.421 50" transform="matrix(-1, 0, 0, -1, -0.000002, 0)"/>
  <path style="stroke: rgb(44, 91, 140); fill: rgba(144, 173, 202, 0);" d="M 12 48.3 L 52.2 48.4 L 62.2 65.3 L 2 65 L 12 48.3 Z"/>
  <g data-name="14 Testimonial Meter">
    <path d="M 52 25 C 58.928 24.993 63.25 17.488 59.78 11.492 C 59.122 10.355 58.223 9.376 57.146 8.623 C 55.641 7.561 53.842 6.994 52 7 C 47.032 7.006 43.006 11.032 43 16 C 43 16.046 41.079 15.039 40.055 14.611 C 40.048 14.611 40.044 14.602 40.037 14.599 C 40.03 14.596 40.019 14.599 40.011 14.594 C 34.882 12.469 29.118 12.469 23.989 14.594 C 23.981 14.594 23.972 14.594 23.963 14.599 C 23.954 14.604 23.952 14.608 23.945 14.611 C 22.921 15.039 21.933 15.549 20.99 16.136 C 20.99 16.09 21 16.046 21 16 C 20.993 9.072 13.488 4.75 7.492 8.22 C 6.355 8.878 5.376 9.777 4.623 10.854 C 3.561 12.359 2.994 14.158 3 16 C 2.973 21.407 7.708 25.605 13.073 24.93 C 12.916 25.258 12.766 25.588 12.626 25.922 C 12.619 25.938 12.605 25.948 12.599 25.963 C 12.593 25.978 12.599 25.998 12.589 26.015 C 8.322 36.336 12.902 48.189 23 52.959 L 23 55 C 23 56.105 23.895 57 25 57 L 39 57 C 40.105 57 41 56.105 41 55 L 41 52.959 C 51.097 48.189 55.677 36.337 51.412 26.017 C 51.406 26 51.412 25.981 51.401 25.963 C 51.39 25.945 51.38 25.937 51.373 25.921 C 51.233 25.586 51.084 25.256 50.926 24.928 C 51.282 24.974 51.641 24.998 52 25 Z M 14.67 22.476 C 13.824 22.826 18.999 14.978 19 16 C 19.002 16.672 15.138 22.278 14.67 22.476 Z M 39 55 L 25 55 L 39 55 Z M 41 50.734 L 41 49 C 41 47.895 40.105 47 39 47 L 25 47 C 23.895 47 23 47.895 23 49 L 23 50.734 C 14.748 46.291 10.964 36.499 14.085 27.662 L 15.911 28.418 C 16.622 28.713 17.386 28.127 17.286 27.364 C 17.239 27.009 17.007 26.707 16.677 26.57 L 14.863 25.819 C 15.13 25.264 15.415 24.719 15.737 24.188 C 15.872 24.125 15.998 24.053 16.128 23.988 C 16.214 23.944 16.302 23.902 16.386 23.855 C 16.648 23.708 16.901 23.555 17.14 23.385 C 17.518 23.12 17.876 22.827 18.209 22.507 C 18.231 22.486 18.254 22.468 18.276 22.447 C 18.404 22.323 18.524 22.192 18.643 22.061 L 19.273 22.69 C 19.827 23.225 20.752 22.96 20.938 22.213 C 21.021 21.878 20.927 21.524 20.687 21.276 L 19.833 20.422 C 19.864 20.369 19.893 20.314 19.922 20.26 C 19.951 20.206 19.973 20.168 19.997 20.121 C 20.189 19.746 20.355 19.357 20.491 18.958 C 20.502 18.925 20.521 18.894 20.532 18.858 C 21.557 18.082 22.658 17.411 23.819 16.858 L 24.57 18.673 C 24.865 19.384 25.819 19.51 26.288 18.899 C 26.505 18.615 26.555 18.237 26.418 17.907 L 25.663 16.084 C 27.382 15.48 29.18 15.128 31 15.04 L 31 17 C 31 17.77 31.833 18.251 32.5 17.866 C 32.809 17.687 33 17.357 33 17 L 33 15.04 C 34.82 15.129 36.618 15.482 38.337 16.088 L 37.582 17.911 C 37.287 18.622 37.873 19.386 38.636 19.286 C 38.991 19.239 39.293 19.007 39.43 18.677 L 40.181 16.862 C 41.341 17.416 42.442 18.086 43.467 18.862 C 43.479 18.897 43.497 18.929 43.509 18.962 C 43.629 19.316 43.772 19.661 43.937 19.996 C 43.96 20.044 43.987 20.089 44.012 20.137 C 44.062 20.237 44.112 20.337 44.167 20.428 L 43.315 21.275 C 42.76 21.808 42.99 22.743 43.73 22.957 C 44.085 23.059 44.467 22.958 44.725 22.693 L 45.356 22.066 L 45.407 22.122 C 45.507 22.23 45.619 22.322 45.723 22.422 C 45.915 22.61 46.105 22.799 46.312 22.969 C 46.446 23.079 46.592 23.169 46.732 23.269 C 46.925 23.409 47.116 23.551 47.32 23.675 C 47.475 23.769 47.639 23.848 47.8 23.932 C 47.961 24.016 48.1 24.109 48.266 24.182 C 48.587 24.712 48.871 25.26 49.137 25.816 L 47.323 26.567 C 46.612 26.862 46.486 27.816 47.097 28.285 C 47.381 28.502 47.759 28.552 48.089 28.415 L 49.914 27.659 C 53.038 36.496 49.254 46.292 41 50.734 Z" style="fill: rgb(144, 173, 202); stroke: rgb(144, 173, 202); stroke-width: 2px;"/>
    <path d="M 41.167 26.013 L 38.377 26.473 C 38.116 26.515 37.883 26.659 37.728 26.873 L 31.093 36.118 C 28.101 36.814 26.983 40.488 29.082 42.732 C 29.995 43.707 31.335 44.162 32.653 43.942 C 34.72 43.593 36.165 41.706 35.964 39.62 C 35.964 39.62 42.817 29.889 42.774 29.627 L 42.314 26.837 C 42.224 26.293 41.711 25.925 41.167 26.013 Z M 33.997 39.662 C 33.997 39.662 30.974 38.136 31.68 38.02 C 31.717 38.02 31.755 38.018 31.792 38.014 C 31.892 38.004 31.992 38.002 32.092 38.007 C 32.152 38.007 32.212 38.015 32.272 38.023 C 32.332 38.031 32.381 38.039 32.435 38.05 C 32.489 38.061 32.555 38.079 32.613 38.097 C 32.671 38.115 32.713 38.133 32.767 38.154 C 32.821 38.175 32.875 38.2 32.927 38.227 C 32.979 38.254 33.17 38.374 33.214 38.407 C 33.258 38.44 33.314 38.489 33.359 38.533 C 33.404 38.577 33.433 38.599 33.467 38.633 C 33.514 38.686 33.559 38.741 33.6 38.798 C 33.627 38.834 33.657 38.868 33.682 38.906 C 33.724 38.974 33.762 39.045 33.796 39.117 C 33.812 39.151 33.833 39.183 33.848 39.217 C 33.895 39.329 33.932 39.444 33.959 39.562 C 33.97 39.596 33.982 39.629 33.997 39.662 Z M 33.825 36.441 C 33.756 36.405 34.858 37.211 34.81 37.155 C 34.693 37.039 34.569 36.931 34.438 36.831 C 34.39 36.793 34.338 36.755 34.292 36.719 C 34.143 36.616 33.987 36.523 33.825 36.441 Z" style="fill: rgb(144, 173, 202); stroke: rgb(144, 173, 202); stroke-width: 2px;"/>
    <path d="M34,51H30a1,1,0,0,0,0,2h4a1,1,0,0,0,0-2Z" style="fill: rgb(144, 173, 202); stroke: rgb(144, 173, 202); stroke-width: 2px;"/>
  </g>
  <text x="0" y="79" fill="#000000" font-size="5px" font-weight="bold" font-family="'Helvetica Neue', Helvetica, Arial-Unicode, Arial, Sans-serif" style="white-space: pre;"> </text>
  <text x="0" y="84" fill="#000000" font-size="5px" font-weight="bold" font-family="'Helvetica Neue', Helvetica, Arial-Unicode, Arial, Sans-serif" style="white-space: pre;"> </text>
  <g data-name="14 Testimonial Meter" transform="matrix(1, 0, 0, 1, -0.064311, -0.162952)">
    <path d="M15.39,19.662A1,1,0,0,0,15.3,18.25a5.116,5.116,0,0,0-6.606,0,1,1,0,1,0,1.322,1.5,3.066,3.066,0,0,1,3.961,0A1,1,0,0,0,15.39,19.662Z" style="stroke-width: 0.7px; fill: rgba(0, 0, 0, 0); stroke: rgb(165, 73, 184);"/>
    <path d="M52,25A9,9,0,0,0,57.146,8.623,8.871,8.871,0,0,0,52,7a9.011,9.011,0,0,0-9,9c0,.046.009.09.01.136a20.759,20.759,0,0,0-2.955-1.525c-.007,0-.011-.009-.018-.012s-.018,0-.026-.005a20.928,20.928,0,0,0-16.022,0c-.008,0-.017,0-.026.005s-.011.009-.018.012a20.759,20.759,0,0,0-2.955,1.525c0-.046.01-.09.01-.136A9,9,0,0,0,4.623,10.854,8.874,8.874,0,0,0,3,16a8.955,8.955,0,0,0,10.073,8.93c-.157.328-.307.658-.447.992-.007.016-.021.026-.027.041s0,.035-.01.052A20.948,20.948,0,0,0,23,52.959V55a2,2,0,0,0,2,2H39a2,2,0,0,0,2-2V52.959A20.949,20.949,0,0,0,51.412,26.017c-.006-.017,0-.036-.011-.054s-.021-.026-.028-.042c-.14-.335-.289-.665-.447-.993A8.94,8.94,0,0,0,52,25ZM52,9a6.894,6.894,0,0,1,4,1.261,6.993,6.993,0,0,1-6.673,12.2,6.906,6.906,0,0,1-3.071-2.472A7.03,7.03,0,0,1,45,16,7.008,7.008,0,0,1,52,9ZM5,16a6.894,6.894,0,0,1,1.261-4A7,7,0,0,1,19,16a6.735,6.735,0,0,1-.291,1.983A6.928,6.928,0,0,1,16,21.742a7.276,7.276,0,0,1-1.33.734A6.9,6.9,0,0,1,12,23,7.008,7.008,0,0,1,5,16ZM39,55H25V49l14,0v6Zm2-4.266V49a2,2,0,0,0-2-2H25a2,2,0,0,0-2,2v1.734a19.013,19.013,0,0,1-8.915-23.072l1.826.756a1,1,0,1,0,.766-1.848l-1.814-.751c.267-.555.552-1.1.874-1.631.135-.063.261-.135.391-.2.086-.044.174-.086.258-.133.262-.147.515-.3.754-.47a9.042,9.042,0,0,0,1.069-.878c.022-.021.045-.039.067-.06.128-.124.248-.255.367-.386l.63.629a1,1,0,0,0,1.414-1.414l-.854-.854c.031-.053.06-.108.089-.162s.051-.092.075-.139a8.747,8.747,0,0,0,.494-1.163c.011-.033.03-.064.041-.1a18.956,18.956,0,0,1,3.287-2l.751,1.815a1,1,0,0,0,1.848-.766l-.755-1.823A18.836,18.836,0,0,1,31,15.04V17a1,1,0,0,0,2,0V15.04a18.836,18.836,0,0,1,5.337,1.048l-.755,1.823a1,1,0,0,0,1.848.766l.751-1.815a19,19,0,0,1,3.286,2c.012.035.03.067.042.1a8.489,8.489,0,0,0,.428,1.034c.023.048.05.093.075.141.05.1.1.2.155.291l-.852.847a1,1,0,1,0,1.41,1.418l.631-.627.051.056c.1.108.212.2.316.3.192.188.382.377.589.547.134.11.28.2.42.3.193.14.384.282.588.406.155.094.319.173.48.257s.3.177.466.25c.321.53.605,1.078.871,1.634l-1.814.751a1,1,0,1,0,.766,1.848l1.825-.756A19.009,19.009,0,0,1,41,50.734Z" style="stroke-width: 0.7px; fill: rgba(0, 0, 0, 0); stroke: rgb(165, 73, 184);"/>
    <circle cx="9" cy="14" r="1.005" style="stroke-width: 0.7px; fill: rgba(0, 0, 0, 0); stroke: rgb(165, 73, 184);"/>
    <circle cx="15" cy="14" r="1.005" style="stroke-width: 0.7px; fill: rgba(0, 0, 0, 0); stroke: rgb(165, 73, 184);"/>
    <path d="M48.607,18.339A1,1,0,0,0,48.7,19.75a4.989,4.989,0,0,0,6.606,0,1,1,0,0,0-1.323-1.5,3.067,3.067,0,0,1-3.961,0A1,1,0,0,0,48.607,18.339Z" style="stroke-width: 0.7px; fill: rgba(0, 0, 0, 0); stroke: rgb(165, 73, 184);"/>
    <circle cx="49" cy="14" r="1.005" style="stroke-width: 0.7px; fill: rgba(0, 0, 0, 0); stroke: rgb(165, 73, 184);"/>
    <circle cx="55" cy="14" r="1.005" style="stroke-width: 0.7px; fill: rgba(0, 0, 0, 0); stroke: rgb(165, 73, 184);"/>
    <path d="M41.167,26.013l-2.79.46a1,1,0,0,0-.649.4l-6.635,9.245a3.991,3.991,0,0,0,1.56,7.824h0a3.994,3.994,0,0,0,3.311-4.322L42.6,30.373a1,1,0,0,0,.174-.746l-.46-2.79A1,1,0,0,0,41.167,26.013ZM32.328,41.974a2,2,0,1,1-.648-3.954,1.065,1.065,0,0,0,.112-.006,1.941,1.941,0,0,1,.3-.007c.06,0,.12.008.18.016s.109.016.163.027.12.029.178.047.1.036.154.057.108.046.16.073.1.057.151.089.092.058.136.091.1.082.145.126.074.066.108.1a1.919,1.919,0,0,1,.133.165c.027.036.057.07.082.108a2.248,2.248,0,0,1,.114.211c.016.034.037.066.052.1a2.074,2.074,0,0,1,.111.345.858.858,0,0,0,.038.1l-.019.006A2.006,2.006,0,0,1,32.328,41.974Zm2.746-4.54c-.036-.044-.078-.081-.116-.123s-.1-.1-.148-.156a3.82,3.82,0,0,0-.372-.324c-.048-.038-.1-.076-.146-.112a4.135,4.135,0,0,0-.467-.278c-.069-.036-.14-.067-.212-.1-.055-.024-.107-.054-.163-.075l5.661-7.889,1.4-.23.23,1.395Z" style="stroke-width: 0.7px; fill: rgba(0, 0, 0, 0); stroke: rgb(165, 73, 184);"/>
    <path d="M34,51H30a1,1,0,0,0,0,2h4a1,1,0,0,0,0-2Z" style="stroke-width: 0.7px; fill: rgba(0, 0, 0, 0); stroke: rgb(165, 73, 184);"/>
  </g>
  <polygon style="fill: rgba(144, 173, 202, 0); stroke: rgb(44, 91, 140);" points="8.76 57.583 19.76 57.583 15.76 63.683 4.76 63.683"/>
  <polygon style="fill: rgba(216, 216, 216, 0); transform-origin: 51.771px 60.726px; stroke: rgb(44, 91, 140);" points="48.271 63.776 59.271 63.776 55.271 57.676 44.271 57.676" transform="matrix(-1, 0, 0, -1, 0.000003, -0.000004)"/>
</svg>