<?xml version="1.0" encoding="utf-8"?>
<svg viewBox="0 0 500 500" xmlns="http://www.w3.org/2000/svg">
  <defs/>
  <path style="stroke: rgb(0, 0, 0); transform-origin: 293.265px 193.315px;" d="M 374.595 164.73 C 374.595 185.767 377.687 184.56 362.413 184.747 C 358.887 184.795 355.353 184.537 351.844 184.95 C 341.064 186.21 330.31 188.035 319.556 189.75 C 296.072 193.495 272.93 199.102 249.806 206.068 C 238.192 209.572 231.518 211.803 220.547 216.118 C 216.399 217.762 211.132 226.624 208.282 221.974 C 207.8 221.182 215.868 213.052 216.844 212.152 C 225.702 204.033 235.679 195.478 245.754 191.095 C 287.684 172.843 334.242 163.308 378.261 163.308" transform="matrix(0.987688, 0.156435, -0.156435, 0.987688, 0, 0.000002)"/>
</svg>