<?xml version="1.0" encoding="utf-8"?>
<svg width="24" height="24" viewBox="6.406 5.904 12.163 12.204" xmlns="http://www.w3.org/2000/svg">
  <defs/>
  <path d="M 16 6 L 9 6 C 7.62 6 6.5 7.12 6.5 8.5 L 6.5 15.5 C 6.5 16.881 7.62 18 9 18 L 16 18 C 17.381 18 18.5 16.881 18.5 15.5 L 18.5 8.5 C 18.5 7.12 17.381 6 16 6 Z M 10.5 15.5 L 9 15.5 L 9 10 L 10.5 10 L 10.5 15.5 Z M 9.75 9.366 C 9.267 9.366 8.875 8.971 8.875 8.484 C 8.875 7.997 9.267 7.602 9.75 7.602 C 10.233 7.602 10.625 7.997 10.625 8.484 C 10.625 8.971 10.234 9.366 9.75 9.366 Z M 16.5 15.5 L 15 15.5 L 15 12.698 C 15 11.014 13 11.142 13 12.698 L 13 15.5 L 11.5 15.5 L 11.5 10 L 13 10 L 13 10.883 C 13.698 9.59 16.5 9.494 16.5 12.121 L 16.5 15.5 Z"/>
</svg>