<?xml version="1.0" encoding="utf-8"?>
<svg version="1.1" x="0px" y="0px" viewBox="0 0 100 125" style="enable-background:new 0 0 100 100;" xmlns="http://www.w3.org/2000/svg">
  <defs/>
  <style type="text/css">
	.st0{display:none;}
	
		.st1{display:inline;fill:none;stroke:#000000;stroke-width:1.4173;stroke-linecap:square;stroke-linejoin:round;stroke-miterlimit:10;}
	.st2{display:inline;fill:none;stroke:#000000;stroke-width:1.4173;stroke-linecap:square;stroke-miterlimit:10;}
	.st3{fill:none;stroke:#000000;stroke-width:1.4173;stroke-linecap:square;stroke-linejoin:round;stroke-miterlimit:10;}
</style>
  <g class="st0">
    <polygon class="st1" points="40.6,81.4 40.7,81.4 40.9,81.4 41,81.4 41.1,81.4 41.3,81.4 41.4,81.3 41.5,81.3 41.7,81.3 41.8,81.3    41.9,81.3 42.1,81.2 42.2,81.2 42.3,81.2 42.5,81.1 42.6,81.1 42.7,81 42.8,81 43,80.9 43.1,80.9 43.2,80.9 43.4,80.8 43.5,80.7    43.6,80.7 43.7,80.6 43.8,80.5 43.9,80.5 44.1,80.4 44.2,80.3 44.3,80.3 44.4,80.2 44.5,80.1 44.6,80 44.7,79.9 44.8,79.9    44.9,79.8 45,79.7 45.1,79.6 45.2,79.5 45.3,79.4 45.4,79.3 45.5,79.2 45.6,79.1 45.7,79 45.8,78.9 45.9,78.8 45.9,78.7 46,78.6    46.1,78.5 46.2,78.3 46.3,78.2 46.3,78.1 46.4,78 46.4,77.9 46.5,77.8 46.6,77.6 46.6,77.5 46.7,77.4 46.7,77.3 46.8,77.1 46.8,77    46.9,76.9 46.9,76.7 47,76.6 47,76.5 47,76.4 47.1,76.2 47.1,76.1 47.1,76 47.1,75.8 47.2,75.7 47.2,75.6 47.2,75.4 47.2,75.3    47.2,75.2 47.2,75 47.2,74.9 47.2,74.7 47.2,25.3 47.2,25.1 47.2,25 47.2,24.8 47.2,24.7 47.2,24.6 47.2,24.4 47.2,24.3 47.1,24.2    47.1,24 47.1,23.9 47.1,23.8 47,23.6 47,23.5 47,23.4 46.9,23.3 46.9,23.1 46.8,23 46.8,22.9 46.7,22.7 46.7,22.6 46.6,22.5    46.6,22.4 46.5,22.2 46.4,22.1 46.4,22 46.3,21.9 46.3,21.8 46.2,21.7 46.1,21.5 46,21.4 45.9,21.3 45.9,21.2 45.8,21.1 45.7,21    45.6,20.9 45.5,20.8 45.4,20.7 45.3,20.6 45.2,20.5 45.1,20.4 45,20.3 44.9,20.2 44.8,20.1 44.7,20.1 44.6,20 44.5,19.9 44.4,19.8    44.3,19.7 44.2,19.7 44.1,19.6 43.9,19.5 43.8,19.5 43.7,19.4 43.6,19.3 43.5,19.3 43.4,19.2 43.2,19.1 43.1,19.1 43,19.1 42.8,19    42.7,19 42.6,18.9 42.5,18.9 42.3,18.8 42.2,18.8 42.1,18.8 41.9,18.7 41.8,18.7 41.7,18.7 41.5,18.7 41.4,18.7 41.3,18.6    41.1,18.6 41,18.6 40.9,18.6 40.7,18.6 40.6,18.6 12,18.6 12,9.4 88,9.4 88,18.6 59.4,18.6 59.3,18.6 59.1,18.6 59,18.6 58.9,18.6    58.7,18.6 58.6,18.7 58.5,18.7 58.3,18.7 58.2,18.7 58.1,18.7 57.9,18.8 57.8,18.8 57.7,18.8 57.5,18.9 57.4,18.9 57.3,19 57.2,19    57,19.1 56.9,19.1 56.8,19.1 56.7,19.2 56.5,19.3 56.4,19.3 56.3,19.4 56.2,19.5 56.1,19.5 55.9,19.6 55.8,19.7 55.7,19.7    55.6,19.8 55.5,19.9 55.4,20 55.3,20.1 55.2,20.1 55.1,20.2 55,20.3 54.9,20.4 54.8,20.5 54.7,20.6 54.6,20.7 54.5,20.8 54.4,20.9    54.3,21 54.2,21.1 54.1,21.2 54.1,21.3 54,21.4 53.9,21.5 53.8,21.7 53.7,21.8 53.7,21.9 53.6,22 53.6,22.1 53.5,22.2 53.4,22.4    53.4,22.5 53.3,22.6 53.3,22.7 53.2,22.9 53.2,23 53.1,23.1 53.1,23.3 53,23.4 53,23.5 53,23.6 52.9,23.8 52.9,23.9 52.9,24    52.9,24.2 52.8,24.3 52.8,24.4 52.8,24.6 52.8,24.7 52.8,24.8 52.8,25 52.8,25.1 52.8,25.3 52.8,74.7 52.8,74.9 52.8,75 52.8,75.2    52.8,75.3 52.8,75.4 52.8,75.6 52.8,75.7 52.9,75.8 52.9,76 52.9,76.1 52.9,76.2 53,76.4 53,76.5 53,76.6 53.1,76.7 53.1,76.9    53.2,77 53.2,77.1 53.3,77.3 53.3,77.4 53.4,77.5 53.4,77.6 53.5,77.8 53.6,77.9 53.6,78 53.7,78.1 53.7,78.2 53.8,78.3 53.9,78.5    54,78.6 54.1,78.7 54.1,78.8 54.2,78.9 54.3,79 54.4,79.1 54.5,79.2 54.6,79.3 54.7,79.4 54.8,79.5 54.9,79.6 55,79.7 55.1,79.8    55.2,79.9 55.3,79.9 55.4,80 55.5,80.1 55.6,80.2 55.7,80.3 55.8,80.3 55.9,80.4 56.1,80.5 56.2,80.5 56.3,80.6 56.4,80.7    56.5,80.7 56.7,80.8 56.8,80.9 56.9,80.9 57,80.9 57.2,81 57.3,81 57.4,81.1 57.5,81.1 57.7,81.2 57.8,81.2 57.9,81.2 58.1,81.3    58.2,81.3 58.3,81.3 58.5,81.3 58.6,81.3 58.7,81.4 58.9,81.4 59,81.4 59.1,81.4 59.3,81.4 59.4,81.4 88,81.4 88,90.6 12,90.6    12,81.4  "/>
  </g>
  <g class="st0">
    <polygon class="st1" points="43.3,90.6 43.5,90.6 43.6,90.6 43.7,90.6 43.8,90.6 44,90.6 44.1,90.6 44.2,90.6 44.3,90.5 44.4,90.5    44.6,90.5 44.7,90.5 44.8,90.4 44.9,90.4 45,90.3 45.2,90.3 45.3,90.3 45.4,90.2 45.5,90.2 45.6,90.1 45.7,90.1 45.8,90 46,90    46.1,89.9 46.2,89.8 46.3,89.8 46.4,89.7 46.5,89.6 46.6,89.6 46.7,89.5 46.8,89.4 46.9,89.3 47,89.3 47.1,89.2 47.1,89.1 47.2,89    47.3,88.9 47.4,88.8 47.5,88.7 47.6,88.6 47.6,88.5 47.7,88.4 47.8,88.4 47.9,88.3 47.9,88.2 48,88 48.1,87.9 48.1,87.8 48.2,87.7    48.2,87.6 48.3,87.5 48.4,87.4 48.4,87.3 48.4,87.2 48.5,87 48.5,86.9 48.6,86.8 48.6,86.7 48.6,86.6 48.7,86.5 48.7,86.3    48.7,86.2 48.8,86.1 48.8,86 48.8,85.8 48.8,85.7 48.8,85.6 48.8,85.5 48.8,85.4 48.8,85.2 48.9,85.1 48.9,15.2 48.8,15 48.8,14.9    48.8,14.8 48.8,14.7 48.8,14.5 48.8,14.4 48.8,14.3 48.8,14.2 48.7,14.1 48.7,13.9 48.7,13.8 48.6,13.7 48.6,13.6 48.6,13.5    48.5,13.3 48.5,13.2 48.4,13.1 48.4,13 48.4,12.9 48.3,12.8 48.2,12.7 48.2,12.5 48.1,12.4 48.1,12.3 48,12.2 47.9,12.1 47.9,12    47.8,11.9 47.7,11.8 47.6,11.7 47.6,11.6 47.5,11.5 47.4,11.4 47.3,11.4 47.2,11.3 47.1,11.2 47.1,11.1 47,11 46.9,10.9 46.8,10.9    46.7,10.8 46.6,10.7 46.5,10.6 46.4,10.6 46.3,10.5 46.2,10.4 46.1,10.4 46,10.3 45.8,10.2 45.7,10.2 45.6,10.1 45.5,10.1 45.4,10    45.3,10 45.2,10 45,9.9 44.9,9.9 44.8,9.9 44.7,9.8 44.6,9.8 44.4,9.8 44.3,9.7 44.2,9.7 44.1,9.7 44,9.7 43.8,9.7 43.7,9.7    43.6,9.7 43.5,9.7 43.3,9.7 27.8,9.7 27.8,6.6 71.8,6.6 71.8,9.7 56.3,9.7 56.1,9.7 56,9.7 55.9,9.7 55.8,9.7 55.7,9.7 55.5,9.7    55.4,9.7 55.3,9.7 55.2,9.8 55,9.8 54.9,9.8 54.8,9.9 54.7,9.9 54.6,9.9 54.4,10 54.3,10 54.2,10 54.1,10.1 54,10.1 53.9,10.2    53.8,10.2 53.7,10.3 53.5,10.4 53.4,10.4 53.3,10.5 53.2,10.6 53.1,10.6 53,10.7 52.9,10.8 52.8,10.9 52.7,10.9 52.6,11 52.6,11.1    52.5,11.2 52.4,11.3 52.3,11.4 52.2,11.4 52.1,11.5 52,11.6 52,11.7 51.9,11.8 51.8,11.9 51.7,12 51.7,12.1 51.6,12.2 51.5,12.3    51.5,12.4 51.4,12.5 51.4,12.7 51.3,12.8 51.3,12.9 51.2,13 51.2,13.1 51.1,13.2 51.1,13.3 51,13.5 51,13.6 50.9,13.7 50.9,13.8    50.9,13.9 50.9,14.1 50.8,14.2 50.8,14.3 50.8,14.4 50.8,14.5 50.8,14.7 50.8,14.8 50.8,14.9 50.8,15 50.8,15.2 50.8,85.1    50.8,85.2 50.8,85.4 50.8,85.5 50.8,85.6 50.8,85.7 50.8,85.8 50.8,86 50.8,86.1 50.9,86.2 50.9,86.3 50.9,86.5 50.9,86.6 51,86.7    51,86.8 51.1,86.9 51.1,87 51.2,87.2 51.2,87.3 51.3,87.4 51.3,87.5 51.4,87.6 51.4,87.7 51.5,87.8 51.5,87.9 51.6,88 51.7,88.2    51.7,88.3 51.8,88.4 51.9,88.4 52,88.5 52,88.6 52.1,88.7 52.2,88.8 52.3,88.9 52.4,89 52.5,89.1 52.6,89.2 52.6,89.3 52.7,89.3    52.8,89.4 52.9,89.5 53,89.6 53.1,89.6 53.2,89.7 53.3,89.8 53.4,89.8 53.5,89.9 53.7,90 53.8,90 53.9,90.1 54,90.1 54.1,90.2    54.2,90.2 54.3,90.3 54.4,90.3 54.6,90.3 54.7,90.4 54.8,90.4 54.9,90.5 55,90.5 55.2,90.5 55.3,90.5 55.4,90.6 55.5,90.6    55.7,90.6 55.8,90.6 55.9,90.6 56,90.6 56.1,90.6 56.3,90.6 71.8,90.6 71.8,93.7 27.8,93.7 27.8,90.6  "/>
  </g>
  <g class="st0">
    <line class="st2" x1="49.8" y1="6.6" x2="49.8" y2="6.6"/>
    <line class="st2" x1="49.8" y1="50.1" x2="49.8" y2="50.1"/>
    <line class="st2" x1="49.8" y1="93.7" x2="49.8" y2="93.7"/>
    <line class="st2" x1="51.3" y1="15.2" x2="51.3" y2="85"/>
    <polyline class="st2" points="51.3,85 51.4,85.4 51.4,85.8 51.5,86.1 51.7,86.5 51.9,86.8 52.1,87.1 52.4,87.4 52.7,87.6 53,87.8    53.3,88 53.7,88.1 54.1,88.2  "/>
    <polyline class="st2" points="54.1,12.1 53.7,12.2 53.3,12.3 53,12.5 52.7,12.7 52.4,12.9 52.1,13.2 51.9,13.5 51.7,13.8    51.5,14.1 51.4,14.5 51.4,14.9 51.3,15.2  "/>
    <polyline class="st2" points="48.2,15.2 48.2,14.9 48.1,14.5 48,14.1 47.8,13.8 47.6,13.5 47.4,13.2 47.2,12.9 46.9,12.7    46.5,12.5 46.2,12.3 45.8,12.2 45.5,12.1  "/>
    <polyline class="st2" points="45.5,88.2 45.8,88.1 46.2,88 46.5,87.8 46.9,87.6 47.2,87.4 47.4,87.1 47.6,86.8 47.8,86.5 48,86.1    48.1,85.8 48.2,85.4 48.2,85  "/>
    <line class="st2" x1="48.2" y1="15.2" x2="48.2" y2="85"/>
    <polyline class="st1" points="45.5,88.2 32.2,90 31.9,90.1 31.6,90.2 31.3,90.4 31.1,90.6 30.9,90.8 30.8,91 30.6,91.3 30.6,91.6    30.5,91.9 30.5,93.7 69,93.7 69,91.9 69,91.6 68.9,91.3 68.8,91 68.6,90.8 68.4,90.6 68.2,90.4 67.9,90.2 67.7,90.1 67.4,90    54.1,88.2  "/>
    <polyline class="st1" points="45.5,12.1 32.2,10.2 31.9,10.2 31.6,10.1 31.3,9.9 31.1,9.7 30.9,9.5 30.8,9.2 30.6,9 30.6,8.7    30.5,8.4 30.5,6.6 69,6.6 69,8.4 69,8.7 68.9,9 68.8,9.2 68.6,9.5 68.4,9.7 68.2,9.9 67.9,10.1 67.7,10.2 67.4,10.2 54.1,12.1  "/>
  </g>
  <g>
    <polyline class="st3" points="11.6,87.1 11.6,87.3 11.7,87.6 11.8,87.8 12,87.9 12.3,88 12.5,88  "/>
    <line class="st3" x1="11.611" y1="87.994" x2="85.581" y2="87.994" style="stroke: rgb(167, 199, 231);"/>
    <polyline class="st3" style="fill: rgb(216, 16, 16); stroke: rgb(167, 199, 231);" points="11.6 14.1 11.6 55.733 11.6 87.1"/>
  </g>
  <text x="0" y="115" fill="#000000" font-size="5px" font-weight="bold" font-family="'Helvetica Neue', Helvetica, Arial-Unicode, Arial, Sans-serif" style="white-space: pre;"> </text>
  <text x="0" y="120" fill="#000000" font-size="5px" font-weight="bold" font-family="'Helvetica Neue', Helvetica, Arial-Unicode, Arial, Sans-serif" style="white-space: pre;"> </text>
</svg>