<?xml version="1.0" encoding="utf-8"?>
<svg viewBox="-2.068 -1.405 456.587 455.27" xmlns="http://www.w3.org/2000/svg" xmlns:bx="https://boxy-svg.com">
  <defs>
    <filter id="filter-1" color-interpolation-filters="sRGB" x="-50%" y="-50%" width="200%" height="200%" bx:preset="drop-shadow 1 -1 -0.5 0.8 0.27 #001543">
      <feGaussianBlur in="SourceAlpha" stdDeviation="0.8"/>
      <feOffset dx="-1" dy="-0.5"/>
      <feComponentTransfer result="offsetblur">
        <feFuncA id="feFuncA-1" type="linear" slope="0.54"/>
      </feComponentTransfer>
      <feFlood flood-color="#001543"/>
      <feComposite in2="offsetblur" operator="in"/>
      <feMerge>
        <feMergeNode/>
        <feMergeNode in="SourceGraphic"/>
      </feMerge>
    </filter>
    <linearGradient gradientUnits="userSpaceOnUse" x1="60.096" y1="28.068" x2="60.096" y2="111.005" id="gradient-0" gradientTransform="matrix(3.699217, 0, 0, 3.600306, 17.224396, -15.925317)">
      <stop offset="0" style="stop-color: rgb(65.49% 78.039% 90.588%)"/>
      <stop offset="1" style="stop-color: rgb(33.096% 45.419% 56.785%)"/>
    </linearGradient>
    <filter id="drop-shadow-filter-0" color-interpolation-filters="sRGB" x="-50%" y="-50%" width="200%" height="200%" bx:preset="drop-shadow 1 -1 -0.5 0.8 0.27 #001543">
      <feGaussianBlur in="SourceAlpha" stdDeviation="0.8"/>
      <feOffset dx="-1" dy="-0.5"/>
      <feComponentTransfer result="offsetblur">
        <feFuncA id="spread-ctrl" type="linear" slope="0.54"/>
      </feComponentTransfer>
      <feFlood flood-color="#001543"/>
      <feComposite in2="offsetblur" operator="in"/>
      <feMerge>
        <feMergeNode/>
        <feMergeNode in="SourceGraphic"/>
      </feMerge>
    </filter>
  </defs>
  <rect x="-16.792" y="-6.623" width="498.9" height="481.256" style="stroke: rgb(0, 0, 0); fill: rgb(255, 255, 255);"/>
  <path d="M 211.985 383.494 L 268.827 350.653 L 325.658 317.879 C 325.721 317.838 325.757 317.781 325.813 317.738 C 325.917 317.667 326.013 317.587 326.094 317.492 C 326.169 317.414 326.22 317.321 326.275 317.226 C 326.331 317.13 326.383 317.037 326.423 316.929 C 326.461 316.813 326.479 316.697 326.497 316.571 C 326.504 316.5 326.538 316.439 326.538 316.359 L 326.538 250.798 L 326.538 185.178 L 326.538 119.625 C 326.538 119.588 326.516 119.556 326.516 119.526 C 326.509 119.448 326.504 119.376 326.486 119.297 C 326.471 119.221 326.45 119.141 326.423 119.066 C 326.394 118.991 326.367 118.919 326.331 118.846 C 326.315 118.818 326.315 118.782 326.301 118.752 C 326.283 118.728 326.25 118.707 326.234 118.681 C 326.187 118.612 326.146 118.558 326.094 118.501 C 326.038 118.431 325.984 118.379 325.917 118.325 C 325.854 118.271 325.799 118.222 325.732 118.18 C 325.702 118.162 325.687 118.129 325.658 118.116 L 268.827 85.336 C 268.768 85.301 268.701 85.298 268.642 85.274 C 268.519 85.216 268.401 85.169 268.268 85.148 C 268.172 85.13 268.079 85.13 267.983 85.125 C 267.857 85.122 267.735 85.125 267.613 85.155 C 267.503 85.173 267.399 85.219 267.295 85.259 C 267.221 85.292 267.147 85.295 267.077 85.331 L 210.231 118.111 C 210.206 118.129 210.186 118.155 210.157 118.173 C 210.087 118.216 210.028 118.266 209.965 118.322 C 209.902 118.374 209.85 118.428 209.794 118.498 C 209.742 118.555 209.698 118.609 209.657 118.677 C 209.636 118.707 209.605 118.725 209.587 118.752 C 209.569 118.777 209.569 118.818 209.558 118.843 C 209.517 118.914 209.49 118.986 209.465 119.061 C 209.436 119.141 209.418 119.218 209.402 119.297 C 209.384 119.373 209.377 119.443 209.369 119.523 C 209.369 119.556 209.351 119.588 209.351 119.621 L 209.351 185.175 L 209.351 249.786 L 153.419 282.056 C 153.382 282.074 153.371 282.113 153.337 282.131 C 153.274 282.175 153.223 282.211 153.167 282.262 C 153.101 282.322 153.045 282.376 152.986 282.441 C 152.93 282.502 152.889 282.56 152.845 282.624 C 152.826 282.653 152.793 282.668 152.779 282.696 C 152.761 282.725 152.761 282.766 152.745 282.793 C 152.709 282.862 152.678 282.931 152.657 283.011 C 152.626 283.086 152.605 283.164 152.594 283.244 C 152.574 283.316 152.567 283.395 152.56 283.471 C 152.56 283.505 152.538 283.535 152.538 283.574 L 152.538 349.13 C 152.538 349.205 152.574 349.27 152.583 349.342 C 152.597 349.46 152.615 349.576 152.657 349.695 C 152.693 349.799 152.745 349.9 152.801 349.993 C 152.856 350.09 152.912 350.181 152.986 350.268 C 153.063 350.361 153.164 350.436 153.263 350.513 C 153.319 350.552 210.224 383.487 210.224 383.487 C 210.227 383.487 210.231 383.487 210.231 383.49 C 210.26 383.505 210.287 383.5 210.312 383.512 C 210.549 383.634 210.812 383.724 211.1 383.724 C 211.389 383.724 211.648 383.639 211.888 383.512 C 211.918 383.5 211.944 383.505 211.97 383.49 C 211.977 383.494 211.981 383.494 211.985 383.494 Z M 214.611 119.625 L 321.286 119.625 L 214.611 119.625 Z M 212.857 378.943 L 266.201 286.607 L 212.857 378.943 Z M 323.034 249.789 L 269.707 280.546 L 323.034 249.789 Z M 323.034 122.652 L 269.707 214.989 L 323.034 122.652 Z M 266.204 214.989 L 212.861 184.17 L 266.204 214.989 Z M 212.857 249.793 L 266.201 280.551 L 212.857 249.793 Z M 269.707 284.586 L 323.034 315.354 L 269.707 284.586 Z M 157.799 283.582 L 211.107 314.343 L 157.799 283.582 Z" style="filter: url('#drop-shadow-filter-0'); stroke-width: 0px; fill: url('#gradient-0');"/>
  <path d="M 198.667 375.309 L 255.519 342.468 L 312.356 309.689 C 312.419 309.654 312.454 309.595 312.511 309.553 C 312.613 309.479 312.711 309.402 312.791 309.308 C 312.865 309.227 312.917 309.133 312.973 309.038 C 313.029 308.944 313.082 308.849 313.12 308.741 C 313.159 308.624 313.176 308.51 313.194 308.386 C 313.201 308.314 313.236 308.251 313.236 308.174 L 313.236 242.606 L 313.236 176.983 L 313.236 111.425 C 313.236 111.387 313.215 111.355 313.215 111.324 C 313.208 111.247 313.201 111.175 313.183 111.1 C 313.169 111.021 313.148 110.944 313.12 110.866 C 313.092 110.792 313.064 110.719 313.029 110.649 C 313.015 110.617 313.015 110.582 312.998 110.554 C 312.98 110.526 312.949 110.505 312.931 110.481 C 312.886 110.414 312.844 110.358 312.791 110.299 C 312.735 110.232 312.679 110.18 312.616 110.124 C 312.553 110.068 312.496 110.026 312.431 109.98 C 312.398 109.963 312.384 109.931 312.356 109.914 L 255.519 77.131 C 255.46 77.096 255.393 77.093 255.334 77.068 C 255.211 77.012 255.092 76.967 254.959 76.942 C 254.863 76.925 254.769 76.925 254.674 76.921 C 254.548 76.918 254.426 76.921 254.303 76.949 C 254.191 76.97 254.09 77.016 253.985 77.054 C 253.911 77.086 253.838 77.089 253.768 77.128 L 196.915 109.91 C 196.887 109.928 196.87 109.956 196.842 109.973 C 196.772 110.019 196.712 110.064 196.649 110.12 C 196.586 110.176 196.534 110.229 196.478 110.295 C 196.425 110.355 196.383 110.411 196.341 110.477 C 196.32 110.505 196.289 110.523 196.271 110.551 C 196.254 110.579 196.254 110.617 196.24 110.645 C 196.201 110.715 196.173 110.785 196.149 110.862 C 196.121 110.939 196.1 111.016 196.086 111.098 C 196.068 111.17 196.061 111.245 196.054 111.32 C 196.054 111.355 196.033 111.387 196.033 111.422 L 196.033 176.979 L 196.033 241.595 L 140.096 273.868 C 140.061 273.887 140.047 273.922 140.014 273.943 C 139.951 273.985 139.899 274.022 139.843 274.071 C 139.776 274.132 139.72 274.188 139.661 274.254 C 139.608 274.314 139.566 274.37 139.521 274.436 C 139.503 274.464 139.472 274.482 139.454 274.51 C 139.437 274.538 139.437 274.576 139.423 274.604 C 139.384 274.674 139.356 274.744 139.332 274.821 C 139.304 274.898 139.283 274.975 139.269 275.056 C 139.251 275.129 139.244 275.203 139.237 275.28 C 139.237 275.315 139.216 275.346 139.216 275.381 L 139.216 340.945 C 139.216 341.018 139.251 341.085 139.258 341.158 C 139.276 341.277 139.293 341.393 139.332 341.513 C 139.37 341.618 139.423 341.716 139.479 341.814 C 139.535 341.907 139.587 341.998 139.661 342.08 C 139.741 342.173 139.839 342.25 139.941 342.323 C 139.998 342.365 140.033 342.426 140.096 342.461 L 196.908 375.302 C 196.912 375.302 196.915 375.302 196.915 375.305 C 196.943 375.319 196.971 375.316 196.996 375.33 C 197.234 375.452 197.498 375.54 197.785 375.54 C 198.072 375.54 198.331 375.456 198.572 375.33 C 198.6 375.316 198.628 375.319 198.653 375.305 C 198.66 375.309 198.663 375.309 198.667 375.309 Z M 254.646 80.663 L 307.982 111.425 L 254.646 142.185 L 201.297 111.425 L 254.646 80.663 Z M 199.542 309.182 L 252.893 278.415 L 252.893 339.944 L 199.542 370.762 L 199.542 309.182 Z M 309.735 241.598 L 256.398 272.357 L 256.398 210.836 L 309.735 180.015 L 309.735 241.598 Z M 309.735 175.975 L 256.398 206.797 L 256.398 145.212 L 309.735 114.454 L 309.735 175.975 Z M 252.896 206.797 L 199.545 175.975 L 199.545 114.454 L 252.896 145.212 L 252.896 206.797 Z M 199.542 180.017 L 252.893 210.84 L 252.893 272.36 L 199.542 241.602 L 199.542 180.017 Z M 256.398 276.396 L 309.735 245.638 L 309.735 307.165 L 256.398 337.925 L 256.398 276.396 Z M 197.792 244.63 L 251.141 275.388 L 197.792 306.154 L 144.477 275.388 L 197.792 244.63 Z M 142.731 278.415 L 196.044 309.182 L 196.044 370.762 L 142.731 339.944 L 142.731 278.415 Z" style="filter: url('#filter-1'); fill: rgb(0, 21, 67);"/>
</svg>