<?xml version="1.0" encoding="utf-8"?>
<svg width="800px" height="800px" viewBox="105.56 141.974 47.516 22.393" data-name="Layer 1" id="Layer_1" xmlns="http://www.w3.org/2000/svg">
  <defs>
    <style>.cls-1{fill:#84d0f7;}.cls-2{fill:#aa392d;}.cls-3{fill:#7c211a;}.cls-4{fill:#eab198;}.cls-5{fill:#2d2d2d;}.cls-6{opacity:0.2;}.cls-7{opacity:0.3;}</style>
  </defs>
  <g data-name="Male 1" id="Male_1">
    <path class="cls-1" d="M250.26,127.82A121.69,121.69,0,0,1,212.45,216H45a102,102,0,0,1-9-8.93l-.82-1c-7-8.33-29.68-37.88-28.51-78.32C8.24,71.81,55.33,6,128.44,6A121.82,121.82,0,0,1,250.26,127.82Z" id="Wallpaper" style="transform-box: fill-box; transform-origin: 50% 50%; fill: rgba(0, 21, 67, 0);" transform="matrix(1, 0, 0, 1, 0.000005722046, 0)"/>
    <path class="cls-2" d="M221.73,206.18a121.92,121.92,0,0,1-93.3,43.47c-39.61,0-69.27-21-83.46-33.6a103.65,103.65,0,0,1-9-8.94l-.82-1c13.58-13.7,31.87-24.34,53-30.37C94,190.44,109.81,201,128.41,201c17.29,0,32.18-9.07,39-22.1.51-1,1-2,1.39-3.08.4.11.65.17,1.16.33C190.5,182.2,208.39,192.7,221.73,206.18Z" id="Sweater" style="fill: rgb(0, 21, 67); visibility: hidden;"/>
    <path class="cls-3" d="M168.75,175.77c-.42,1-.88,2.06-1.39,3.08-6.77,13-21.66,22.1-39,22.1-18.6,0-34.45-10.51-40.33-25.18.45-.14.89-.25,1.33-.38a6,6,0,0,0,.62-.18c.23,0,.47-.11.71-.17L91,175s1.75-.47,3.39-.84a37.86,37.86,0,0,0,68.12,0A28,28,0,0,1,168.75,175.77Z" id="Neckband" style="fill: rgba(2, 24, 70, 0.63); visibility: hidden;"/>
    <path class="cls-4" d="M162.48,174.13a37.87,37.87,0,0,1-68.12,0c1.35-.34,2.7-.65,4.08-.91l1-.22.51-.09c.28-.07.57-.11.86-.18l1.2-.2.91-.18H103c.35-.86.68-1.79,1-2.81.11-.33.22-.71.34-1.07.39-1.46.68-2.83.88-4.05a42.06,42.06,0,0,0,6.9,4.59,5.48,5.48,0,0,1,.53.28l.64.31c.22.12.49.23.73.36l.45.2.37.18.47.2.44.17a1.76,1.76,0,0,0,.2.09l.53.2.67.27h.06l.71.26a1,1,0,0,0,.16.05l.51.17.78.23.35.09.71.19a35.9,35.9,0,0,0,4.52.8c.16,0,.31,0,.47.05l.33,0,.62,0,.55,0c.23,0,.43,0,.65,0h.55a30.48,30.48,0,0,0,9.71-1.62.11.11,0,0,0,.07,0,1.79,1.79,0,0,0,.35-.11c.8-.27,1.51-.56,2.13-.8l.84-.36.22-.08a38.71,38.71,0,0,0,9.87-6.12c.31,1.37.69,2.83,1.15,4.36.42,1.38.87,2.66,1.33,3.88.36.07.73.11,1.09.2s.73.14,1.08.2l1.09.2.8.16c.2,0,.37.06.55.11C159.77,173.51,161.13,173.79,162.48,174.13Z" id="Neck" style="fill: rgb(206, 145, 118); visibility: hidden;"/>
    <path class="cls-5" d="M102.91,53.93A65.1,65.1,0,0,0,85.85,76.37,72,72,0,0,0,80,94.28,66.73,66.73,0,0,0,79,109a5.56,5.56,0,0,0-2.19,0c-.67-2.49-1.26-6-2.09-10.49-1-5.85-1.55-8.78-1.39-12a36.8,36.8,0,0,1,6.6-18.34C86.24,59.39,96.8,54.75,102.91,53.93Z" id="Hairs" style="fill: rgb(16, 16, 16); visibility: hidden;"/>
    <path class="cls-5" d="M182.1,98.49c-.8,4.52-1.42,8-2.09,10.49-.71,2.7-1.48,4.27-2.59,4.81h0c.18-1.6.31-3.17.37-4.77a64.9,64.9,0,0,0-3.5-24.58l.4-.29.44-.33a1.88,1.88,0,0,0,.25-.2A24.35,24.35,0,0,0,180,78.85a4.49,4.49,0,0,0,.84-3.55,35.43,35.43,0,0,1,2.66,11.18v0C183.67,89.73,183.14,92.66,182.1,98.49Z" data-name="Hairs" id="Hairs-2" style="fill: rgb(16, 16, 16); visibility: hidden;"/>
    <path class="cls-6" d="M169.91,176.1c-.83,1-1.69,1.86-2.55,2.75a61.26,61.26,0,0,1-6.3,5.45,43.1,43.1,0,0,1-9.49,5.39,35.62,35.62,0,0,1-6.58,1.95,29.5,29.5,0,0,1-6.05.51,32.11,32.11,0,0,1-11.62-2.4,4.59,4.59,0,0,1-.64-.28,41.43,41.43,0,0,1-8.29-4.72,58.8,58.8,0,0,1-12.68-12.84c-.58-.78-1.13-1.57-1.69-2.37.11-.33.22-.71.34-1.07.39-1.46.68-2.83.88-4.05.58.46,1.2.93,1.8,1.37a47.19,47.19,0,0,0,5.1,3.22,5.48,5.48,0,0,1,.53.28l.64.31c.22.12.49.23.73.36l.45.2.37.18.47.2.44.17a1.76,1.76,0,0,0,.2.09l.53.2.67.27h.06l.71.26a1,1,0,0,0,.16.05l.51.17.78.23.35.09.71.19a29.91,29.91,0,0,0,4.52.8c.16,0,.31,0,.47.05l.33,0,.62,0,.55,0c.23,0,.43,0,.65,0h.55a31.73,31.73,0,0,0,9.71-1.62.11.11,0,0,0,.07,0,1.79,1.79,0,0,0,.35-.11c.67-.23,1.31-.47,1.95-.73l.2-.07.82-.36.22-.08a45.84,45.84,0,0,0,8.25-4.88c.55-.4,1.09-.82,1.62-1.24.31,1.37.69,2.83,1.15,4.36.42,1.38.87,2.66,1.33,3.88.36.07.73.11,1.09.2s.73.14,1.08.2l1.09.2.8.16c.2,0,.37.06.55.11,1.35.29,2.71.57,4.06.91,2.1.48,4.21,1,6.27,1.64Z" id="NeckShadow" style="visibility: hidden;"/>
    <path class="cls-4" d="M186.46,119.88c-.16,5.19-3.47,10.44-7.18,12.37a7.22,7.22,0,0,1-1.57.6l-.12,0a4.9,4.9,0,0,1-2.05.06,5.05,5.05,0,0,1-2-.88l-.28-.2a7.82,7.82,0,0,1-1.12-1.11c-2.67-3.22-3.76-9.27-2-14.09a14.55,14.55,0,0,1,3.23-5,9,9,0,0,1,4.42-2.6,6.1,6.1,0,0,1,2.37,0C184.56,109.89,186.59,115.54,186.46,119.88Z" id="RightEar" style="visibility: hidden;"/>
    <path class="cls-7" d="M186.46,119.88c-.16,5.19-3.47,10.44-7.18,12.37a7.22,7.22,0,0,1-1.57.6l-.12,0a4.9,4.9,0,0,1-2.05.06,5.05,5.05,0,0,1-2-.88l-.28-.2a7.82,7.82,0,0,1-1.12-1.11c-2.67-3.22-3.76-9.27-2-14.09a14.55,14.55,0,0,1,3.23-5,9,9,0,0,1,4.42-2.6,6.1,6.1,0,0,1,2.37,0C184.56,109.89,186.59,115.54,186.46,119.88Z" id="RightEarShadow" style="fill: rgba(0, 0, 0, 0.643); visibility: hidden;"/>
    <path class="cls-4" d="M84.67,130.74A7.13,7.13,0,0,1,83.43,132a1.53,1.53,0,0,1-.16.11,4.91,4.91,0,0,1-4.08.8.32.32,0,0,1-.13,0,7.07,7.07,0,0,1-1.55-.6c-3.72-1.93-7-7.18-7.18-12.37-.14-4.34,1.88-10,6.29-10.88a.44.44,0,0,1,.16,0A5.56,5.56,0,0,1,79,109a8.73,8.73,0,0,1,4.44,2.59,10,10,0,0,1,.71.8,14.46,14.46,0,0,1,2.52,4.24C88.44,121.48,87.35,127.53,84.67,130.74Z" id="LeftEar" style="fill: rgb(206, 145, 118); visibility: hidden;"/>
    <path class="cls-4" d="M177.77,109c-.06,1.6-.19,3.17-.37,4.77a80.18,80.18,0,0,1-4.17,18.06c-4.65,13.08-12.48,24.68-21.9,32.26-.53.42-1.07.84-1.62,1.24a45.84,45.84,0,0,1-8.25,4.88l-.22.08-.82.36-.2.07c-.64.26-1.28.5-1.95.73a1.79,1.79,0,0,1-.35.11.11.11,0,0,1-.07,0,31.73,31.73,0,0,1-9.71,1.62h-.55c-.22,0-.42,0-.65,0l-.55,0-.62,0-.33,0c-.16,0-.31,0-.47-.05a29.91,29.91,0,0,1-4.52-.8l-.71-.19-.35-.09-.78-.23-.51-.17a1,1,0,0,1-.16-.05l-.71-.26h-.06l-.67-.27-.53-.2a1.76,1.76,0,0,1-.2-.09l-.44-.17-.47-.2-.37-.18L114,170c-.24-.13-.51-.24-.73-.36l-.64-.31a5.48,5.48,0,0,0-.53-.28,47.19,47.19,0,0,1-5.1-3.22c-.6-.44-1.22-.91-1.8-1.37a58.48,58.48,0,0,1-8.58-8.52A77.1,77.1,0,0,1,83.43,132c-.16-.35-.27-.73-.4-1.1a80.37,80.37,0,0,1-3.7-17.1c0-.37-.09-.77-.11-1.15-.09-1-.18-2-.22-3.08,0-.18,0-.33,0-.51a66.73,66.73,0,0,1,1-14.74,72,72,0,0,1,5.88-17.91,65.1,65.1,0,0,1,17.06-22.44c.31-.26.63-.51.94-.75a39.71,39.71,0,0,1,24.42-8.87c9.74,0,18.38,3.7,25.61,9.6A58.18,58.18,0,0,1,164.1,64.8a73.24,73.24,0,0,1,8.62,15.47c.58,1.37,1.09,2.77,1.55,4.17a64.9,64.9,0,0,1,3.5,24.58Z" id="Head" style="fill: rgb(206, 145, 118); visibility: hidden;"/>
    <path class="cls-6" d="M 183.49 86.48 C 182.529 87.583 181.46 88.588 180.3 89.48 C 180.21 89.57 179.79 89.88 179.24 90.3 C 178.33 90.95 182.495 96.516 181.535 97.136 C 178.163 99.33 174.68 89.165 173.174 89.111 C 172.698 89.094 170.169 94.327 169.322 94.362 C 167.928 94.42 162.561 95.401 160.902 95.682 C 159.19 95.972 155.607 100.2 153.766 100.228 C 151.521 100.262 148.349 98.503 145.966 98.481 C 143.182 98.456 139.204 100.754 136.333 100.471 C 135.137 100.353 133.233 101.56 132.031 101.385 C 130.157 101.112 128.043 100.413 126.165 100.019 C 124.367 99.643 121.794 102.73 120.013 102.168 C 115.459 100.73 106.237 97.83 101.99 95.399 C 99.893 94.171 98.486 99.854 96.526 98.417 C 95.856 97.927 87.776 90.715 87.136 90.235 C 85.398 88.894 94.523 85.961 92.93 84.45 C 92.2 83.74 91.47 83.01 90.76 82.25 C 89.83 81.25 88.92 80.25 88.06 79.25 C 87.695 78.828 87.416 78.339 87.24 77.81 C 89.037 79.587 90.937 81.256 92.93 82.81 C 95.464 84.808 98.133 86.631 100.93 88.24 C 119.977 99.198 141.746 95.572 162.316 89.466 C 166.263 88.294 168.643 84.657 174.23 84.49 L 174.63 84.2 L 175.07 83.87 C 175.159 83.811 175.243 83.744 175.32 83.67 C 177.095 82.287 178.67 80.665 180 78.85 C 180.77 77.839 181.075 76.549 180.84 75.3 C 182.326 78.858 183.221 82.634 183.49 86.48 Z" id="HairsShadow" style="fill: rgb(16, 16, 16); visibility: hidden;"/>
    <path class="cls-5" d="M 180 78.85 C 178.682 80.644 177.124 82.249 175.37 83.62 C 175.293 83.694 175.209 83.761 175.12 83.82 L 174.68 84.15 L 174.28 84.44 C 173.417 85.067 171.34 84.735 170.564 85.927 C 169.594 87.418 169.91 90.445 168.558 90.975 C 166.665 91.718 163.69 89.277 161.999 90.073 C 159.797 91.1 158.012 96.316 155.558 96.259 C 153.124 96.202 152.467 94.835 150.298 93.973 C 144.907 91.83 143.474 97.085 140.634 96.484 C 138.161 95.961 134.329 97.875 131.762 97.718 C 129.98 97.609 127.721 95.778 125.944 95.59 C 124.127 95.397 122.313 98.1 120.507 97.702 C 118.457 97.251 116.063 94.702 114.054 94.058 C 112.093 93.429 108.409 95.96 106.5 95.148 C 104.031 94.098 98.89 92.573 98.435 95.253 C 97.447 101.078 93.597 94.166 91.951 92.626 C 90.655 91.414 86.736 92.106 85.62 91.226 C 83.627 89.672 82.985 85.469 81.188 83.692 C 80.698 83.202 81.129 81.169 80.689 80.709 C 79.749 79.709 84.05 74.4 83.18 73.4 C 81.75 71.697 81.75 69.213 83.18 67.51 C 86.826 63.166 91.006 59.298 95.62 56 C 96.88 55.093 98.187 54.23 99.54 53.41 C 110.116 46.935 122.279 43.518 134.68 43.54 C 137.85 43.54 146.61 43.54 154.59 46.54 C 163.14 49.74 169.33 55.81 173.59 61.75 C 176.396 65.659 178.744 69.876 180.59 74.32 C 180.725 74.639 180.813 74.976 180.85 75.32 C 181.076 76.564 180.768 77.845 180 78.85 Z" data-name="Hairs" id="Hairs-3" style="fill: rgb(16, 16, 16); visibility: hidden;"/>
    <ellipse style="fill: rgb(255, 255, 255); stroke: rgb(255, 255, 255); visibility: hidden;" cx="107.238" cy="116.502" rx="9.39" ry="2.443"/>
    <ellipse style="stroke: rgb(255, 255, 255); fill: rgb(255, 255, 255); visibility: hidden;" cx="147.632" cy="116.55" rx="9.39" ry="2.45"/>
  </g>
  <path style="stroke: rgb(157, 89, 59);" d="M 108.32 147.827 C 108.99 150.305 111.996 153.116 113.721 154.911 C 119.256 160.67 128.117 166.067 136.274 162.135 C 140.22 160.233 143.87 156.239 145.988 152.496 C 147.141 150.46 147.608 147.32 148.908 145.401"/>
  <path style="stroke: rgba(0, 0, 0, 0); fill: rgb(255, 255, 255);" d="M 109.243 149.225 C 111.384 149.167 113.534 149.204 115.676 149.217 C 116.554 149.222 117.571 149.393 118.451 149.337 C 119.664 149.26 120.858 149.074 122.077 149.03 C 127.283 148.841 132.512 148.978 137.721 148.922 C 139.679 148.902 141.659 148.857 143.618 148.927 C 144.566 148.961 145.486 149.073 146.435 149.073 C 146.534 149.073 146.729 149.015 146.754 148.983 C 147.416 148.139 147.917 147.241 148.002 146.154 C 148.005 146.122 147.39 146.169 147.261 146.179 C 146.715 146.221 146.151 146.238 145.604 146.254 C 143.823 146.307 142.033 146.448 140.238 146.448 C 139.364 146.448 138.49 146.592 137.604 146.545 C 136.231 146.47 134.859 146.245 133.481 146.18 C 131.771 146.1 130.066 146.126 128.355 146.071 C 126.029 145.996 123.734 145.66 121.387 145.74 C 119.957 145.789 118.738 146.171 117.366 146.407 C 116.664 146.527 115.865 146.288 115.145 146.322 C 114.499 146.352 113.818 146.593 113.293 146.945 C 113.013 147.133 111.946 147.075 111.611 147.12 C 110.8 147.226 110.097 147.608 109.324 147.84 C 109.099 147.908 108.838 147.84 108.615 147.921 C 108.541 147.948 108.678 148.156 108.691 148.196 C 108.756 148.391 109.205 149.51 109.049 148.862"/>
  <path style="stroke: rgb(157, 89, 59); fill: rgba(216, 216, 216, 0);" d="M 106.516 149.017 C 110.166 146.321 115.983 145.927 120.37 145.721 C 126.738 145.422 133.688 146.645 140.175 146.145 C 142.369 145.976 144.755 145.906 147.104 145.742 C 148.96 145.612 150.806 145.479 152.425 144.802"/>
  <path style="stroke: rgb(0, 0, 0); fill: rgba(216, 216, 216, 0); visibility: hidden;" d="M 127.484 114.706 C 127.484 118.533 127.978 122.806 127.116 126.567 C 126.12 130.915 121.856 137.561 128.998 137.561"/>
  <path style="fill: rgba(216, 216, 216, 0); stroke: rgb(157, 89, 59);" d="M 149.283 142.853 C 151.755 142.853 153.032 144.898 151.585 146.77"/>
  <path style="fill: rgb(255, 255, 255); stroke: rgb(157, 89, 59);" d="M 141.75 157.615 C 142.341 158.156 140.875 158.622 142.098 157.548 C 143.321 156.474 141.916 157.876 141.881 157.922 C 141.576 158.319 141.104 158.583 140.677 158.827 C 139.954 159.242 139.361 159.967 138.645 160.352 C 137.784 160.816 136.962 161.124 136.078 161.517 C 133.863 162.502 131.158 163.436 128.684 163.115 C 127.325 162.938 126.024 162.399 124.707 162.055 C 123.221 161.667 120.484 160.702 119.169 159.522 C 119.063 159.427 118.987 159.313 118.901 159.216"/>
</svg>