<?xml version="1.0" encoding="utf-8"?>
<svg version="1.1" viewBox="-5.0 -10.0 110.0 135.0" xmlns="http://www.w3.org/2000/svg">
  <defs/>
  <path d="m72.156 2.7461-3.7031 5.5547h-58.27v14.816h-7.4062v57.406h22.793c0.54297 0.82422 1.1758 1.6055 1.8984 2.3281 4.3672 4.3672 10.828 5.4531 16.254 3.1602l11.242 11.242 7.8555-7.8555-8.875-8.875h34.02c5.1133 0 9.2578-4.1445 9.2578-9.2578v-68.52zm-65.676 74.074v-50h19.379l3.7031 5.5547h49.141v38.891c0 2.082 0.69141 4.0078 1.8555 5.5547h-28.488c1.5938-5.0977 0.37891-10.891-3.6523-14.922-5.7773-5.7773-15.176-5.7773-20.953 0-4.0312 4.0312-5.2461 9.8242-3.6523 14.922zm23.605 3.4102c-4.332-4.332-4.332-11.383 0-15.715 4.332-4.332 11.383-4.332 15.715 0s4.332 11.383 0 15.715-11.383 4.332-15.715 0zm24.879 11.785-7.9414-7.9414c0.48437-0.375 0.94922-0.78125 1.3945-1.2266 0.44531-0.44531 0.84766-0.91016 1.2266-1.3945l7.9414 7.9414zm38.555-20.75c0 2.4688-1.5977 4.4961-3.7031 5.2383v-60.797h-72.223v7.4062l-3.7031 0.003907v-11.109h56.547l3.7031-5.5547 19.379-0.003906z"/>
  <text x="0.0" y="117.5" font-size="5.0" font-weight="bold" font-family="Arbeit Regular, Helvetica, Arial-Unicode, Arial, Sans-serif" fill="#000000" style="white-space: pre;"> </text>
  <text x="0.0" y="122.5" font-size="5.0" font-weight="bold" font-family="Arbeit Regular, Helvetica, Arial-Unicode, Arial, Sans-serif" fill="#000000" style="white-space: pre;"> </text>
</svg>