<svg xmlns="http://www.w3.org/2000/svg" version="1.1" viewBox="-5.0 -10.0 110.0 135.0">
 <path d="m99.691 49.355c-0.76562-0.91797-1.6523-1.7305-2.6328-2.4102-0.92578-0.75-1.9961-1.3008-3.1406-1.625h-0.26562c-3.4141-4-8.8203-5.6875-13.902-4.332-1.4727 0.74219-2.8125 1.7344-3.9531 2.9297-0.65234 0.63672-1.3398 1.2344-2.0586 1.793-0.96875 0.75-2.0938 1.2734-3.293 1.5273-1.293 0.22266-2.6172 0.22266-3.9102 0-0.51953 0-1.0664-0.18359-1.668-0.32422v0.003907c0.35547-0.89844 0.57812-1.8438 0.66016-2.8047 0.17969-1.3867 0.039062-2.793-0.40625-4.1172-1.293-2.8203-3.5586-5.0859-6.375-6.3789-5.75-2.875-12.133-4.2578-18.555-4.0195h-0.53516c-3.4492 0-6.9102 0.23828-10.172 0.47656-0.58984 0.015625-1.082 0.46094-1.1523 1.0469-0.070312 0.58594 0.30078 1.1367 0.87109 1.293 2.9062 0.59766 5.6094 1.9336 7.8477 3.8789 1.1133 1.0195 2.1328 2.1289 3.0547 3.3242 0.80078 0.98047 1.6523 1.9141 2.5508 2.8008 0.33594 0.32422 0.66016 0.61719 0.98047 0.86719v0.003906c-1.3203 0.32422-2.6641 0.55469-4.0195 0.69922-1.3594 0.11328-2.7266 0.042969-4.0664-0.21094-5.0039-1.3438-9.6406-3.7891-13.578-7.1602l-0.62891-0.46094-1.625-1.1914h-0.14062c-0.14844-0.19531-0.35547-0.33203-0.58984-0.39453-5.1562-1.4844-10.691-0.89062-15.414 1.6562-0.57031 0.30859-1.1211 0.65234-1.6562 1.0195l-0.20703 0.14062c-0.55469 0.34375-1.0352 0.79688-1.4023 1.332-0.73047 1.2344 0 2.8008 0.53125 3.8242l0.16797 0.32422c1.1094 2.2617 2.6133 4.3086 4.4453 6.0391 2.0664 1.9727 4.4844 3.5352 7.1328 4.6094 0.18359 0.066406 0.38672 0.066406 0.57422 0h0.14062c0.93359 0.054687 1.8672 0.097656 2.8008 0.125v0.003906c3.6484-0.19141 7.293 0.48047 10.637 1.9609 0.99609 0.55469 1.9023 1.2617 2.6914 2.0898-2.4961 1.4688-5.207 2.5391-8.0312 3.1797-0.44531 0.12109-0.78516 0.47656-0.88281 0.92578-0.10547 0.40625 0.035156 0.83984 0.36328 1.1055 3.9922 3.1328 8.6172 5.3594 13.551 6.5312 2.6719 0.625 5.4023 0.94141 8.1445 0.9375 2.3203 0 4.6328-0.23438 6.9062-0.69922 2.5742-0.42578 5.0195-1.4258 7.1484-2.9297l0.15234-0.11328c5.125 2.3086 10.973 2.3906 16.16 0.22656 2.6016-1.0391 4.9531-2.6172 6.8945-4.6406 1.4141-1.5625 2.6836-3.25 3.7969-5.043 0.62891-0.99609 1.2891-2.0039 2.0039-2.957 1.5859-2.5039 4.1094-4.2617 7.0078-4.8789 1.9922 0.14844 3.9141 0.78516 5.6055 1.8516 0.52344 0.30859 1.1992 0.17578 1.5664-0.30859 0.3125-0.47656 0.26172-1.1055-0.125-1.5273zm-37.078-3.0703c-1.1641-0.39062-2.3125-0.85547-3.4336-1.2891-2.2773-0.99219-4.6562-1.7383-7.0898-2.2266-0.92578-0.16406-1.8633-0.24609-2.8047-0.25391h-1.1914l-0.83984 0.11328c-2.0625-0.99219-3.8242-2.5156-5.1016-4.4141l-0.55859-0.53125c-0.87891-1.1133-1.8438-2.1484-2.8867-3.0977-1.082-0.96094-2.2656-1.793-3.5352-2.4805 4.1094-0.26953 8.2383-0.13672 12.32 0.40625 2.9023 0.39062 5.7305 1.1953 8.4062 2.3828 2.5547 1.0039 4.7852 2.6914 6.4492 4.875 0.66406 1.0625 0.98047 2.3086 0.89453 3.5586-0.007813 1.0195-0.21875 2.0273-0.62891 2.957zm-47.547-6.0938c-0.75 0.058594-1.4727 0.28906-2.1172 0.67188-0.85938 0.57031-1.2656 1.6211-1.0078 2.6211 0.25391 0.875 0.62109 1.7148 1.0898 2.4922 0.39453 0.74219 0.83594 1.457 1.3203 2.1445 0.78906 1.1094 1.6328 2.1758 2.5352 3.1953h-0.73047l-2.8008-0.14062h-0.19531c-3.9531-1.6797-7.25-4.5938-9.4062-8.3086-0.57422-0.90234-1.043-1.8633-1.3984-2.8711 0-0.15234 0-0.22266 0.36328-0.49219l0.14062-0.085937c0.44922-0.34766 0.91406-0.66797 1.4023-0.96484 1.9961-1.1602 4.207-1.9062 6.5-2.1992 2.5078-0.34375 5.0625-0.16797 7.4961 0.51562 0.074219 0.085938 0.16016 0.16406 0.25391 0.22656l2.0586 1.5c0.47656 0.36328 0.96875 0.69922 1.4023 1.0508-2.3125 0.085937-4.6211 0.30078-6.9062 0.64453zm18.34 17.711c4.0234-2.6016 8.7734-3.8516 13.555-3.5586 2.3789 0.085938 4.7344 0.49609 7.0039 1.2188 1.8594 0.4375 3.332 1.8594 3.8398 3.6992 0.21875 1.8867-0.49219 3.7617-1.9062 5.0312-1.7148 1.4531-3.7734 2.4453-5.9844 2.875-4.4336 1.0547-9.0469 1.1445-13.52 0.26562-4.2734-0.80078-8.3477-2.4414-11.984-4.8203 3.2539-1.0273 6.3008-2.6211 8.9961-4.7109zm26.781 2.5352v0.003906c0.19141-2.5703-1.1406-5.0078-3.4062-6.2383-2.3203-1.1719-4.8477-1.875-7.4414-2.0742-5.2891-0.75391-10.68 0.17188-15.414 2.6484-0.57422 0.32422-1.1484 0.67188-1.75 1.0664l-0.6875 0.51953c-1.7344-1.9023-3.9531-3.2969-6.418-4.0352-1.6289-0.46094-3.3008-0.75781-4.9883-0.88281-0.058593-0.19531-0.16016-0.37109-0.29688-0.51953-2.0703-2.1328-3.8125-4.5586-5.168-7.2031v-0.16797c-0.12109-0.23828-0.21484-0.48828-0.28125-0.74219 0.37109-0.20703 0.78125-0.32031 1.2031-0.33594h0.28125c1.3164-0.18359 2.8008-0.32422 4.3711-0.42187 1.5703-0.097657 3.3477-0.125 5.0039-0.14063h0.14063c2.2344 1.5234 4.6602 2.7383 7.2188 3.6172 2.7734 0.90234 5.7148 1.1562 8.6016 0.74219 0.99609-0.15234 1.9883-0.36328 2.9414-0.57422 0.95312-0.21094 1.9766-0.43359 2.8867-0.57422h0.003906c0.13672 0.035156 0.28125 0.035156 0.41797 0 0.63672-0.085938 1.2773-0.125 1.9219-0.12891 3.1719 0.21875 6.2734 1.0273 9.1484 2.3828 1.6758 0.69922 3.3867 1.2969 5.1289 1.793 2.7305 0.85156 5.6484 0.91016 8.4102 0.16797 2.0664-0.82422 3.9297-2.0859 5.4648-3.6992l0.79688-0.74219c0.86328-0.83203 1.8828-1.4805 3-1.9062 1.0195-0.3125 2.1016-0.38672 3.1523-0.21094 2.3047 0.57422 4.4375 1.6797 6.2383 3.2266 0.44922 0.35156 0.88281 0.69922 1.3164 1.0781h0.054687c-2.6484 0.53125-5.0469 1.9258-6.8242 3.9648-1.3281 1.5234-2.5234 3.1602-3.5742 4.8906-0.66016 1.0352-1.4023 2.0898-2.0898 3.082h0.003907c-3.1914 4.1836-8.0625 6.7461-13.312 7.0078-2.5977 0.15234-5.1953-0.25391-7.625-1.1914 0.9375-1.2852 1.4805-2.8125 1.5703-4.3984zm1.9492 5.7188h-0.30859z"/>
 <path d="m85.16 45.949c0 2.0742-3.1133 2.0742-3.1133 0s3.1133-2.0742 3.1133 0"/>
<text x="0.0" y="117.5" font-size="5.0" font-weight="bold" font-family="Arbeit Regular, Helvetica, Arial-Unicode, Arial, Sans-serif" fill="#000000">Created by Cl&#233;ment Branger</text><text x="0.0" y="122.5" font-size="5.0" font-weight="bold" font-family="Arbeit Regular, Helvetica, Arial-Unicode, Arial, Sans-serif" fill="#000000">from Noun Project</text></svg>