<svg xmlns="http://www.w3.org/2000/svg" xmlns:xlink="http://www.w3.org/1999/xlink" version="1.1" x="0px" y="0px" viewBox="0 0 100 125" enable-background="new 0 0 100 100" xml:space="preserve"><path fill="#000000" d="M42.324,92.229l16.234-9.383l16.23-9.365c0.018-0.01,0.028-0.027,0.044-0.039  c0.029-0.021,0.057-0.043,0.08-0.07c0.021-0.023,0.036-0.05,0.052-0.077s0.031-0.054,0.042-0.085  c0.011-0.033,0.016-0.066,0.021-0.101c0.002-0.021,0.012-0.039,0.012-0.061V54.315V35.566v-18.73c0-0.011-0.006-0.02-0.006-0.029  c-0.002-0.022-0.004-0.043-0.009-0.064c-0.004-0.023-0.01-0.045-0.018-0.067c-0.008-0.021-0.016-0.042-0.026-0.062  c-0.004-0.009-0.004-0.019-0.009-0.027s-0.014-0.014-0.019-0.021c-0.013-0.019-0.025-0.035-0.04-0.052  c-0.016-0.019-0.032-0.034-0.05-0.05s-0.034-0.028-0.053-0.041c-0.009-0.005-0.013-0.014-0.021-0.019l-16.23-9.366  c-0.017-0.01-0.036-0.011-0.053-0.018c-0.035-0.016-0.069-0.029-0.107-0.036c-0.027-0.005-0.054-0.005-0.081-0.006  c-0.036-0.001-0.071,0-0.106,0.008c-0.032,0.006-0.061,0.019-0.091,0.03c-0.021,0.009-0.042,0.01-0.062,0.021l-16.234,9.366  c-0.008,0.005-0.013,0.013-0.021,0.018c-0.02,0.013-0.037,0.026-0.055,0.042s-0.033,0.031-0.049,0.05  c-0.015,0.017-0.027,0.033-0.039,0.052c-0.006,0.008-0.015,0.013-0.02,0.021s-0.005,0.019-0.009,0.027  c-0.011,0.02-0.019,0.04-0.026,0.062c-0.008,0.022-0.014,0.044-0.018,0.067c-0.005,0.021-0.007,0.042-0.009,0.064  c0,0.01-0.006,0.019-0.006,0.029v18.73v18.461l-15.973,9.221c-0.01,0.005-0.014,0.015-0.023,0.021  c-0.018,0.012-0.033,0.023-0.049,0.037c-0.019,0.017-0.035,0.033-0.052,0.052c-0.015,0.017-0.027,0.033-0.04,0.052  c-0.005,0.008-0.014,0.013-0.019,0.021s-0.005,0.019-0.009,0.027c-0.011,0.02-0.019,0.04-0.026,0.062  c-0.008,0.022-0.014,0.044-0.018,0.067c-0.005,0.021-0.007,0.042-0.009,0.064c0,0.01-0.006,0.019-0.006,0.029v18.732  c0,0.021,0.01,0.04,0.012,0.061c0.005,0.034,0.01,0.067,0.021,0.101c0.011,0.03,0.026,0.058,0.042,0.086  c0.016,0.027,0.031,0.053,0.052,0.076c0.023,0.027,0.051,0.049,0.08,0.07c0.016,0.012,0.026,0.029,0.044,0.039l16.223,9.383  c0.001,0,0.002,0,0.002,0.001c0.008,0.004,0.016,0.003,0.023,0.007c0.068,0.035,0.143,0.06,0.225,0.06s0.156-0.024,0.225-0.06  c0.008-0.004,0.016-0.003,0.023-0.007C42.322,92.229,42.323,92.229,42.324,92.229z M58.309,8.047l15.23,8.789l-15.23,8.788  l-15.234-8.788L58.309,8.047z M42.574,73.336l15.234-8.79v17.579L42.574,90.93V73.336z M74.039,54.027l-15.23,8.788V45.238  l15.23-8.806V54.027z M74.039,35.278l-15.23,8.806V26.489l15.23-8.788V35.278z M57.809,44.084l-15.234-8.806V17.701l15.234,8.788  V44.084z M42.574,36.433l15.234,8.806v17.577l-15.234-8.788V36.433z M58.809,63.969l15.23-8.788V72.76l-15.23,8.788V63.969z   M42.074,54.893l15.234,8.788l-15.234,8.79l-15.224-8.79L42.074,54.893z M26.352,64.546l15.223,8.79V90.93l-15.223-8.805V64.546z"/><text x="0" y="115" fill="#000000" font-size="5px" font-weight="bold" font-family="'Helvetica Neue', Helvetica, Arial-Unicode, Arial, Sans-serif">Created by Lluisa Iborra</text><text x="0" y="120" fill="#000000" font-size="5px" font-weight="bold" font-family="'Helvetica Neue', Helvetica, Arial-Unicode, Arial, Sans-serif">from the Noun Project</text></svg>