<svg xmlns="http://www.w3.org/2000/svg" viewBox="0 0 64 80" x="0px" y="0px"><title>a</title><g data-name="14 Testimonial Meter"><path d="M15.39,19.662A1,1,0,0,0,15.3,18.25a5.116,5.116,0,0,0-6.606,0,1,1,0,1,0,1.322,1.5,3.066,3.066,0,0,1,3.961,0A1,1,0,0,0,15.39,19.662Z"/><path d="M52,25A9,9,0,0,0,57.146,8.623,8.871,8.871,0,0,0,52,7a9.011,9.011,0,0,0-9,9c0,.046.009.09.01.136a20.759,20.759,0,0,0-2.955-1.525c-.007,0-.011-.009-.018-.012s-.018,0-.026-.005a20.928,20.928,0,0,0-16.022,0c-.008,0-.017,0-.026.005s-.011.009-.018.012a20.759,20.759,0,0,0-2.955,1.525c0-.046.01-.09.01-.136A9,9,0,0,0,4.623,10.854,8.874,8.874,0,0,0,3,16a8.955,8.955,0,0,0,10.073,8.93c-.157.328-.307.658-.447.992-.007.016-.021.026-.027.041s0,.035-.01.052A20.948,20.948,0,0,0,23,52.959V55a2,2,0,0,0,2,2H39a2,2,0,0,0,2-2V52.959A20.949,20.949,0,0,0,51.412,26.017c-.006-.017,0-.036-.011-.054s-.021-.026-.028-.042c-.14-.335-.289-.665-.447-.993A8.94,8.94,0,0,0,52,25ZM52,9a6.894,6.894,0,0,1,4,1.261,6.993,6.993,0,0,1-6.673,12.2,6.906,6.906,0,0,1-3.071-2.472A7.03,7.03,0,0,1,45,16,7.008,7.008,0,0,1,52,9ZM5,16a6.894,6.894,0,0,1,1.261-4A7,7,0,0,1,19,16a6.735,6.735,0,0,1-.291,1.983A6.928,6.928,0,0,1,16,21.742a7.276,7.276,0,0,1-1.33.734A6.9,6.9,0,0,1,12,23,7.008,7.008,0,0,1,5,16ZM39,55H25V49l14,0v6Zm2-4.266V49a2,2,0,0,0-2-2H25a2,2,0,0,0-2,2v1.734a19.013,19.013,0,0,1-8.915-23.072l1.826.756a1,1,0,1,0,.766-1.848l-1.814-.751c.267-.555.552-1.1.874-1.631.135-.063.261-.135.391-.2.086-.044.174-.086.258-.133.262-.147.515-.3.754-.47a9.042,9.042,0,0,0,1.069-.878c.022-.021.045-.039.067-.06.128-.124.248-.255.367-.386l.63.629a1,1,0,0,0,1.414-1.414l-.854-.854c.031-.053.06-.108.089-.162s.051-.092.075-.139a8.747,8.747,0,0,0,.494-1.163c.011-.033.03-.064.041-.1a18.956,18.956,0,0,1,3.287-2l.751,1.815a1,1,0,0,0,1.848-.766l-.755-1.823A18.836,18.836,0,0,1,31,15.04V17a1,1,0,0,0,2,0V15.04a18.836,18.836,0,0,1,5.337,1.048l-.755,1.823a1,1,0,0,0,1.848.766l.751-1.815a19,19,0,0,1,3.286,2c.012.035.03.067.042.1a8.489,8.489,0,0,0,.428,1.034c.023.048.05.093.075.141.05.1.1.2.155.291l-.852.847a1,1,0,1,0,1.41,1.418l.631-.627.051.056c.1.108.212.2.316.3.192.188.382.377.589.547.134.11.28.2.42.3.193.14.384.282.588.406.155.094.319.173.48.257s.3.177.466.25c.321.53.605,1.078.871,1.634l-1.814.751a1,1,0,1,0,.766,1.848l1.825-.756A19.009,19.009,0,0,1,41,50.734Z"/><circle cx="9" cy="14" r="1.005"/><circle cx="15" cy="14" r="1.005"/><path d="M48.607,18.339A1,1,0,0,0,48.7,19.75a4.989,4.989,0,0,0,6.606,0,1,1,0,0,0-1.323-1.5,3.067,3.067,0,0,1-3.961,0A1,1,0,0,0,48.607,18.339Z"/><circle cx="49" cy="14" r="1.005"/><circle cx="55" cy="14" r="1.005"/><path d="M41.167,26.013l-2.79.46a1,1,0,0,0-.649.4l-6.635,9.245a3.991,3.991,0,0,0,1.56,7.824h0a3.994,3.994,0,0,0,3.311-4.322L42.6,30.373a1,1,0,0,0,.174-.746l-.46-2.79A1,1,0,0,0,41.167,26.013ZM32.328,41.974a2,2,0,1,1-.648-3.954,1.065,1.065,0,0,0,.112-.006,1.941,1.941,0,0,1,.3-.007c.06,0,.12.008.18.016s.109.016.163.027.12.029.178.047.1.036.154.057.108.046.16.073.1.057.151.089.092.058.136.091.1.082.145.126.074.066.108.1a1.919,1.919,0,0,1,.133.165c.027.036.057.07.082.108a2.248,2.248,0,0,1,.114.211c.016.034.037.066.052.1a2.074,2.074,0,0,1,.111.345.858.858,0,0,0,.038.1l-.019.006A2.006,2.006,0,0,1,32.328,41.974Zm2.746-4.54c-.036-.044-.078-.081-.116-.123s-.1-.1-.148-.156a3.82,3.82,0,0,0-.372-.324c-.048-.038-.1-.076-.146-.112a4.135,4.135,0,0,0-.467-.278c-.069-.036-.14-.067-.212-.1-.055-.024-.107-.054-.163-.075l5.661-7.889,1.4-.23.23,1.395Z"/><path d="M34,51H30a1,1,0,0,0,0,2h4a1,1,0,0,0,0-2Z"/></g><text x="0" y="79" fill="#000000" font-size="5px" font-weight="bold" font-family="'Helvetica Neue', Helvetica, Arial-Unicode, Arial, Sans-serif">Created by Berkah Icon</text><text x="0" y="84" fill="#000000" font-size="5px" font-weight="bold" font-family="'Helvetica Neue', Helvetica, Arial-Unicode, Arial, Sans-serif">from the Noun Project</text></svg>