<svg xmlns="http://www.w3.org/2000/svg" version="1.1" viewBox="-5.0 -10.0 110.0 135.0">
 <path d="m27.242 94.199c-0.058594 0-0.17578 0-0.23438-0.058594-0.41016-0.11719-0.64453-0.41016-0.64453-0.82031l-3.0469-22.789h-2.5195c-7.3242 0-11.188-6.3281-12.359-12.184l-8.2617-39.895c-0.58594-2.6953 0.23438-5.4492 2.1094-7.793 2.4023-2.9883 6.4453-4.8633 10.309-4.8633h74.75c3.9844 0 7.9102 1.875 10.426 4.8633 1.875 2.3438 2.6367 5.0391 2.0508 7.7344l-8.1445 39.953c-1.5234 7.5586-6.3281 12.184-12.477 12.184h-31.047l-20.152 23.258c-0.17578 0.35156-0.41016 0.41016-0.76172 0.41016zm-14.645-86.41c-3.2227 0-6.7383 1.6406-8.7891 4.1602-1.0547 1.2891-2.2852 3.5156-1.6992 6.2109l8.2031 39.953c1.0547 5.0977 4.3359 10.602 10.484 10.602h3.457c0.46875 0 0.87891 0.35156 0.9375 0.82031l2.8711 21.5 19.039-21.969c0.17578-0.23438 0.46875-0.35156 0.70313-0.35156h31.516c7.7344 0 10.016-8.0859 10.484-10.602l8.1445-39.953c0.58594-2.6953-0.58594-4.8047-1.6406-6.0938-2.0508-2.5781-5.5078-4.1602-8.8477-4.1602h-74.867v-0.11719z" fill-rule="evenodd"/>
 <path d="m79.145 64.676h-7.793c-0.58594 0-0.99609-0.41016-0.99609-0.99609 0-0.52734 0.41016-0.9375 0.99609-0.9375h7.793c3.1641 0 4.3945-4.5117 4.6289-5.9766l1.1719-5.332c0.058594-0.52734 0.64453-0.9375 1.1133-0.76172 0.46875 0.11719 0.87891 0.64453 0.76172 1.1719l-1.1719 5.332c-0.23438 1.8164-1.7578 7.5-6.5039 7.5zm-71.527-43.293c-0.46875 0-0.87891-0.29297-0.9375-0.82031l-0.64453-3.2227c-0.17578-0.87891 0.058594-1.875 0.70312-2.7539 1.2891-1.6406 4.1016-2.6953 5.8008-2.6953h3.3398c0.52734 0 0.9375 0.41016 0.9375 0.9375 0 0.58594-0.41016 0.99609-0.9375 0.99609h-3.3398c-1.2305 0-3.3398 0.87891-4.2188 1.9336-0.52734 0.58594-0.41016 0.99609-0.35156 1.1719l0.64453 3.3398c0.11719 0.52734-0.23438 1.0547-0.70312 1.1133h-0.29297zm84.887-0.9375h-0.17578c-0.46875-0.11719-0.87891-0.70312-0.70312-1.1719l0.46875-2.2852c0-0.17578 0.058594-0.52734-0.41016-1.1133-0.87891-1.1719-2.9883-1.9922-4.2188-1.9922h-5.1562c-0.52734 0-0.9375-0.35156-0.9375-0.9375 0-0.58594 0.41016-0.99609 0.9375-0.99609h5.1562c1.6992 0 4.3945 1.0547 5.7422 2.6953 0.76172 0.87891 0.99609 1.8164 0.82031 2.7539l-0.46875 2.2852c-0.23438 0.41016-0.64453 0.76172-1.0547 0.76172z" fill-rule="evenodd"/>
 <path d="m47.746 70.59h-13.18c-0.58594 0-0.99609-0.41016-0.99609-0.9375 0-0.58594 0.41016-0.99609 0.99609-0.99609h13.121c0.52734 0 0.9375 0.41016 0.9375 0.99609 0 0.52734-0.41016 0.9375-0.87891 0.9375z" fill-rule="evenodd"/>
 <path d="m49.973 59.461c-12.652 0-22.965-10.25-22.965-22.906 0-12.711 12.535-22.965 22.965-22.965 10.367 0 22.906 10.25 22.906 22.965 0 12.652-10.25 22.906-22.906 22.906zm0-43.82c-9.4922 0-21.031 9.668-21.031 20.973 0 11.539 9.4336 20.973 21.031 20.973 11.539 0 20.973-9.4336 20.973-20.973 0-11.305-11.539-20.973-20.973-20.973z" fill-rule="evenodd"/>
 <path d="m62.391 28.648c-0.35156 0-0.64453-0.17578-0.82031-0.52734-0.70312-1.2891-2.0508-2.1094-3.5156-2.1094-1.5234 0-2.8125 0.82031-3.5742 2.1094-0.23438 0.52734-0.87891 0.70312-1.2891 0.41016-0.46875-0.23438-0.64453-0.87891-0.41016-1.2891 1.0547-1.9336 3.1055-3.1055 5.2734-3.1055 2.2266 0 4.1602 1.1719 5.2148 3.1055 0.23438 0.52734 0.11719 1.0547-0.41016 1.2891-0.11719 0.11719-0.29297 0.11719-0.46875 0.11719z" fill-rule="evenodd"/>
 <path d="m46.34 28.648c-0.29297 0-0.64453-0.17578-0.76172-0.52734-0.76172-1.2891-2.168-2.1094-3.6328-2.1094-1.4648 0-2.8125 0.82031-3.5742 2.1094-0.23438 0.52734-0.87891 0.70312-1.2891 0.41016-0.46875-0.23438-0.64453-0.87891-0.41016-1.2891 1.0547-1.9336 3.0469-3.1055 5.2148-3.1055 2.2266 0 4.2188 1.2305 5.2734 3.1055 0.29297 0.52734 0.11719 1.0547-0.41016 1.2891-0.058594 0.11719-0.23438 0.11719-0.41016 0.11719z" fill-rule="evenodd"/>
 <path d="m49.973 49.035c-6.5625 0-12.008-5.0977-12.418-11.715 0-0.23437 0.11719-0.52734 0.29297-0.70312 0.11719-0.17578 0.41016-0.35156 0.70312-0.35156h22.789c0.23438 0 0.46875 0.11719 0.70312 0.35156 0.17578 0.17578 0.29297 0.46875 0.29297 0.70312-0.35156 6.5039-5.8008 11.715-12.359 11.715zm-10.25-10.777c0.76172 5.0391 5.0977 8.7891 10.25 8.7891 5.1562 0 9.4922-3.8672 10.309-8.7891h-20.562z" fill-rule="evenodd"/>
 <path d="m42.531 46.281c-0.23438 0-0.58594-0.058594-0.70312-0.29297-0.35156-0.41016-0.35156-1.0547 0.058594-1.4062 2.2266-1.875 5.0391-2.9297 7.9688-2.9297 2.9297 0 5.8008 1.0547 7.9688 2.9297 0.41016 0.35156 0.52734 0.99609 0.11719 1.4062-0.35156 0.41016-0.99609 0.46875-1.4062 0.058594-1.875-1.6406-4.2188-2.4609-6.7383-2.4609s-4.9219 0.9375-6.7383 2.4609c0 0.17578-0.29297 0.23438-0.52734 0.23438z" fill-rule="evenodd"/>
<text x="0.0" y="117.5" font-size="5.0" font-weight="bold" font-family="Arbeit Regular, Helvetica, Arial-Unicode, Arial, Sans-serif" fill="#000000">Created by pexel verse</text><text x="0.0" y="122.5" font-size="5.0" font-weight="bold" font-family="Arbeit Regular, Helvetica, Arial-Unicode, Arial, Sans-serif" fill="#000000">from Noun Project</text></svg>