<svg xmlns="http://www.w3.org/2000/svg" version="1.1" viewBox="-5.0 -10.0 110.0 135.0">
 <path d="m19.246 65.52h-1.3125c-4.3789-0.003906-7.9258-3.5508-7.9336-7.9297v-10.582c0-2.4844 2.0156-4.5 4.5-4.5h5.4492c0.28906 0 0.51172-0.27734 0.67188-0.52344l8.1289-12.57c0.5-0.89062 1.4297-1.457 2.4492-1.4922h25.684c0.78125 0.015625 1.5234 0.35156 2.0586 0.92188l13.496 13.375c0.14844 0.15625 0.34375 0.26562 0.55859 0.30859l12.805 2.6016c2.4688 0.51562 4.2305 2.707 4.1992 5.2305v10.664c0 2.4883-2.0156 4.5-4.5 4.5h-4.6523c-1.3633 3.9258-5.0625 6.5547-9.2148 6.5547-4.1562 0-7.8516-2.6289-9.2188-6.5547h-24.734c-1.3633 3.9258-5.0625 6.5547-9.2148 6.5547-4.1562 0-7.8555-2.6289-9.2188-6.5547zm68.625-13.035h-2.8203c-2.5078 0.015625-4.7188-1.6445-5.3984-4.0625l-0.73047-2.5234-6.3477-1.2891c-0.62109-0.12109-1.1914-0.42578-1.6328-0.88281l-13.496-13.371c-0.14062-0.17578-0.34375-0.28125-0.5625-0.30078h-25.684c-0.29297 0-0.51172 0.27734-0.67188 0.52344l-8.1289 12.566c-0.49219 0.89844-1.4258 1.4648-2.4531 1.4922h-5.4453c-1.3047 0.007812-2.3633 1.0664-2.3672 2.3711v9.5508l8.3008 0.24609c1.8789-2.7266 5.0156-4.3164 8.3242-4.2188 3.3125 0.097656 6.3477 1.8711 8.0625 4.7031l26.051 0.77734h-0.003906c1.6836-3.4492 5.2266-5.5938 9.0625-5.4805 3.8359 0.11328 7.25 2.4648 8.7227 6.0078l7.2266 0.21484zm-6.6055-6.1094 0.42188 1.457c0.41406 1.5078 1.7969 2.5469 3.3633 2.5273h2.8203c0.039062-1.5156-1.0156-2.8438-2.5-3.1484zm-61.93 12.523-7.1016-0.21094c0.53125 2.7305 2.918 4.7031 5.6992 4.7109h0.83594c-0.16797-1.5234 0.023438-3.0664 0.56641-4.5zm42.789 1.2734-24.344-0.72656h-0.003906c0.39453 1.2773 0.52344 2.6211 0.37891 3.9531h23.781c-0.11328-1.0781-0.050781-2.168 0.18359-3.2266zm25.746 0.76172-6.6172-0.19531v0.003907c0.14453 0.875 0.16797 1.7695 0.070313 2.6562h4.1758c1.3047-0.003907 2.3633-1.0625 2.3672-2.3672zm-42.637-11.996c-0.58594 0-1.0625-0.47656-1.0625-1.0664s0.47656-1.0664 1.0625-1.0664h3.4102c0.58984 0 1.0664 0.47656 1.0664 1.0664s-0.47656 1.0664-1.0664 1.0664zm26.398 8.9727 0.003907-0.003906c1.7852 0.003906 3.3984 1.0781 4.082 2.7305 0.68359 1.6484 0.30469 3.5508-0.96094 4.8125-1.2617 1.2656-3.1641 1.6406-4.8125 0.95703-1.6523-0.68359-2.7266-2.293-2.7266-4.0781 0-2.4414 1.9766-4.418 4.418-4.4219zm1.6172 2.8008 0.003906-0.003907c-0.65625-0.65234-1.6406-0.84766-2.4961-0.49609-0.85547 0.35547-1.4102 1.1914-1.4102 2.1172s0.55469 1.7578 1.4102 2.1133c0.85547 0.35547 1.8398 0.16016 2.4961-0.49609 0.42969-0.42969 0.67188-1.0117 0.67188-1.6172 0-0.60938-0.24219-1.1914-0.67188-1.6211zm3.7734-3.7734c-2.1797-2.1797-5.457-2.832-8.3047-1.6523-2.8477 1.1797-4.7031 3.957-4.7031 7.0391s1.8555 5.8633 4.7031 7.043c2.8477 1.1797 6.125 0.52734 8.3047-1.6523 2.9766-2.9766 2.9766-7.8008 0-10.777zm-48.562 0.96875h0.003906c1.7852 0 3.3984 1.0781 4.082 2.7266 0.68359 1.6523 0.30469 3.5547-0.96094 4.8164-1.2617 1.2656-3.1641 1.6406-4.8125 0.95703-1.6523-0.68359-2.7305-2.293-2.7305-4.082 0.003906-2.4375 1.9805-4.4141 4.4219-4.418zm1.6211 2.8008h0.003907c-0.65625-0.65625-1.6406-0.85156-2.4961-0.49609-0.85547 0.35156-1.4141 1.1875-1.4141 2.1133s0.55859 1.7617 1.4141 2.1172c0.85547 0.35547 1.8398 0.15625 2.4961-0.49609 0.89062-0.89453 0.89062-2.3438 0-3.2383zm3.7695-3.7734c-2.1797-2.1797-5.457-2.832-8.3047-1.6523s-4.7031 3.9609-4.7031 7.043 1.8555 5.8594 4.7031 7.0391c2.8477 1.1797 6.125 0.52734 8.3047-1.6523 2.9766-2.9766 2.9766-7.8008 0-10.777zm5.7773-23.055-5.4141 0.003906c-0.28125 0-0.54688 0.375-0.72656 0.62891l-5.5078 7.7305c-0.14453 0.19922 0.32031 0.67969 0.73828 0.67969l10.914-0.054687h0.003907c0.35547-0.007813 0.64453-0.29688 0.64062-0.65625v-7.6719c0-0.35937-0.28906-0.65234-0.64844-0.65234zm-5.4102-2.1289h5.4102c1.5352 0.003906 2.7812 1.25 2.7812 2.7852v7.6758c-0.003906 1.5273-1.2383 2.7656-2.7656 2.7773l-10.914 0.054688c-2.0859 0.007812-3.6992-2.3164-2.4805-4.0352l5.5117-7.7305c0.50391-0.89453 1.4297-1.4727 2.457-1.5273zm13.371 11.117 15.57-0.1875c0.50391-0.007813 0.91406-0.66406 0.60156-0.96875l-7.6328-7.4258h0.003906c-0.15234-0.18359-0.36719-0.30469-0.60156-0.33984h-7.9414c-0.35938 0-0.64844 0.29297-0.65234 0.65234v7.6133c0 0.17187 0.066406 0.33984 0.1875 0.46484 0.125 0.12109 0.29297 0.19141 0.46484 0.19141zm15.602 1.9336-15.57 0.1875h-0.003906c-0.74219 0.007813-1.457-0.28125-1.9844-0.80078-0.52734-0.52344-0.82422-1.2344-0.82031-1.9766v-7.6094c0-1.5352 1.2461-2.7812 2.7812-2.7812h7.9453c0.79297 0.015626 1.5469 0.35938 2.082 0.94531l7.6289 7.4258c1.6914 1.6484 0.32422 4.582-2.0586 4.6133z"/>
<text x="0.0" y="117.5" font-size="5.0" font-weight="bold" font-family="Arbeit Regular, Helvetica, Arial-Unicode, Arial, Sans-serif" fill="#000000">Created by HRF07</text><text x="0.0" y="122.5" font-size="5.0" font-weight="bold" font-family="Arbeit Regular, Helvetica, Arial-Unicode, Arial, Sans-serif" fill="#000000">from Noun Project</text></svg>