<svg xmlns="http://www.w3.org/2000/svg" xmlns:xlink="http://www.w3.org/1999/xlink" version="1.1" x="0px" y="0px" viewBox="0 0 1000 1250" enable-background="new 0 0 1000 1000" xml:space="preserve"><path d="M218.395,634.683h122.438V512.244H218.395V634.683z M260.195,610.195l56.149-56.149v56.149H260.195z M299.031,536.732  l-56.149,56.148v-56.148H299.031z M218.395,487.757h122.438V365.319H218.395V487.757z M242.882,389.807h73.463v73.462h-73.463  V389.807z M218.395,340.832h122.438V218.395H218.395V340.832z M242.882,242.882h73.463v73.463h-73.463V242.882z M365.319,487.757  h122.438V365.319H365.319V487.757z M407.121,463.27l56.149-56.149v56.149H407.121z M445.956,389.807l-56.149,56.149v-56.149H445.956  z M365.319,340.832h122.438V218.395H365.319V340.832z M389.807,242.882h73.462v73.463h-73.462V242.882z M512.244,487.757h122.438  V365.319H512.244V487.757z M554.046,463.27l56.149-56.149v56.149H554.046z M592.881,389.807l-56.148,56.149v-56.149H592.881z   M512.244,340.832h122.438V218.395H512.244V340.832z M536.732,242.882h73.463v73.463h-73.463V242.882z M659.17,218.395v122.438  h122.438V218.395H659.17z M739.807,242.882l-56.149,56.149v-56.149H739.807z M700.971,316.345l56.149-56.149v56.149H700.971z   M365.319,512.244h122.438v122.438H365.319V512.244z M512.244,512.244h122.438v122.438H512.244V512.244z M659.17,512.244h122.438  v122.438H659.17V512.244z M218.395,659.17h122.438v122.438H218.395V659.17z M365.319,659.17h122.438v122.438H365.319V659.17z   M512.244,659.17h122.438v122.438H512.244V659.17z M659.17,659.17h122.438v122.438H659.17V659.17z M659.17,365.319h122.438v122.438  H659.17V365.319z"/><text x="0" y="1015" fill="#000000" font-size="5px" font-weight="bold" font-family="'Helvetica Neue', Helvetica, Arial-Unicode, Arial, Sans-serif">Created by rasendria</text><text x="0" y="1020" fill="#000000" font-size="5px" font-weight="bold" font-family="'Helvetica Neue', Helvetica, Arial-Unicode, Arial, Sans-serif">from the Noun Project</text></svg>