<svg xmlns="http://www.w3.org/2000/svg" xmlns:xlink="http://www.w3.org/1999/xlink" version="1.1" x="0px" y="0px" viewBox="0 0 99 123.75" style="enable-background:new 0 0 99 99;" xml:space="preserve"><g><path d="M85.6,31c-0.3-1.3-1.3-2.4-2.5-3c-5.5-2.7-12.1-5.1-20.7-7.6c-0.1,0-1.1-0.1-1.1-0.1c-2.5-0.3-6.4-0.1-10.7,0.6l-1.3,0.2   c-6.1,1.1-22.3,4-27.1,7.3c-2.2,1.4-2.9,4.2-1.7,6.4c0.7,1.2,1.8,2.1,3.1,2.4c1.2,0.3,2.5,0.1,3.6-0.5c0.2-0.1,0.3-0.2,0.4-0.3   c3.9-2.4,14-3.4,16.1-3.6c0.5-0.1,0.9,0.3,1.1,0.5c2.8,3.7,4,6.7,3.5,8.8C35.8,44.8,27.9,53,26.1,65.2v0.3c0,0-0.9,4.1,4.1,5.3   c0,0,3.3,0.9,4.9-2.4c0,0,0.5-1.4,0.5-1.6c1.6-8.7,7.5-13.9,17.6-15.7c0.1,0,0.2,0.1,0.3,0.1c3.4,0.6,1.7,17.6,0.7,27.8v0.2V80   c-0.2,3.4,3.5,4.1,3.9,4.1h0.6c0.4,0,4-0.1,4.9-3.8c3.4-14.6,5.1-25.7-1-45c0-0.2-0.1-0.4-0.2-0.6c-0.6-1.6-0.2-3,0.2-3.8   c0.3-0.4,1.2-0.4,1.2-0.3c5.8,1.8,10.7,3.7,14.9,5.7c1.5,0.7,3.3,0.6,4.7-0.3c0.8-0.5,1.4-1.1,1.8-1.9C85.8,33.3,85.9,32.1,85.6,31   z M83.4,33.2c-0.3,0.5-0.7,0.9-1.2,1.2c-0.8,0.5-1.8,0.6-2.7,0.1c-4.4-2.1-9.3-4-15.2-5.8c-0.3-0.1-0.4-0.2-0.7-0.2   c-1.1-0.1-2,0.3-2.7,1.2c0,0,0,0.1-0.1,0.1c-0.8,1.2-1.3,3.3-0.3,5.8l0.1,0.2c6,18.9,4.4,29.5,1.1,43.8c-0.7,2.8-3,2.5-3.4,2.5   c0,0-2.1-0.2-2.2-2v-0.8c1.7-17.5,2.5-29.1-2.3-30c-0.1-0.1-0.4-0.2-0.7-0.1C41.9,51.1,35.3,57,33.5,66.7v0.1   c-0.8,3.2-3.2,2.1-3.2,2.1c-0.1,0-0.3-0.1-0.3-0.1c-1.5-0.7-2.2-2-1.9-3.4c1.7-11.5,9.3-19.1,21.2-21.5c0.3-0.1,0.6-0.3,0.7-0.6   c1.1-2.8-0.1-6.6-3.6-11.2c-0.8-0.9-1.8-1.4-2.8-1.2c-3,0.3-13,1.3-17.1,4c-0.1,0-0.1,0.1-0.2,0.1c-0.6,0.4-1.4,0.5-2.1,0.3   c-0.8-0.2-1.5-0.7-1.9-1.5c-0.7-1.3-0.2-2.9,1.1-3.7c4.5-3,20.9-6,26.3-7l1.3-0.2c4.1-0.7,7.8-0.9,10.1-0.6c0,0,0.5,0,0.9,0.1   c8.4,2.5,14.9,4.8,20.3,7.5l0,0c0.7,0.3,1.2,1,1.4,1.7C83.9,32.1,83.8,32.7,83.4,33.2z"/><path d="M42.6,18.6c1.7,1.2,3.6,1.8,5.7,1.8c0.5,0,1.1,0,1.6-0.1c2.6-0.4,4.8-1.8,6.4-3.9c1.5-2.1,2.1-4.7,1.7-7.3   c-0.4-2.6-1.8-4.8-3.9-6.4C52,1.2,49.4,0.6,46.8,1c-5.3,0.9-9,5.9-8.1,11.2C39.1,14.8,40.5,17,42.6,18.6z M47.1,3   c0.4-0.1,0.8-0.1,1.3-0.1c1.6,0,3.2,0.5,4.5,1.5c1.7,1.2,2.8,3,3.1,5.1c0.3,2-0.1,4.1-1.4,5.8c-1.2,1.7-3,2.8-5.1,3.1   c-2,0.3-4.1-0.1-5.8-1.4c-1.7-1.2-2.8-3-3.1-5.1C40,7.7,42.9,3.7,47.1,3z"/><path d="M61.3,85.4h-1.9c-1.2,0-2.2-0.1-3-0.4l-21.8-6.5c-0.8-0.3-1.8-0.7-2.6-1.2l-1.7-1.1c-0.8-0.6-1.8-0.8-2.7-0.6   c-0.9,0.2-1.7,0.8-2.2,1.6c-0.5,0.8-0.7,1.8-0.5,2.7c0.2,0.9,0.8,1.8,1.5,2.2l1.7,1.1c0.7,0.5,1.4,0.9,2.2,1.2   C28.9,85,28,86.2,28,87.7c0,1.9,1.6,3.5,3.5,3.5c1.9,0,3.5-1.6,3.5-3.5c0-0.6-0.2-1.2-0.5-1.7l18.7,5.6c-1.2,0.6-2,1.8-2,3.1   c0,1.9,1.6,3.5,3.5,3.5s3.5-1.6,3.5-3.5c0-0.8-0.3-1.6-0.8-2.2c0.6,0.1,1.3,0.1,1.9,0.1h2.1c1,0,1.9-0.4,2.6-1.1   c0.6-0.7,1-1.6,0.9-2.5C64.8,87,63.3,85.4,61.3,85.4z M31.4,89.1c-0.8,0-1.5-0.7-1.5-1.5s0.7-1.5,1.5-1.5c0.8,0,1.5,0.7,1.5,1.5   S32.2,89.1,31.4,89.1z M54.6,96.2c-0.8,0-1.5-0.7-1.5-1.5s0.7-1.5,1.5-1.5h0.1h0.1c0.3,0,0.6,0.1,0.8,0.3c0.3,0.3,0.5,0.7,0.5,1.2   C56.1,95.5,55.4,96.2,54.6,96.2z M62.4,90.1c-0.3,0.3-0.7,0.5-1.1,0.5h-2.1c-1.5,0-2.9-0.2-4.3-0.6l-21.8-6.5   c-1.7-0.6-3-1.2-4.1-1.9l-1.7-1.2c-0.3-0.2-0.6-0.5-0.7-0.9s0-0.8,0.2-1.1c0,0,0-0.1,0.1-0.1c0.2-0.3,0.5-0.6,0.9-0.7   c0.1,0,0.2,0,0.3,0c0.3,0,0.6,0.1,0.9,0.3l1.8,1.1c1,0.6,2.1,1.2,3.1,1.5l22,6.5c1,0.3,2.2,0.5,3.6,0.5h1.9c0.8,0,1.5,0.7,1.5,1.7   C62.8,89.4,62.7,89.8,62.4,90.1z"/></g><text x="0" y="114" fill="#000000" font-size="5px" font-weight="bold" font-family="'Helvetica Neue', Helvetica, Arial-Unicode, Arial, Sans-serif">Created by Michael Appleford</text><text x="0" y="119" fill="#000000" font-size="5px" font-weight="bold" font-family="'Helvetica Neue', Helvetica, Arial-Unicode, Arial, Sans-serif">from the Noun Project</text></svg>