<svg xmlns="http://www.w3.org/2000/svg" xmlns:xlink="http://www.w3.org/1999/xlink" version="1.1" x="0px" y="0px" viewBox="0 0 100 125" enable-background="new 0 0 100 100" xml:space="preserve"><path d="M92,92H74c0-3.314,2.686-6,6-6h6C89.314,86,92,88.686,92,92z"/><path d="M68.3,77.274c0.601,3.251,3.719,5.407,6.99,4.808l8.851-1.636c3.255-0.602,5.412-3.72,4.811-6.992  c-2.62-14.16,0.455,2.47-9.819-53.101c-1.506-8.131-9.356-13.522-17.477-12.022l-41.3,7.638C12.205,17.475,6.825,25.29,8.333,33.444  c0,0,9.818,53.097,9.819,53.099c0.596,3.241,3.703,5.415,6.992,4.812l8.846-1.638c3.256-0.599,5.417-3.723,4.812-6.99l-1.091-5.901  l29.499-5.454L68.3,77.274z M83.053,74.545c-0.001,0-0.001,0-0.001,0l-8.851,1.638l-1.091-5.901l8.852-1.637l1.094,5.899  L83.053,74.545z M14.233,32.353c-0.906-4.887,2.32-9.581,7.213-10.484l41.3-7.638c4.839-0.901,9.578,2.301,10.487,7.213l7.636,41.3  c-8.356,1.545-54.073,9.999-59,10.91L14.233,32.353z M24.052,85.454l-1.091-5.899l8.849-1.636l1.09,5.899L24.052,85.454z"/><path d="M26.901,51.368l41.3-7.636c1.63-0.302,2.707-1.866,2.405-3.495l-3.272-17.7c-0.305-1.643-1.888-2.709-3.495-2.405  l-41.301,7.636c-1.635,0.303-2.705,1.875-2.405,3.497l3.274,17.698C23.707,50.587,25.263,51.667,26.901,51.368z M64.161,38.376  l-14.793,2.735L47.3,29.291l14.678-2.714L64.161,38.376z M41.4,30.382l2.069,11.821l-14.709,2.72l-2.183-11.801L41.4,30.382z"/><path d="M34.983,62.077c0.452,2.444-1.163,4.791-3.607,5.243c-2.444,0.452-4.791-1.163-5.243-3.607  c-0.452-2.444,1.163-4.791,3.607-5.243S34.531,59.633,34.983,62.077z"/><path d="M73.333,54.986c0.452,2.444-1.163,4.791-3.607,5.243c-2.444,0.452-4.791-1.163-5.243-3.607s1.163-4.791,3.607-5.243  S72.881,52.542,73.333,54.986z"/><path d="M58.583,57.712c0.302,1.63-0.775,3.195-2.404,3.497l-11.799,2.183c-1.633,0.298-3.194-0.771-3.497-2.404  c-0.302-1.63,0.775-3.195,2.404-3.497l11.799-2.183C56.725,55.005,58.279,56.085,58.583,57.712z"/><text x="0" y="115" fill="#000000" font-size="5px" font-weight="bold" font-family="'Helvetica Neue', Helvetica, Arial-Unicode, Arial, Sans-serif">Created by Ayub Irawan</text><text x="0" y="120" fill="#000000" font-size="5px" font-weight="bold" font-family="'Helvetica Neue', Helvetica, Arial-Unicode, Arial, Sans-serif">from the Noun Project</text></svg>