<svg xmlns="http://www.w3.org/2000/svg" data-name="Layer 1" viewBox="0 0 100 125" x="0px" y="0px"><path d="M68.23,48a14.86,14.86,0,0,0-26.51-7.9,9.37,9.37,0,0,0-2.56-.37A9.19,9.19,0,0,0,30,48.67a8.91,8.91,0,0,0-5,8h0a8.91,8.91,0,0,0,8.91,8.92H66.09A8.91,8.91,0,0,0,75,56.66h0A8.91,8.91,0,0,0,68.23,48Z"/><text x="0" y="115" fill="#000000" font-size="5px" font-weight="bold" font-family="'Helvetica Neue', Helvetica, Arial-Unicode, Arial, Sans-serif">Created by hibernut</text><text x="0" y="120" fill="#000000" font-size="5px" font-weight="bold" font-family="'Helvetica Neue', Helvetica, Arial-Unicode, Arial, Sans-serif">from the Noun Project</text></svg>