<svg xmlns="http://www.w3.org/2000/svg" version="1.1" viewBox="-5.0 -10.0 110.0 135.0">
 <path d="m50 2.5 11.898 20.609c0.62891 1.0938-0.15625 2.457-1.418 2.457h-2.9141l10.422 18.051c0.62891 1.0938-0.15625 2.457-1.418 2.457h-4.1953l11.707 20.277c0.62891 1.0938-0.15625 2.457-1.418 2.457h-20.105l0.56641 27.855c0.007812 0.46094-0.35938 0.83594-0.82031 0.83594h-4.6094c-0.45703 0-0.82812-0.375-0.82031-0.83594l0.56641-27.855h-20.105c-1.2617 0-2.0508-1.3633-1.418-2.457l11.707-20.277h-4.1953c-1.2617 0-2.0508-1.3633-1.418-2.457l10.422-18.051h-2.9141c-1.2617 0-2.0508-1.3633-1.418-2.457z" fill-rule="evenodd"/>
<text x="0.0" y="117.5" font-size="5.0" font-weight="bold" font-family="Arbeit Regular, Helvetica, Arial-Unicode, Arial, Sans-serif" fill="#000000">Created by yaikialdeli</text><text x="0.0" y="122.5" font-size="5.0" font-weight="bold" font-family="Arbeit Regular, Helvetica, Arial-Unicode, Arial, Sans-serif" fill="#000000">from Noun Project</text></svg>