<svg xmlns="http://www.w3.org/2000/svg" xmlns:xlink="http://www.w3.org/1999/xlink" version="1.1" x="0px" y="0px" viewBox="0 0 100 125" enable-background="new 0 0 100 100" xml:space="preserve"><g display="none"><rect x="-285.872" y="-93.875" display="inline" fill="#000000" width="1424.929" height="472.476"/></g><g><path d="M20.759,50.939h47.533l6.262,6.262H95l-6.59-6.59v-1.217l6.589-6.596H74.554l-6.262,6.262H20.76l0.007-7.81L5,49.989   l15.752,8.762L20.759,50.939z M18.881,49.059h-8.329l8.333-4.619L18.881,49.059z M10.574,50.939h8.305l-0.004,4.618L10.574,50.939z    M90.465,44.677l-4.378,4.383H70.949l4.383-4.383H90.465z M75.332,55.322l-4.383-4.383H86.08l4.383,4.383H75.332z"/></g><text x="0" y="115" fill="#000000" font-size="5px" font-weight="bold" font-family="'Helvetica Neue', Helvetica, Arial-Unicode, Arial, Sans-serif">Created by Oksana Latysheva</text><text x="0" y="120" fill="#000000" font-size="5px" font-weight="bold" font-family="'Helvetica Neue', Helvetica, Arial-Unicode, Arial, Sans-serif">from the Noun Project</text></svg>