<?xml version="1.0" encoding="utf-8"?>
<svg viewBox="0 0 500 500" xmlns="http://www.w3.org/2000/svg">
  <defs/>
  <path style="stroke: rgb(0, 0, 0); transform-origin: 293.265px 193.315px;" d="M 374.595 221.9 C 374.595 200.863 377.687 202.07 362.413 201.883 C 358.887 201.835 355.353 202.093 351.844 201.68 C 341.064 200.42 330.31 198.595 319.556 196.88 C 296.072 193.135 272.93 187.528 249.806 180.562 C 238.192 177.058 231.518 174.827 220.547 170.512 C 216.399 168.868 211.132 160.006 208.282 164.656 C 207.8 165.448 215.868 173.578 216.844 174.478 C 225.702 182.597 235.679 191.152 245.754 195.535 C 287.684 213.787 334.242 223.322 378.261 223.322" transform="matrix(-0.987688, 0.156435, -0.156435, -0.987688, -0.000029, 0.000003)"/>
</svg>