<?xml version="1.0" encoding="utf-8"?>
<svg version="1.1" x="0px" y="0px" viewBox="0 0 99 123.75" style="enable-background:new 0 0 99 99;" xmlns="http://www.w3.org/2000/svg">
  <defs/>
  <g>
    <path d="M 77.616 75.956 C 77.316 77.256 76.316 78.356 75.116 78.956 C 69.616 81.656 63.016 84.056 54.416 86.556 C 54.316 86.556 53.316 86.656 53.316 86.656 C 50.816 86.956 46.916 86.756 42.616 86.056 L 41.316 85.856 C 35.216 84.756 19.016 81.856 14.216 78.556 C 12.016 77.156 11.316 74.356 12.516 72.156 C 13.216 70.956 14.316 70.056 15.616 69.756 C 16.816 69.456 18.116 69.656 19.216 70.256 C 19.416 70.356 19.516 70.456 19.616 70.556 C 23.516 72.956 33.616 73.956 35.716 74.156 C 36.216 74.256 36.616 73.856 36.816 73.656 C 39.616 69.956 40.816 66.956 40.316 64.856 C 27.816 62.156 19.916 53.956 18.116 41.756 L 18.116 41.456 C 18.116 41.456 17.216 37.356 22.216 36.156 C 22.216 36.156 25.516 35.256 27.116 38.556 C 27.116 38.556 27.616 39.956 27.616 40.156 C 29.216 48.856 35.116 54.056 45.216 55.856 C 45.316 55.856 45.416 55.756 45.516 55.756 C 48.916 55.156 47.216 38.156 46.216 27.956 L 46.216 27.756 L 46.216 26.956 C 46.016 23.556 50.716 22.856 50.716 22.856 C 51.116 22.856 54.716 22.956 55.616 26.656 C 59.016 41.256 60.716 52.356 54.616 71.656 C 54.616 71.856 54.516 72.056 54.416 72.256 C 53.816 73.856 54.216 75.256 54.616 76.056 C 54.916 76.456 55.816 76.456 55.816 76.356 C 61.616 74.556 66.516 72.656 70.716 70.656 C 72.216 69.956 74.016 70.056 75.416 70.956 C 76.216 71.456 76.816 72.056 77.216 72.856 C 77.816 73.656 77.916 74.856 77.616 75.956 Z M 74.891 77.616 C 74.591 77.116 40.74 81.528 40.64 81.528 C 39.84 80.328 40.769 64.97 41.769 62.47 L 44.425 58.202 L 48.852 51.088 L 48.905 39.495 L 48.357 33.458 C 48.726 32.295 47.61 27.378 47.953 26.559 C 53.187 14.066 57.027 40.676 53.93 27.256 C 53.23 24.456 50.716 24.856 50.316 24.856 C 50.316 24.856 48.216 25.056 48.116 26.856 L 48.116 27.656 C 48.141 27.912 47.808 27.336 48.19 28.42 C 51.667 38.281 49.85 47.081 49.137 52.14 C 48.68 55.38 47.663 57.31 45.816 57.656 C 45.716 57.756 42.193 64.008 41.893 63.908 C 39.524 63.506 34.779 61.764 33.123 60.62 C 31.712 59.646 25.144 55.444 24.286 54.092 C 23.322 52.573 19.129 44.383 19.281 42.967 C 20.243 33.99 26.574 38.501 25.516 40.256 L 25.516 40.156 C 24.716 36.956 22.316 38.056 22.316 38.056 C 22.216 38.056 22.016 38.156 22.016 38.156 C 20.516 38.856 19.816 40.156 20.116 41.556 C 21.816 53.056 29.416 60.656 41.316 63.056 C 41.616 63.156 41.916 63.356 42.016 63.656 C 43.116 66.456 52.718 74.943 49.218 79.543 C 48.418 80.443 20.089 74.129 15.989 71.429 C 15.889 71.429 17.745 71.285 17.045 71.485 C 16.245 71.685 38.764 74.809 38.364 75.609 C 37.664 76.909 68.916 79.756 74.316 77.056 C 75.016 76.756 75.516 76.056 75.716 75.356 C 75.916 74.856 75.291 78.116 74.891 77.616 Z" style="" transform="matrix(-0.906307995319, -0.422619044781, 0.422619044781, -0.906307995319, 62.341588713427, 123.468847870919)"/>
    <path d="M 60.435 25.92 C 62.135 27.12 64.035 27.72 66.135 27.72 C 66.635 27.72 67.235 27.72 67.735 27.62 C 70.335 27.22 72.535 25.82 74.135 23.72 C 75.635 21.62 76.235 19.02 75.835 16.42 C 75.435 13.82 74.035 11.62 71.935 10.02 C 69.835 8.52 67.235 7.92 64.635 8.32 C 59.335 9.22 55.635 14.22 56.535 19.52 C 56.935 22.12 58.335 24.32 60.435 25.92 Z" style="stroke: rgb(186, 218, 85); stroke-width: 0px; fill-rule: nonzero; paint-order: fill;"/>
    <path d="M 61.3 85.4 L 59.4 85.4 C 58.2 85.4 57.2 85.3 56.4 85 L 34.6 78.5 C 33.8 78.2 32.8 77.8 32 77.3 L 30.3 76.2 C 29.5 75.6 28.5 75.4 27.6 75.6 C 26.7 75.8 25.9 76.4 25.4 77.2 C 24.9 78 24.7 79 24.9 79.9 C 25.1 80.8 25.7 81.7 26.4 82.1 L 28.1 83.2 C 28.8 83.7 29.5 84.1 30.3 84.4 C 28.9 85 28 86.2 28 87.7 C 28 89.6 29.6 91.2 31.5 91.2 C 33.4 91.2 35 89.6 35 87.7 C 35 87.1 34.8 86.5 34.5 86 L 53.2 91.6 C 52 92.2 51.2 93.4 51.2 94.7 C 51.2 96.6 52.8 98.2 54.7 98.2 C 56.6 98.2 58.2 96.6 58.2 94.7 C 58.2 93.9 57.9 93.1 57.4 92.5 C 58 92.6 58.7 92.6 59.3 92.6 L 61.4 92.6 C 62.4 92.6 63.3 92.2 64 91.5 C 64.6 90.8 65 89.9 64.9 89 C 64.8 87 63.3 85.4 61.3 85.4 Z" style="" transform="matrix(0.956305027008, -0.292371034622, 0.292371034622, 0.956305027008, -23.435514331814, 16.913949787962)"/>
  </g>
</svg>