<?xml version="1.0" encoding="utf-8"?>
<svg version="1.1" viewBox="-5.0 -10.0 110.0 135.0" xmlns="http://www.w3.org/2000/svg">
  <defs/>
  <path d="m6.5 66.391c0 0.82812-0.67188 1.5-1.5 1.5s-1.5-0.67188-1.5-1.5v-0.17969c0-0.82813 0.67188-1.5 1.5-1.5s1.5 0.67187 1.5 1.5zm87-54.934c0-0.82812 0.67188-1.5 1.5-1.5s1.5 0.67188 1.5 1.5v83.543c0 0.82812-0.67188 1.5-1.5 1.5h-83.543c-0.82812 0-1.5-0.67188-1.5-1.5v-4.9531h-4.957c-0.82812 0-1.5-0.67188-1.5-1.5v-15.922c0-0.82812 0.67188-1.5 1.5-1.5s1.5 0.67188 1.5 1.5v14.422h80.547v-80.547h-80.547v53.477c0 0.82813-0.67188 1.5-1.5 1.5s-1.5-0.67187-1.5-1.5v-54.977c0-0.82812 0.67188-1.5 1.5-1.5h83.547c0.82812 0 1.5 0.67188 1.5 1.5v83.547c0 0.82812-0.67188 1.5-1.5 1.5h-75.59v3.4531h80.543z"/>
  <text x="0.0" y="117.5" font-size="5.0" font-weight="bold" font-family="Arbeit Regular, Helvetica, Arial-Unicode, Arial, Sans-serif" fill="#000000" style="white-space: pre;"> </text>
  <text x="0.0" y="122.5" font-size="5.0" font-weight="bold" font-family="Arbeit Regular, Helvetica, Arial-Unicode, Arial, Sans-serif" fill="#000000" style="white-space: pre;"> </text>
  <text style="white-space: pre; fill: rgb(51, 51, 51); font-family: Arial, sans-serif; font-size: 28px;" x="88.84" y="67.259"> </text>
</svg>