<?xml version="1.0" encoding="utf-8"?>
<svg version="1.1" viewBox="-5.0 -10.0 110.0 135.0" xmlns="http://www.w3.org/2000/svg">
  <defs/>
  <path d="m48 31.609v-11.859c0-1.1055 0.89453-2 2-2s2 0.89453 2 2v11.859c0 1.1055-0.89453 2-2 2s-2-0.89453-2-2zm30.684 18.59c0.33984 0 0.68359-0.085938 0.99609-0.26953l7.8086-4.5117c0.95703-0.55469 1.2852-1.7773 0.73047-2.7305-0.55469-0.95703-1.7734-1.2852-2.7305-0.73047l-7.8086 4.5117c-0.95703 0.55469-1.2852 1.7773-0.73047 2.7305 0.37109 0.64453 1.043 1 1.7344 1zm-13.133-12.395c0.31641 0.18359 0.66016 0.26953 0.99609 0.26953 0.69141 0 1.3633-0.35938 1.7344-1l4.5117-7.8125c0.55078-0.95703 0.22656-2.1797-0.73047-2.7305s-2.1797-0.22656-2.7305 0.73047l-4.5117 7.8125c-0.55469 0.95312-0.22656 2.1758 0.73047 2.7305zm-53.051 7.6172 7.8203 4.5117c0.3125 0.18359 0.65625 0.26953 0.99609 0.26953 0.69141 0 1.3633-0.35938 1.7344-1 0.55078-0.95703 0.22266-2.1797-0.73438-2.7305l-7.8203-4.5117c-0.95703-0.55469-2.1797-0.22656-2.7305 0.73437-0.55078 0.95313-0.22266 2.1758 0.73438 2.7266zm19.219-8.3516c0.37109 0.64063 1.043 1 1.7344 1 0.33984 0 0.68359-0.085937 0.99609-0.26953 0.95703-0.55469 1.2852-1.7773 0.73047-2.7305l-4.5117-7.8125c-0.55078-0.95703-1.7734-1.2812-2.7305-0.73047-0.95703 0.55469-1.2852 1.7773-0.73047 2.7305zm63.281 25.68h-11.859c-1.1055 0-2 0.89453-2 2s0.89453 2 2 2h11.859c1.1055 0 2-0.89453 2-2s-0.89453-2-2-2zm-76.141 2c0-1.1055-0.89453-2-2-2h-11.859c-1.1055 0-2 0.89453-2 2s0.89453 2 2 2h11.859c1.1055 0 2-0.89453 2-2zm66.281 7.75c0 1.1055-0.89453 2-2 2h-66.277c-1.1055 0-2-0.89453-2-2s0.89453-2 2-2h7.7695c-0.42578-1.8711-0.66016-3.7969-0.66016-5.75 0-14.355 11.676-26.031 26.031-26.031 14.352 0 26.031 11.676 26.031 26.031 0 1.9531-0.23438 3.8789-0.66016 5.75h7.7695c1.1016 0 1.9961 0.89453 1.9961 2zm-13.875-2c0.50781-1.8555 0.76562-3.7852 0.76562-5.75 0-12.148-9.8828-22.031-22.031-22.031s-22.031 9.8828-22.031 22.031c0 1.9648 0.25781 3.8945 0.76562 5.75zm3.5781 7.75h-49.691c-1.1055 0-2 0.89453-2 2s0.89453 2 2 2h49.691c1.1055 0 2-0.89453 2-2s-0.89453-2-2-2z" style="fill: rgb(147, 175, 203); stroke: rgb(92, 130, 167);"/>
  <text x="0.0" y="117.5" font-size="5.0" font-weight="bold" font-family="Arbeit Regular, Helvetica, Arial-Unicode, Arial, Sans-serif" fill="#000000" style="white-space: pre;"> </text>
</svg>