<?xml version="1.0" encoding="utf-8"?>
<svg version="1.1" viewBox="-5.0 -10.0 110.0 135.0" xmlns="http://www.w3.org/2000/svg">
  <defs/>
  <path d="M 45.143 -3.688 L 57.041 16.921 C 57.67 18.015 56.884 19.378 55.623 19.378 L 52.708 19.378 L 63.13 37.429 C 63.759 38.523 62.974 39.886 61.712 39.886 L 57.517 39.886 L 69.224 60.163 C 69.853 61.257 69.068 62.62 67.806 62.62 L 47.701 62.62 L 48.268 90.475 C 48.275 90.936 47.908 91.311 47.447 91.311 L 42.838 91.311 C 42.381 91.311 42.01 90.936 42.018 90.475 L 42.584 62.62 L 22.479 62.62 C 21.217 62.62 20.428 61.257 21.061 60.163 L 32.768 39.886 L 28.573 39.886 C 27.311 39.886 26.522 38.523 27.155 37.429 L 37.577 19.378 L 34.663 19.378 C 33.401 19.378 32.612 18.015 33.245 16.921 L 45.143 -3.688 Z" fill-rule="evenodd" style="fill: rgb(207, 196, 250);"/>
</svg>