<?xml version="1.0" encoding="utf-8"?>
<svg version="1.1" viewBox="-5.0 -10.0 110.0 135.0" xmlns="http://www.w3.org/2000/svg">
  <defs/>
  <path d="M 20.386 5 L 32.284 25.609 C 32.913 26.703 32.127 28.066 30.866 28.066 L 27.951 28.066 L 38.373 46.117 C 39.002 47.211 38.217 48.574 36.955 48.574 L 32.76 48.574 L 44.467 68.851 C 45.096 69.945 44.311 71.308 43.049 71.308 L 22.944 71.308 L 23.511 99.163 C 23.518 99.624 23.151 99.999 22.69 99.999 L 18.081 99.999 C 17.624 99.999 17.253 99.624 17.261 99.163 L 17.827 71.308 L -2.278 71.308 C -3.54 71.308 -4.329 69.945 -3.696 68.851 L 8.011 48.574 L 3.816 48.574 C 2.554 48.574 1.765 47.211 2.398 46.117 L 12.82 28.066 L 9.906 28.066 C 8.644 28.066 7.855 26.703 8.488 25.609 L 20.386 5 Z" fill-rule="evenodd"/>
  <path d="M 53.746 15.221 L 63.289 33.615 C 63.794 34.592 63.164 35.808 62.152 35.808 L 59.814 35.808 L 68.173 51.919 C 68.678 52.896 68.048 54.113 67.036 54.113 L 63.671 54.113 L 73.061 72.211 C 73.566 73.187 72.936 74.403 71.924 74.403 L 55.798 74.403 L 56.253 99.265 C 56.258 99.676 55.964 100.011 55.594 100.011 L 51.898 100.011 C 51.531 100.011 51.233 99.676 51.24 99.265 L 51.694 74.403 L 35.568 74.403 C 34.556 74.403 33.923 73.187 34.431 72.211 L 43.821 54.113 L 40.456 54.113 C 39.444 54.113 38.811 52.896 39.319 51.919 L 47.678 35.808 L 45.341 35.808 C 44.328 35.808 43.696 34.592 44.203 33.615 L 53.746 15.221 Z" fill-rule="evenodd" style=""/>
  <path d="M 38.926 55.351 L 44.918 65.037 C 45.234 65.55 44.839 66.192 44.204 66.192 L 42.736 66.192 L 47.984 74.675 C 48.301 75.189 47.906 75.83 47.27 75.83 L 45.158 75.83 L 51.053 85.36 C 51.37 85.875 50.975 86.515 50.339 86.515 L 40.214 86.515 L 40.5 99.606 C 40.503 99.822 40.319 99.999 40.087 99.999 L 37.766 99.999 C 37.535 99.999 37.349 99.822 37.353 99.606 L 37.638 86.515 L 27.514 86.515 C 26.878 86.515 26.48 85.875 26.8 85.36 L 32.694 75.83 L 30.583 75.83 C 29.947 75.83 29.549 75.189 29.868 74.675 L 35.117 66.192 L 33.649 66.192 C 33.014 66.192 32.616 65.55 32.935 65.037 L 38.926 55.351 Z" fill-rule="evenodd" style=""/>
  <path d="M 77.126 2.744 L 90.71 23.843 C 91.428 24.963 90.531 26.358 89.091 26.358 L 85.763 26.358 L 97.662 44.838 C 98.38 45.958 97.484 47.353 96.043 47.353 L 91.254 47.353 L 104.62 68.111 C 105.338 69.231 104.442 70.627 103.001 70.627 L 80.047 70.627 L 80.694 99.143 C 80.702 99.615 80.283 99.999 79.757 99.999 L 74.495 99.999 C 73.973 99.999 73.549 99.615 73.558 99.143 L 74.205 70.627 L 51.251 70.627 C 49.81 70.627 48.909 69.231 49.632 68.111 L 62.998 47.353 L 58.208 47.353 C 56.767 47.353 55.866 45.958 56.589 44.838 L 68.488 26.358 L 65.161 26.358 C 63.72 26.358 62.819 24.963 63.542 23.843 L 77.126 2.744 Z" fill-rule="evenodd" style=""/>
</svg>