<?xml version="1.0" encoding="utf-8"?>
<svg version="1.1" viewBox="-5.0 -10.0 110.0 135.0" xmlns="http://www.w3.org/2000/svg">
  <defs/>
  <path d="M 32.98 5 L 44.878 25.609 C 45.507 26.703 44.721 28.066 43.46 28.066 L 40.545 28.066 L 50.967 46.117 C 51.596 47.211 50.811 48.574 49.549 48.574 L 45.354 48.574 L 57.061 68.851 C 57.69 69.945 56.905 71.308 55.643 71.308 L 35.538 71.308 L 36.105 99.163 C 36.112 99.624 35.745 99.999 35.284 99.999 L 30.675 99.999 C 30.218 99.999 29.847 99.624 29.855 99.163 L 30.421 71.308 L 10.316 71.308 C 9.054 71.308 8.265 69.945 8.898 68.851 L 20.605 48.574 L 16.41 48.574 C 15.148 48.574 14.359 47.211 14.992 46.117 L 25.414 28.066 L 22.5 28.066 C 21.238 28.066 20.449 26.703 21.082 25.609 L 32.98 5 Z" fill-rule="evenodd"/>
  <path d="M 53.746 -9.296 L 63.289 14.416 C 63.794 15.676 63.164 17.244 62.152 17.244 L 59.814 17.244 L 68.173 38.013 C 68.678 39.273 68.048 40.841 67.036 40.841 L 63.671 40.841 L 73.061 64.173 C 73.566 65.431 72.936 66.998 71.924 66.998 L 55.798 66.998 L 56.253 99.049 C 56.258 99.579 55.964 100.011 55.594 100.011 L 51.898 100.011 C 51.531 100.011 51.233 99.579 51.24 99.049 L 51.694 66.998 L 35.568 66.998 C 34.556 66.998 33.923 65.431 34.431 64.173 L 43.821 40.841 L 40.456 40.841 C 39.444 40.841 38.811 39.273 39.319 38.013 L 47.678 17.244 L 45.341 17.244 C 44.328 17.244 43.696 15.676 44.203 14.416 L 53.746 -9.296 Z" fill-rule="evenodd" style=""/>
  <path d="M 77.126 -9.826 L 90.71 14 C 91.428 15.265 90.531 16.84 89.091 16.84 L 85.763 16.84 L 97.662 37.708 C 98.38 38.973 97.484 40.548 96.043 40.548 L 91.254 40.548 L 104.62 63.989 C 105.338 65.254 104.442 66.831 103.001 66.831 L 80.047 66.831 L 80.694 99.032 C 80.702 99.565 80.283 99.999 79.757 99.999 L 74.495 99.999 C 73.973 99.999 73.549 99.565 73.558 99.032 L 74.205 66.831 L 51.251 66.831 C 49.81 66.831 48.909 65.254 49.632 63.989 L 62.998 40.548 L 58.208 40.548 C 56.767 40.548 55.866 38.973 56.589 37.708 L 68.488 16.84 L 65.161 16.84 C 63.72 16.84 62.819 15.265 63.542 14 L 77.126 -9.826 Z" fill-rule="evenodd" style=""/>
</svg>