<?xml version="1.0" encoding="utf-8"?>
<svg version="1.1" viewBox="14.417 -10 134.375 123.693" xmlns="http://www.w3.org/2000/svg" xmlns:bx="https://boxy-svg.com">
  <defs>
    <filter id="point-light-filter-0" primitiveUnits="objectBoundingBox" color-interpolation-filters="sRGB" x="-50%" y="-50%" width="200%" height="200%" bx:preset="point-light 1 0.5 0.5 0.5 19 0.86 0.6 0.15 #ffffff">
      <feSpecularLighting result="specular-lighting" lighting-color="#ffffff" specularConstant="0.86" specularExponent="19">
        <fePointLight x="0.5" y="0.5" z="0.5"/>
      </feSpecularLighting>
      <feDiffuseLighting result="diffuse-lighting" lighting-color="#ffffff" diffuseConstant="0.6">
        <fePointLight x="0.5" y="0.5" z="0.5"/>
      </feDiffuseLighting>
      <feMerge result="lighting">
        <feMergeNode in="diffuse-lighting"/>
        <feMergeNode in="specular-lighting"/>
      </feMerge>
      <feComposite in="SourceGraphic" in2="lighting" operator="arithmetic" k1="1" k2="0.15" k3="0" k4="0"/>
    </filter>
  </defs>
  <text x="0.0" y="117.5" font-size="5.0" font-weight="bold" font-family="Arbeit Regular, Helvetica, Arial-Unicode, Arial, Sans-serif" fill="#000000" style="white-space: pre;"> </text>
  <line style="fill: rgb(216, 216, 216); stroke-width: 10px; stroke: rgb(78, 78, 78);" x1="18.045" y1="54.003" x2="71.129" y2="54"/>
  <path style="fill: rgb(40, 40, 40); stroke: rgb(40, 40, 40);" d="M 24.145 48.917 C 23.166 50.168 25.375 47.397 21.593 53.059 C 17.568 59.087 21.172 53.696 20.967 54.019 C 20.316 55.04 22.98 50.711 18.952 57.019 C 18.904 57.094 18.439 57.925 18.439 57.925 C 18.419 57.924 18.372 56.982 18.361 56.879 C 18.23 55.55 18.169 54.262 18.169 52.92 C 18.169 51.927 18.198 50.933 18.198 49.94 C 18.198 49.753 18.151 49.004 18.275 48.909 C 18.529 48.715 19.347 48.942 19.661 48.887 C 20.541 48.729 21.422 48.803 22.304 48.696 C 22.73 48.645 23.642 48.428 24.059 48.653"/>
  <polyline style="fill: rgba(255, 255, 255, 0); stroke-miterlimit: 3.95; stroke-width: 3px; stroke: rgb(114, 114, 114);" points="17.772 25.961 20.313 21.464 72.521 21.185 70.16 25.968"/>
  <rect x="20.489" y="23.035" width="49.378" height="25.652" style="fill: rgb(40, 40, 40); stroke: rgb(40, 40, 40);"/>
  <line style="fill: rgb(216, 216, 216); stroke-width: 5px; stroke: rgb(114, 114, 114);" x1="72.4" y1="19.717" x2="72.667" y2="55.955"/>
  <polyline style="fill: rgb(216, 216, 216); stroke-width: 3px; stroke: rgb(216, 216, 216);" points="74.299 57.153 119.522 59.319 71.297 59.274"/>
  <line style="stroke-width: 6px; fill: rgb(89, 66, 30); stroke: rgb(40, 40, 40);" x1="21.305" y1="27.062" x2="21.463" y2="49.461"/>
  <path d="M 34.046 65.498 L 32.734 65.498 C 28.355 65.494 24.808 61.947 24.8 57.568 L 24.8 46.986 C 24.8 44.502 26.816 42.486 29.3 42.486 L 34.749 42.486 C 35.038 42.486 43.55 29.392 43.55 29.392 C 44.05 28.502 44.98 27.935 45.999 27.9 L 71.683 27.9 C 72.465 27.916 73.207 28.252 73.742 28.822 L 87.238 42.197 C 87.386 42.353 87.582 42.463 87.797 42.506 L 100.602 45.107 C 103.07 45.623 104.832 47.814 104.801 50.338 L 104.801 61.002 C 104.801 63.49 102.785 65.502 100.301 65.502 L 95.648 65.502 C 94.285 69.428 90.586 72.057 86.434 72.057 C 82.277 72.057 78.582 69.428 77.215 65.502 L 52.481 65.502 C 51.118 69.428 47.418 72.057 43.266 72.057 C 39.11 72.057 35.411 69.428 34.047 65.502 L 34.046 65.498 Z M 96.066 46.353 L 96.488 47.81 C 96.902 49.318 98.285 50.357 99.851 50.338 L 102.671 50.338 C 102.71 48.822 101.656 47.494 100.171 47.189 L 96.066 46.353 Z M 34.136 58.876 L 27.034 58.665 C 27.565 61.396 29.952 63.368 32.733 63.376 L 33.569 63.376 C 33.401 61.853 33.593 60.31 34.136 58.876 Z M 76.925 60.15 L 52.581 59.423 L 52.577 59.423 C 52.971 60.7 53.1 62.044 52.956 63.376 L 76.737 63.376 C 76.624 62.298 76.686 61.208 76.92 60.15 L 76.925 60.15 Z M 102.671 60.911 L 96.054 60.716 L 96.054 60.72 C 96.198 61.595 96.222 62.489 96.124 63.376 L 100.3 63.376 C 101.604 63.372 102.663 62.314 102.667 61.009 L 102.671 60.911 Z M 86.432 57.888 L 86.436 57.884 C 88.221 57.888 89.834 58.962 90.518 60.615 C 91.201 62.263 90.822 64.165 89.557 65.427 C 88.295 66.693 86.393 67.068 84.744 66.384 C 83.092 65.701 82.018 64.091 82.018 62.306 C 82.018 59.865 83.994 57.888 86.436 57.884 L 86.432 57.888 Z M 88.049 60.689 L 88.053 60.685 C 87.397 60.033 88.483 61.115 88.053 60.685 L 88.049 60.689 Z M 91.822 56.915 C 89.643 54.736 86.365 54.083 83.518 55.263 C 80.67 56.443 78.815 59.22 78.815 62.302 C 78.815 65.384 80.67 68.166 83.518 69.345 C 86.365 70.525 89.643 69.873 91.822 67.693 C 94.799 64.716 94.799 59.892 91.822 56.916 L 91.822 56.915 Z M 43.26 57.884 L 43.264 57.884 C 45.05 57.884 46.663 58.962 47.346 60.611 C 48.03 62.263 47.651 64.166 46.385 65.427 C 45.124 66.693 43.221 67.068 41.573 66.384 C 39.921 65.701 38.842 64.091 38.842 62.302 C 38.846 59.865 40.823 57.888 43.264 57.884 L 43.26 57.884 Z M 48.651 56.912 C 46.471 54.732 43.194 54.08 40.346 55.259 C 37.499 56.439 35.643 59.22 35.643 62.302 C 35.643 65.384 37.499 68.162 40.346 69.341 C 43.194 70.521 46.471 69.869 48.651 67.689 C 51.628 64.713 51.628 59.888 48.651 56.912 Z M 54.428 33.857 L 49.014 33.861 C 48.733 33.861 42.78 42.22 42.78 42.22 C 42.635 42.419 43.1 42.9 43.518 42.9 L 54.432 42.845 L 54.436 42.845 C 54.792 42.837 55.081 42.548 55.077 42.189 L 55.077 34.517 C 55.077 34.157 54.788 33.864 54.428 33.864 L 54.428 33.857 Z M 49.018 31.728 L 54.428 31.728 C 55.964 31.732 45.354 34.91 45.354 36.445 C 45.354 36.445 39.831 42.704 41.049 40.985 C 41.049 40.985 47.991 31.782 49.018 31.728 Z M 62.389 42.845 L 77.959 42.657 C 78.463 42.649 78.873 41.993 78.561 41.688 L 70.928 34.263 L 72.477 32.474 C 72.324 32.29 77.909 34.105 77.674 34.07 L 62.389 33.923 C 62.029 33.923 61.74 34.216 61.736 34.575 L 61.736 42.188 C 61.736 42.36 61.803 42.528 61.924 42.653 C 62.049 42.774 62.217 42.845 62.389 42.845 Z M 62.536 31.958 L 62.421 44.966 C 62.421 44.966 60.96 44.685 60.433 44.165 C 59.905 43.642 59.609 42.931 59.613 42.188 L 59.613 34.579 C 59.613 33.044 60.859 31.798 62.394 31.798 L 70.339 31.798 C 71.132 31.813 76.325 37.278 76.86 37.864 L 80.05 40.169 C 81.741 41.817 69.801 31.865 62.536 31.958 Z" style="fill: rgb(187, 187, 187); visibility: hidden;"/>
  <path d="M 34.052 65.498 L 32.74 65.061 C 24.285 65.697 24.806 46.549 24.806 46.549 C 24.806 44.065 26.822 42.486 29.306 42.486 L 34.755 42.486 C 35.044 42.486 43.556 29.392 43.556 29.392 C 44.056 28.502 71.689 27.9 71.689 27.9 C 72.471 27.916 73.213 28.252 73.748 28.822 L 87.244 42.197 C 87.392 42.353 87.588 42.463 87.803 42.506 L 100.608 45.107 C 103.076 45.623 104.838 47.814 104.807 50.338 L 104.807 61.002 C 104.807 63.49 102.791 65.502 100.307 65.502 L 95.654 65.502 C 94.291 69.428 90.592 72.057 86.44 72.057 C 82.283 72.057 78.588 69.428 77.221 65.502 L 52.487 65.502 C 51.124 69.428 47.424 72.057 43.272 72.057 C 39.116 72.057 35.417 69.428 34.053 65.502 L 34.052 65.498 Z M 96.072 46.353 L 96.494 47.81 C 96.908 49.318 98.291 50.357 99.857 50.338 L 102.677 50.338 C 102.716 48.822 101.662 47.494 100.177 47.189 L 96.072 46.353 Z M 34.142 58.876 L 33.575 63.376 C 33.407 61.853 33.599 60.31 34.142 58.876 Z M 76.931 60.15 L 52.587 59.423 L 76.931 60.15 Z M 86.438 57.888 L 86.442 57.884 C 88.227 57.888 89.84 58.962 90.524 60.615 C 91.207 62.263 90.828 64.165 89.563 65.427 C 88.301 66.693 89.432 59.216 87.783 58.532 C 86.131 57.849 82.024 64.091 82.024 62.306 C 82.024 59.865 84 57.888 86.442 57.884 L 86.438 57.888 Z M 88.055 60.689 L 88.059 60.685 C 87.403 60.033 86.418 59.837 85.563 60.189 C 84.707 60.544 84.153 61.38 84.153 62.306 C 84.153 63.232 84.707 64.064 85.563 64.419 C 86.418 64.775 87.403 64.58 88.059 63.923 C 88.489 63.494 88.731 62.912 88.731 62.306 C 88.731 61.697 88.489 61.115 88.059 60.685 L 88.055 60.689 Z M 43.266 57.884 L 43.27 57.884 C 45.056 57.884 46.669 58.962 47.352 60.611 C 48.036 62.263 47.657 64.166 46.391 65.427 C 45.13 66.693 46.058 58.712 44.41 58.028 C 42.758 57.345 38.848 64.091 38.848 62.302 C 38.852 59.865 40.829 57.888 43.27 57.884 L 43.266 57.884 Z M 44.888 60.685 L 44.891 60.685 C 44.235 60.029 43.251 59.833 42.395 60.189 C 41.54 60.54 40.981 61.376 40.981 62.302 C 40.981 63.228 41.54 64.064 42.395 64.419 C 43.251 64.775 44.235 64.576 44.891 63.923 C 45.782 63.029 45.782 61.58 44.891 60.685 L 44.888 60.685 Z M 54.434 33.857 L 49.02 33.861 C 48.739 33.861 42.786 42.22 42.786 42.22 C 42.641 42.419 43.106 42.9 43.524 42.9 L 54.438 42.845 L 54.442 42.845 C 54.798 42.837 55.087 42.548 55.083 42.189 L 55.083 34.517 C 55.083 34.157 54.794 33.864 54.434 33.864 L 54.434 33.857 Z M 49.024 31.728 L 54.434 31.728 C 55.97 31.732 45.36 34.91 45.36 36.445 C 45.36 36.445 39.837 42.704 41.055 40.985 C 41.055 40.985 47.997 31.782 49.024 31.728 Z M 62.395 42.845 L 77.965 42.657 C 78.469 42.649 78.879 41.993 78.567 41.688 L 70.934 34.263 L 72.483 32.474 C 72.33 32.29 77.915 34.105 77.68 34.07 L 62.395 33.923 C 62.035 33.923 61.746 34.216 61.742 34.575 L 61.742 42.188 C 61.742 42.36 61.809 42.528 61.93 42.653 C 62.055 42.774 62.223 42.845 62.395 42.845 Z M 62.542 31.958 L 62.427 44.966 C 62.427 44.966 60.966 44.685 60.439 44.165 C 59.911 43.642 59.615 42.931 59.619 42.188 L 59.619 34.579 C 59.619 33.044 60.865 31.798 62.4 31.798 L 70.345 31.798 C 71.138 31.813 76.331 37.278 76.866 37.864 L 80.056 40.169 C 81.747 41.817 69.807 31.865 62.542 31.958 Z" style="fill: rgb(114, 114, 114); visibility: hidden;"/>
  <path d="M 34.046 65.497 L 32.733 65.497 C 28.354 65.493 24.807 61.946 24.8 57.567 L 24.8 46.985 C 24.8 44.501 26.815 42.485 29.3 42.485 L 34.749 42.485 C 35.038 42.485 44.979 27.935 45.999 27.9 L 71.683 27.9 C 72.464 27.915 73.206 28.251 73.741 28.822 C 73.741 28.822 87.581 42.462 87.796 42.505 L 100.601 45.107 C 103.07 45.622 104.832 47.814 104.8 50.337 L 104.8 61.001 C 104.8 63.49 102.785 65.501 100.3 65.501 L 95.648 65.501 C 94.285 69.427 90.585 72.056 86.433 72.056 C 82.277 72.056 78.582 69.427 77.214 65.501 L 52.48 65.501 C 51.117 69.427 47.418 72.056 43.266 72.056 C 39.109 72.056 35.41 69.427 34.047 65.501 L 34.046 65.497 Z M 102.671 52.462 L 99.85 52.462 C 97.343 52.478 95.132 50.818 94.452 48.4 L 93.722 45.876 L 87.374 44.587 C 86.753 44.466 86.182 44.161 85.741 43.704 L 72.245 30.333 C 72.104 30.158 71.901 30.052 71.683 30.033 L 45.999 30.033 C 45.706 30.033 45.487 30.31 45.327 30.556 L 37.198 43.122 C 36.706 44.02 35.772 44.587 34.745 44.614 L 29.299 44.614 C 27.995 44.622 26.936 45.681 26.932 46.985 L 26.932 56.536 L 35.233 56.782 C 37.112 54.056 40.249 52.466 43.557 52.563 C 46.87 52.661 49.905 54.434 51.62 57.266 L 77.671 58.044 L 77.667 58.044 C 79.35 54.595 82.893 52.45 86.729 52.563 C 90.565 52.677 93.979 55.028 95.452 58.571 L 102.679 58.786 L 102.671 52.462 Z M 96.065 46.353 L 96.487 47.81 C 96.901 49.318 96.065 46.353 96.065 46.353 Z M 34.135 58.876 L 27.034 58.665 C 27.565 61.395 29.952 63.368 32.733 63.376 L 33.569 63.376 C 33.401 61.852 33.592 60.309 34.135 58.876 Z M 76.924 60.149 L 52.58 59.423 L 52.576 59.423 C 52.971 60.7 53.1 62.044 52.955 63.376 L 76.736 63.376 C 76.623 62.298 76.685 61.208 76.92 60.149 L 76.924 60.149 Z M 102.67 60.911 L 96.053 60.716 L 96.053 60.719 C 96.198 61.594 96.221 62.489 96.123 63.376 L 100.299 63.376 C 101.604 63.372 102.662 62.313 102.666 61.008 L 102.67 60.911 Z M 60.033 48.915 C 59.447 48.915 58.971 48.438 58.971 47.848 C 58.971 47.259 59.447 46.782 60.033 46.782 L 63.443 46.782 C 64.033 46.782 64.51 47.259 64.51 47.848 C 64.51 48.438 64.033 48.915 63.443 48.915 L 60.033 48.915 Z M 86.431 57.888 L 86.435 57.884 C 88.22 57.888 89.834 58.962 90.517 60.614 C 91.201 62.263 90.822 64.165 89.556 65.427 C 88.295 66.692 86.392 67.067 84.744 66.384 C 83.091 65.7 82.017 64.091 82.017 62.306 C 82.017 59.864 83.994 57.888 86.435 57.884 L 86.431 57.888 Z M 88.048 60.688 L 88.052 60.684 C 87.396 60.032 86.412 59.837 85.556 60.188 C 84.701 60.544 84.146 61.38 84.146 62.306 C 84.146 63.231 84.701 64.063 85.556 64.419 C 86.412 64.774 87.396 64.579 88.052 63.923 C 88.482 63.493 88.724 62.911 88.724 62.306 C 88.724 61.696 88.482 61.114 88.052 60.684 L 88.048 60.688 Z M 91.822 56.915 C 89.642 54.735 86.365 54.083 83.517 55.263 C 80.669 56.442 78.814 59.22 78.814 62.302 C 78.814 65.384 80.67 68.165 83.517 69.345 C 86.365 70.524 89.642 69.872 91.822 67.692 C 94.798 64.716 94.798 59.892 91.822 56.915 Z M 43.26 57.884 L 43.264 57.884 C 45.049 57.884 46.662 58.962 47.346 60.61 C 48.029 62.263 47.65 64.165 46.385 65.427 C 45.123 66.692 43.221 67.067 41.572 66.384 C 39.92 65.7 38.842 64.091 38.842 62.302 C 38.846 59.864 40.822 57.888 43.264 57.884 L 43.26 57.884 Z M 44.881 60.684 L 44.885 60.684 C 44.229 60.028 43.244 59.833 42.389 60.188 C 41.533 60.54 40.975 61.376 40.975 62.302 C 40.975 63.227 41.533 64.063 42.389 64.419 C 43.244 64.774 44.229 64.575 44.885 63.923 C 45.775 63.028 45.775 61.579 44.885 60.685 L 44.881 60.684 Z M 48.65 56.911 C 46.471 54.731 43.193 54.079 40.346 55.259 C 37.498 56.438 35.643 59.22 35.643 62.302 C 35.643 65.384 37.498 68.161 40.346 69.341 C 43.193 70.521 46.471 69.868 48.65 67.689 C 51.627 64.712 51.627 59.888 48.65 56.912 L 48.65 56.911 Z M 49.018 31.727 L 54.428 31.727 C 55.963 31.731 57.209 32.977 57.209 34.512 L 57.209 42.188 C 57.205 43.715 55.971 44.954 54.443 44.965 L 43.529 45.02 C 41.443 45.028 39.83 42.704 41.049 40.985 L 46.561 33.254 C 47.064 32.36 47.99 31.782 49.018 31.727 Z M 77.991 44.778 L 62.421 44.965 L 62.417 44.965 C 61.674 44.973 60.96 44.684 60.432 44.165 C 59.905 43.641 59.608 42.93 59.612 42.188 L 59.612 34.579 C 59.612 33.043 60.858 31.797 62.393 31.797 L 70.338 31.797 C 71.131 31.813 71.885 32.157 72.42 32.743 L 80.049 40.168 C 81.741 41.817 80.374 44.75 77.991 44.782 L 77.991 44.778 Z" style="fill: rgba(67, 67, 67, 0.3); visibility: hidden;"/>
  <path d="M 34.046 65.498 L 32.734 65.498 C 28.355 65.494 24.808 61.947 24.8 57.568 L 24.8 46.986 C 24.8 44.502 26.816 42.486 29.3 42.486 L 34.749 42.486 C 35.038 42.486 43.55 29.392 43.55 29.392 C 44.05 28.502 44.98 27.935 45.999 27.9 L 71.683 27.9 C 72.465 27.916 73.207 28.252 73.742 28.822 L 87.238 42.197 C 87.386 42.353 87.582 42.463 87.797 42.506 L 100.602 45.107 C 103.07 45.623 104.832 47.814 104.801 50.338 L 104.801 61.002 C 104.801 63.49 102.785 65.502 100.301 65.502 L 95.648 65.502 C 94.285 69.428 90.586 72.057 86.434 72.057 C 82.277 72.057 78.582 69.428 77.215 65.502 L 52.481 65.502 C 51.118 69.428 47.418 72.057 43.266 72.057 C 39.11 72.057 35.411 69.428 34.047 65.502 L 34.046 65.498 Z M 96.066 46.353 L 96.488 47.81 C 96.902 49.318 98.285 50.357 99.851 50.338 L 102.671 50.338 C 102.71 48.822 101.656 47.494 100.171 47.189 L 96.066 46.353 Z M 34.136 58.876 L 27.034 58.665 C 27.565 61.396 29.952 63.368 32.733 63.376 L 33.569 63.376 C 33.401 61.853 33.593 60.31 34.136 58.876 Z M 76.925 60.15 L 52.581 59.423 L 52.577 59.423 C 52.971 60.7 53.1 62.044 52.956 63.376 L 76.737 63.376 C 76.624 62.298 76.686 61.208 76.92 60.15 L 76.925 60.15 Z M 102.671 60.911 L 96.054 60.716 L 96.054 60.72 C 96.198 61.595 96.222 62.489 96.124 63.376 L 100.3 63.376 C 101.604 63.372 102.663 62.314 102.667 61.009 L 102.671 60.911 Z M 86.432 57.888 L 86.436 57.884 C 88.221 57.888 89.834 58.962 90.518 60.615 C 91.201 62.263 90.822 64.165 89.557 65.427 C 88.295 66.693 86.393 67.068 84.744 66.384 C 83.092 65.701 82.018 64.091 82.018 62.306 C 82.018 59.865 83.994 57.888 86.436 57.884 L 86.432 57.888 Z M 88.049 60.689 L 88.053 60.685 C 87.397 60.033 86.412 59.837 85.557 60.189 C 84.701 60.544 84.147 61.38 84.147 62.306 C 84.147 63.232 84.701 64.064 85.557 64.419 C 86.412 64.775 87.397 64.58 88.053 63.923 C 88.483 63.494 88.725 62.912 88.725 62.306 C 88.725 61.697 88.483 61.115 88.053 60.685 L 88.049 60.689 Z M 91.822 56.915 C 89.643 54.736 86.365 54.083 83.518 55.263 C 80.67 56.443 78.815 59.22 78.815 62.302 C 78.815 65.384 80.67 68.166 83.518 69.345 C 86.365 70.525 89.643 69.873 91.822 67.693 C 94.799 64.716 94.799 59.892 91.822 56.916 L 91.822 56.915 Z M 43.26 57.884 L 43.264 57.884 C 45.05 57.884 46.663 58.962 47.346 60.611 C 48.03 62.263 47.651 64.166 46.385 65.427 C 45.124 66.693 43.221 67.068 41.573 66.384 C 39.921 65.701 38.842 64.091 38.842 62.302 C 38.846 59.865 40.823 57.888 43.264 57.884 L 43.26 57.884 Z M 44.882 60.685 L 44.885 60.685 C 44.229 60.029 43.245 59.833 42.389 60.189 C 41.534 60.54 40.975 61.376 40.975 62.302 C 40.975 63.228 41.534 64.064 42.389 64.419 C 43.245 64.775 44.229 64.576 44.885 63.923 C 45.776 63.029 45.776 61.58 44.885 60.685 L 44.882 60.685 Z M 48.651 56.912 C 46.471 54.732 43.194 54.08 40.346 55.259 C 37.499 56.439 35.643 59.22 35.643 62.302 C 35.643 65.384 37.499 68.162 40.346 69.341 C 43.194 70.521 46.471 69.869 48.651 67.689 C 51.628 64.713 51.628 59.888 48.651 56.912 Z M 54.428 33.857 L 49.014 33.861 C 48.733 33.861 42.78 42.22 42.78 42.22 C 42.635 42.419 43.1 42.9 43.518 42.9 L 54.432 42.845 L 54.436 42.845 C 54.792 42.837 55.081 42.548 55.077 42.189 L 55.077 34.517 C 55.077 34.157 54.788 33.864 54.428 33.864 L 54.428 33.857 Z M 49.018 31.728 L 54.428 31.728 C 55.964 31.732 45.354 34.91 45.354 36.445 C 45.354 36.445 39.831 42.704 41.049 40.985 C 41.049 40.985 47.991 31.782 49.018 31.728 Z M 62.389 42.845 L 77.959 42.657 C 78.463 42.649 78.873 41.993 78.561 41.688 L 70.928 34.263 L 72.477 32.474 C 72.324 32.29 77.909 34.105 77.674 34.07 L 62.389 33.923 C 62.029 33.923 61.74 34.216 61.736 34.575 L 61.736 42.188 C 61.736 42.36 61.803 42.528 61.924 42.653 C 62.049 42.774 62.217 42.845 62.389 42.845 Z M 62.536 31.958 L 62.421 44.966 C 62.421 44.966 60.96 44.685 60.433 44.165 C 59.905 43.642 59.609 42.931 59.613 42.188 L 59.613 34.579 C 59.613 33.044 60.859 31.798 62.394 31.798 L 70.339 31.798 C 71.132 31.813 76.325 37.278 76.86 37.864 L 80.05 40.169 C 81.741 41.817 69.801 31.865 62.536 31.958 Z" style="fill: rgb(0, 21, 67); visibility: hidden;"/>
  <ellipse style="stroke-width: 1.3px; stroke: rgb(114, 114, 114); fill: rgb(184, 184, 184);" cx="31.657" cy="66.33" rx="5.991" ry="5.797"/>
  <path d="M 39.16 65.661 L 50.758 58.513 L 62.352 51.378 C 62.365 51.369 62.372 51.357 62.385 51.348 C 62.405 51.332 62.426 51.315 62.441 51.293 C 62.456 51.278 62.466 51.257 62.479 51.237 C 62.49 51.216 62.5 51.195 62.509 51.17 C 62.515 51.146 62.52 51.119 62.525 51.095 C 62.525 51.079 62.533 51.065 62.533 51.047 L 62.533 36.774 L 62.533 22.493 L 62.533 8.224 C 62.533 8.213 62.528 8.206 62.528 8.201 C 62.527 8.183 62.525 8.167 62.522 8.151 C 62.518 8.134 62.513 8.118 62.509 8.102 C 62.504 8.086 62.497 8.07 62.49 8.053 C 62.487 8.047 62.487 8.04 62.484 8.033 C 62.479 8.026 62.472 8.021 62.471 8.018 C 62.459 8.003 62.451 7.989 62.441 7.979 C 62.43 7.961 62.42 7.951 62.407 7.94 C 62.393 7.928 62.38 7.919 62.367 7.907 C 62.362 7.905 62.359 7.898 62.352 7.894 L 50.758 0.759 C 50.745 0.75 50.732 0.75 50.72 0.745 C 50.695 0.731 50.671 0.722 50.644 0.718 C 50.625 0.713 50.607 0.713 50.587 0.713 C 50.561 0.711 50.536 0.713 50.51 0.718 C 50.488 0.722 50.467 0.734 50.445 0.741 C 50.431 0.748 50.416 0.75 50.401 0.757 L 38.803 7.894 C 38.797 7.896 38.795 7.903 38.789 7.907 C 38.774 7.917 38.762 7.926 38.749 7.94 C 38.738 7.951 38.726 7.961 38.713 7.975 C 38.703 7.989 38.693 8.002 38.685 8.018 C 38.682 8.021 38.675 8.026 38.672 8.033 C 38.669 8.037 38.669 8.047 38.667 8.053 C 38.657 8.067 38.65 8.083 38.647 8.099 C 38.641 8.118 38.636 8.134 38.634 8.151 C 38.629 8.167 38.629 8.183 38.627 8.201 C 38.627 8.206 38.622 8.213 38.622 8.224 L 38.622 22.493 L 38.622 36.556 L 27.211 43.581 C 27.203 43.586 27.202 43.591 27.195 43.596 C 27.182 43.605 27.17 43.614 27.16 43.625 C 27.146 43.637 27.134 43.649 27.121 43.665 C 27.111 43.677 27.103 43.69 27.095 43.704 C 27.09 43.711 27.083 43.713 27.082 43.72 C 27.077 43.727 27.077 43.734 27.075 43.741 C 27.067 43.757 27.06 43.771 27.055 43.788 C 27.049 43.804 27.045 43.82 27.042 43.839 C 27.039 43.855 27.039 43.871 27.035 43.887 C 27.035 43.896 27.032 43.903 27.032 43.91 L 27.032 58.181 C 27.032 58.197 27.039 58.211 27.04 58.227 C 27.045 58.253 27.047 58.278 27.055 58.304 C 27.063 58.327 27.075 58.348 27.085 58.369 C 27.096 58.39 27.106 58.41 27.121 58.429 C 27.139 58.448 27.159 58.464 27.18 58.48 C 27.19 58.491 27.198 58.503 27.211 58.51 L 38.802 65.66 C 38.803 65.66 38.803 65.66 38.803 65.66 C 38.81 65.663 38.813 65.661 38.82 65.667 C 38.868 65.691 38.922 65.712 38.981 65.712 C 39.039 65.712 39.093 65.693 39.142 65.667 C 39.146 65.661 39.152 65.663 39.157 65.66 C 39.159 65.661 39.159 65.661 39.16 65.661 Z M 51.572 16.121 L 61.461 8.224 L 50.58 14.919 L 39.697 8.224 L 51.572 16.121 Z M 39.34 51.265 L 50.222 44.57 L 38.943 50.709 L 39.34 64.672 L 39.34 51.265 Z M 61.818 36.556 L 50.937 43.251 L 61.98 37.662 L 61.818 23.153 L 61.818 36.556 Z M 61.818 22.273 L 50.937 28.982 L 62.112 22.368 L 61.818 8.88 L 61.818 22.273 Z M 50.222 28.982 L 39.34 22.273 L 39.34 8.88 L 39.047 23.44 L 50.222 28.982 Z M 50.172 43.383 L 50.222 29.862 L 50.222 43.251 L 39.34 36.558 L 50.172 43.383 Z M 62.133 51.08 L 61.818 37.436 L 61.818 50.827 L 50.937 57.522 L 62.133 51.08 Z M 37.436 51.977 L 49.865 43.912 L 38.981 50.609 L 28.105 43.912 L 37.436 51.977 Z M 27.749 44.57 L 27.587 57.957 L 38.626 64.672 L 27.749 57.962 L 27.749 44.57 Z" style="transform-box: fill-box; transform-origin: 50% 50%; fill: rgb(255, 215, 0); filter: url('#point-light-filter-0');" transform="matrix(0.852641, 0.522498, -0.522498, 0.852641, -0.000001, 0)"/>
  <path d="M 39.079 65.681 L 50.68 58.531 L 62.279 51.396 C 62.292 51.389 62.3 51.378 62.311 51.367 C 62.331 51.352 62.352 51.336 62.368 51.314 C 62.384 51.296 62.393 51.274 62.404 51.256 C 62.416 51.234 62.427 51.216 62.435 51.192 C 62.443 51.166 62.444 51.142 62.449 51.112 C 62.451 51.097 62.457 51.084 62.457 51.068 L 62.457 36.796 L 62.457 22.513 L 62.457 8.243 C 62.457 8.235 62.455 8.229 62.455 8.221 C 62.451 8.204 62.451 8.189 62.448 8.172 C 62.444 8.155 62.441 8.137 62.435 8.123 C 62.428 8.106 62.424 8.09 62.416 8.073 C 62.414 8.067 62.414 8.059 62.409 8.053 C 62.407 8.049 62.4 8.044 62.395 8.037 C 62.387 8.024 62.379 8.011 62.368 7.998 C 62.356 7.984 62.344 7.974 62.331 7.959 C 62.32 7.949 62.308 7.937 62.293 7.93 C 62.287 7.926 62.284 7.918 62.279 7.913 L 50.68 0.779 C 50.668 0.771 50.655 0.771 50.643 0.765 C 50.618 0.753 50.595 0.743 50.567 0.738 C 50.547 0.734 50.527 0.734 50.509 0.734 C 50.483 0.731 50.457 0.734 50.432 0.738 C 50.41 0.743 50.389 0.755 50.368 0.761 C 50.353 0.77 50.338 0.771 50.322 0.778 L 38.722 7.913 C 38.714 7.918 38.713 7.922 38.706 7.927 C 38.692 7.936 38.681 7.949 38.668 7.959 C 38.656 7.971 38.644 7.983 38.63 7.998 C 38.621 8.009 38.613 8.024 38.604 8.037 C 38.599 8.044 38.593 8.048 38.591 8.053 C 38.586 8.059 38.586 8.067 38.585 8.073 C 38.575 8.09 38.57 8.103 38.565 8.123 C 38.558 8.137 38.554 8.154 38.553 8.172 C 38.549 8.189 38.549 8.204 38.546 8.22 C 38.546 8.229 38.541 8.235 38.541 8.243 L 38.541 22.513 L 38.541 36.577 L 27.125 43.6 C 27.121 43.606 27.116 43.611 27.109 43.615 C 27.097 43.625 27.086 43.633 27.075 43.646 C 27.06 43.659 27.05 43.67 27.037 43.683 C 27.026 43.7 27.017 43.709 27.009 43.725 C 27.004 43.73 26.997 43.734 26.996 43.74 C 26.992 43.745 26.992 43.756 26.989 43.758 C 26.981 43.776 26.976 43.792 26.97 43.808 C 26.965 43.824 26.96 43.842 26.957 43.857 C 26.953 43.875 26.953 43.89 26.952 43.906 C 26.952 43.915 26.947 43.923 26.947 43.929 L 26.947 58.202 C 26.947 58.217 26.953 58.231 26.955 58.246 C 26.96 58.272 26.961 58.296 26.97 58.322 C 26.98 58.345 26.989 58.369 27.001 58.389 C 27.011 58.411 27.021 58.43 27.037 58.445 C 27.053 58.465 27.073 58.487 27.094 58.501 C 27.105 58.511 27.114 58.52 27.125 58.531 L 38.721 65.677 C 38.722 65.677 38.722 65.677 38.722 65.677 C 38.729 65.684 38.731 65.681 38.738 65.685 C 38.786 65.709 38.842 65.731 38.899 65.731 C 38.958 65.731 39.01 65.712 39.059 65.685 C 39.065 65.681 39.07 65.684 39.076 65.677 C 39.076 65.681 39.079 65.681 39.079 65.681 Z M 50.503 1.55 L 61.386 8.243 L 50.503 14.938 L 39.616 8.243 L 50.503 1.55 Z M 39.26 51.287 L 50.144 44.591 L 50.144 57.983 L 39.26 64.689 L 39.26 51.287 Z M 61.744 36.577 L 50.859 43.273 L 50.859 29.882 L 61.744 23.171 L 61.744 36.577 Z M 61.744 22.291 L 50.859 29 L 50.859 15.599 L 61.744 8.901 L 61.744 22.291 Z M 50.144 29 L 39.26 22.291 L 39.26 8.901 L 50.144 15.599 L 50.144 29 Z M 39.26 23.173 L 50.144 29.882 L 50.144 43.273 L 39.26 36.579 L 39.26 23.173 Z M 50.859 44.151 L 61.744 37.455 L 61.744 50.849 L 50.859 57.541 L 50.859 44.151 Z M 38.901 37.235 L 49.788 43.931 L 38.901 50.628 L 28.02 43.931 L 38.901 37.235 Z M 27.663 44.591 L 38.545 51.287 L 38.545 64.689 L 27.663 57.983 L 27.663 44.591 Z" style="filter: none; transform-box: fill-box; transform-origin: 50% 50%; fill: rgb(166, 140, 0);" transform="matrix(0.85264, 0.522499, -0.522499, 0.85264, 0, 0.000002)"/>
  <polyline style="fill: rgba(255, 255, 255, 0); stroke-width: 3px; stroke: rgb(114, 114, 114);" points="70.86900329589844 58.88100051879883 70.56600189208984 26.420000076293945 17.988000869750977 26.61400032043457 18 59.3 72.4000015258789 59.29999923706055"/>
  <line style="fill: rgb(150, 111, 51); stroke-width: 7px; stroke: rgb(114, 114, 114);" x1="18.012" y1="43.825" x2="70.731" y2="43.81"/>
  <polyline style="fill: rgb(216, 216, 216); stroke-width: 5px; stroke: rgb(114, 114, 114);" points="68.088 58.214 71.026 58.269 72.975 54.672"/>
  <ellipse style="stroke-width: 1.3px; stroke: rgb(114, 114, 114); fill: rgb(184, 184, 184);" cx="58" cy="66.3" rx="5.991" ry="5.797"/>
  <rect x="105.814" y="53.991" width="3.042" height="5.19" style="fill: rgb(216, 216, 216); stroke: rgb(216, 216, 216);"/>
</svg>