<?xml version="1.0" encoding="utf-8"?>
<svg version="1.1" x="0px" y="0px" viewBox="0 0 1000 1250" enable-background="new 0 0 1000 1000" xmlns="http://www.w3.org/2000/svg">
  <defs/>
  <polygon style="stroke: rgb(0, 0, 0); fill: rgba(44, 91, 140, 0.357); stroke-opacity: 0;" points="286.9 578 150.766 825.831 863.372 828.614 989.213 573.059"/>
  <path d="M 245.614 739.217 L 378.881 739.605 L 404.978 697.765 L 271.713 697.38 L 245.614 739.217 Z M 276.93 689.011 L 410.199 689.397 L 436.299 647.561 L 303.03 647.173 L 276.93 689.011 Z M 324.463 655.621 L 404.425 655.85 L 324.463 655.621 Z M 308.251 638.807 L 441.518 639.193 L 467.619 597.354 L 334.351 596.969 L 308.251 638.807 Z M 355.782 605.414 L 435.742 605.645 L 355.782 605.414 Z M 436.852 689.475 L 570.12 689.861 L 596.218 648.023 L 462.951 647.636 L 436.852 689.475 Z M 468.17 639.269 L 601.438 639.655 L 627.537 597.819 L 494.269 597.434 L 468.17 639.269 Z M 596.774 689.936 L 730.043 690.323 L 756.142 648.486 L 622.873 648.1 L 596.774 689.936 Z M 628.092 639.732 L 761.361 640.118 L 787.46 598.283 L 654.19 597.894 L 628.092 639.732 Z M 739.928 631.674 L 755.588 606.572 L 739.928 631.674 Z M 814.114 598.358 L 788.016 640.196 L 921.285 640.582 L 947.385 598.744 L 814.114 598.358 Z M 431.63 697.842 L 564.899 698.23 L 538.801 740.067 L 405.531 739.678 L 431.63 697.842 Z M 591.555 698.304 L 724.824 698.691 L 698.723 740.529 L 565.454 740.143 L 591.555 698.304 Z M 751.477 698.769 L 884.747 699.153 L 858.647 740.993 L 725.38 740.607 L 751.477 698.769 Z M 240.39 747.585 L 373.662 747.972 L 347.562 789.809 L 214.294 789.422 L 240.39 747.585 Z M 400.314 748.049 L 533.583 748.432 L 507.481 790.272 L 374.214 789.886 L 400.314 748.049 Z M 560.235 748.511 L 693.501 748.899 L 667.402 790.735 L 534.136 790.349 L 560.235 748.511 Z M 720.159 748.974 L 853.429 749.361 L 827.327 791.199 L 694.059 790.813 L 720.159 748.974 Z M 782.798 648.563 L 916.065 648.95 L 889.965 690.786 L 756.698 690.401 L 782.798 648.563 Z" style="fill: rgb(30, 59, 88); transform-origin: 771.261px 695.239px;" transform="matrix(1, 0.000001, -0.000001, 1, 0, 0)"/>
  <path d="M218.395,634.683h122.438V512.244H218.395V634.683z M260.195,610.195l56.149-56.149v56.149H260.195z M299.031,536.732  l-56.149,56.148v-56.148H299.031z M218.395,487.757h122.438V365.319H218.395V487.757z M242.882,389.807h73.463v73.462h-73.463  V389.807z M218.395,340.832h122.438V218.395H218.395V340.832z M242.882,242.882h73.463v73.463h-73.463V242.882z M365.319,487.757  h122.438V365.319H365.319V487.757z M407.121,463.27l56.149-56.149v56.149H407.121z M445.956,389.807l-56.149,56.149v-56.149H445.956  z M365.319,340.832h122.438V218.395H365.319V340.832z M389.807,242.882h73.462v73.463h-73.462V242.882z M512.244,487.757h122.438  V365.319H512.244V487.757z M554.046,463.27l56.149-56.149v56.149H554.046z M592.881,389.807l-56.148,56.149v-56.149H592.881z   M512.244,340.832h122.438V218.395H512.244V340.832z M536.732,242.882h73.463v73.463h-73.463V242.882z M659.17,218.395v122.438  h122.438V218.395H659.17z M739.807,242.882l-56.149,56.149v-56.149H739.807z M700.971,316.345l56.149-56.149v56.149H700.971z   M365.319,512.244h122.438v122.438H365.319V512.244z M512.244,512.244h122.438v122.438H512.244V512.244z M659.17,512.244h122.438  v122.438H659.17V512.244z M218.395,659.17h122.438v122.438H218.395V659.17z M365.319,659.17h122.438v122.438H365.319V659.17z   M512.244,659.17h122.438v122.438H512.244V659.17z M659.17,659.17h122.438v122.438H659.17V659.17z M659.17,365.319h122.438v122.438  H659.17V365.319z" style="fill: rgb(144, 173, 202);"/>
  <path d="M 203.654 633.793 L 326.092 633.793 L 326.092 511.354 L 203.654 511.354 L 203.654 633.793 Z M 245.454 609.305 L 301.603 553.156 L 301.603 609.305 L 245.454 609.305 Z M 284.29 535.842 L 228.141 591.99 L 228.141 535.842 L 284.29 535.842 Z M 203.654 486.867 L 326.092 486.867 L 326.092 364.429 L 203.654 364.429 L 203.654 486.867 Z M 228.141 388.917 L 301.604 388.917 L 301.604 462.379 L 228.141 462.379 L 228.141 388.917 Z M 203.654 339.942 L 326.092 339.942 L 326.092 217.505 L 203.654 217.505 L 203.654 339.942 Z M 228.141 241.992 L 301.604 241.992 L 301.604 315.455 L 228.141 315.455 L 228.141 241.992 Z M 350.578 486.867 L 473.016 486.867 L 473.016 364.429 L 350.578 364.429 L 350.578 486.867 Z M 392.38 462.38 L 448.529 406.231 L 448.529 462.38 L 392.38 462.38 Z M 431.215 388.917 L 375.066 445.066 L 375.066 388.917 L 431.215 388.917 Z M 350.578 339.942 L 473.016 339.942 L 473.016 217.505 L 350.578 217.505 L 350.578 339.942 Z M 375.066 241.992 L 448.528 241.992 L 448.528 315.455 L 375.066 315.455 L 375.066 241.992 Z M 497.503 486.867 L 619.941 486.867 L 619.941 364.429 L 497.503 364.429 L 497.503 486.867 Z M 539.305 462.38 L 595.454 406.231 L 595.454 462.38 L 539.305 462.38 Z M 578.14 388.917 L 521.992 445.066 L 521.992 388.917 L 578.14 388.917 Z M 497.503 339.942 L 619.941 339.942 L 619.941 217.505 L 497.503 217.505 L 497.503 339.942 Z M 521.991 241.992 L 595.454 241.992 L 595.454 315.455 L 521.991 315.455 L 521.991 241.992 Z M 644.429 217.505 L 644.429 339.943 L 766.867 339.943 L 766.867 217.505 L 644.429 217.505 Z M 725.066 241.992 L 668.917 298.141 L 668.917 241.992 L 725.066 241.992 Z M 686.23 315.455 L 742.379 259.306 L 742.379 315.455 L 686.23 315.455 Z M 350.578 511.354 L 473.016 511.354 L 473.016 633.792 L 350.578 633.792 L 350.578 511.354 Z M 497.503 511.354 L 619.941 511.354 L 619.941 633.792 L 497.503 633.792 L 497.503 511.354 Z M 644.429 511.354 L 766.867 511.354 L 766.867 633.792 L 644.429 633.792 L 644.429 511.354 Z M 203.654 658.28 L 326.092 658.28 L 326.092 780.718 L 203.654 780.718 L 203.654 658.28 Z M 350.578 658.28 L 473.016 658.28 L 473.016 780.718 L 350.578 780.718 L 350.578 658.28 Z M 497.503 658.28 L 619.941 658.28 L 619.941 780.718 L 497.503 780.718 L 497.503 658.28 Z M 644.429 658.28 L 766.867 658.28 L 766.867 780.718 L 644.429 780.718 L 644.429 658.28 Z M 644.429 364.429 L 766.867 364.429 L 766.867 486.867 L 644.429 486.867 L 644.429 364.429 Z" style="fill: rgb(165, 73, 184);"/>
</svg>